<svg width="69" height="74" viewBox="0 0 69 74" fill="none" xmlns="http://www.w3.org/2000/svg">
<path d="M34.3053 71.0004H33.6928L2.50025 52.2849C2.49995 49.9622 2.49999 29.7537 2.50002 13.0918C2.50003 9.29202 2.50003 5.6767 2.50003 2.50001C2.56757 2.50001 2.63724 2.50001 2.70901 2.50002C10.8101 2.50009 45.752 2.5004 66 2.50041L66.0003 51.9562C65.9798 51.974 65.9595 51.9921 65.9392 52.0106C65.8854 52.0599 65.8345 52.1099 65.7862 52.1604C65.6367 52.2595 65.4133 52.4026 65.1124 52.5909C64.4849 52.9838 63.584 53.5342 62.4656 54.21C60.2319 55.5597 57.1711 57.385 53.7854 59.3982C52.1593 60.3651 50.4584 61.3752 48.7396 62.396C43.5758 65.4628 38.2504 68.6255 34.3053 71.0004Z" fill="white" stroke="url(#paint0_linear)" stroke-width="5"/>
<path d="M13.3807 42.4731C13.358 42.7592 13.2417 42.9845 13.0318 43.1489C12.8232 43.3132 12.5477 43.3954 12.2054 43.3954C11.831 43.3954 11.5362 43.281 11.3209 43.0521C11.107 42.8219 11 42.5065 11 42.1059V41.9434C11 41.6877 11.0495 41.4624 11.1484 41.2676C11.2474 41.0728 11.3884 40.9236 11.5716 40.8201C11.7561 40.7154 11.9701 40.663 12.2134 40.663C12.5504 40.663 12.8218 40.7452 13.0277 40.9096C13.2337 41.074 13.3527 41.3047 13.3848 41.6018H12.7831C12.7683 41.4301 12.7155 41.3059 12.6246 41.2292C12.535 41.1513 12.398 41.1123 12.2134 41.1123C12.0129 41.1123 11.8624 41.1781 11.7622 41.3096C11.6632 41.4399 11.6124 41.6426 11.6097 41.9178V42.1187C11.6097 42.4061 11.6572 42.6161 11.7521 42.7489C11.8484 42.8816 11.9995 42.9479 12.2054 42.9479C12.3913 42.9479 12.5297 42.9096 12.6206 42.8329C12.7129 42.7549 12.7657 42.635 12.779 42.4731H13.3807Z" fill="#DA4F4F"/>
<path d="M15.5328 42.2064H14.3776V42.9187H15.7334V43.3589H13.7759V40.6995H15.7294V41.1434H14.3776V41.7772H15.5328V42.2064Z" fill="#DA4F4F"/>
<path d="M16.6881 42.4219V43.3589H16.0864V40.6995H17.2256C17.4449 40.6995 17.6375 40.7361 17.8033 40.8091C17.9704 40.8822 18.0988 40.9863 18.1884 41.1215C18.278 41.2554 18.3227 41.4082 18.3227 41.5799C18.3227 41.8405 18.2245 42.0463 18.0279 42.1973C17.8327 42.347 17.5619 42.4219 17.2156 42.4219H16.6881ZM16.6881 41.9781H17.2256C17.3848 41.9781 17.5058 41.944 17.5887 41.8758C17.6729 41.8076 17.715 41.7102 17.715 41.5836C17.715 41.4533 17.6729 41.3479 17.5887 41.2676C17.5044 41.1872 17.3881 41.1458 17.2397 41.1434H16.6881V41.9781Z" fill="#DA4F4F"/>
<path d="M20.9362 41.1434H20.0416V43.3589H19.4399V41.1434H18.5574V40.6995H20.9362V41.1434Z" fill="#DA4F4F"/>
<path d="M23.0321 40.6995H23.6358V43.3589H23.0321V41.5927L21.8628 43.3589H21.2611V40.6995H21.8628V42.4694L23.0321 40.6995Z" fill="#DA4F4F"/>
<path d="M25.8721 40.937H25.9082C26.1369 40.937 26.3435 40.9833 26.528 41.0758C26.7139 41.1671 26.8583 41.2974 26.9612 41.4667C27.0642 41.6359 27.1157 41.8283 27.1157 42.0438C27.1157 42.3629 27.0033 42.6234 26.7787 42.8256C26.5554 43.0277 26.2532 43.1288 25.8721 43.1288V43.4685H25.2925V43.1288H25.2544C25.0231 43.1288 24.8145 43.0837 24.6286 42.9936C24.4428 42.9023 24.2983 42.7744 24.1954 42.61C24.0938 42.4457 24.043 42.2581 24.043 42.0475C24.043 41.8344 24.0938 41.6438 24.1954 41.4758C24.297 41.3078 24.4394 41.1769 24.6226 41.0831C24.8058 40.9881 25.0104 40.9394 25.2363 40.937H25.2925V40.59H25.8721V40.937ZM25.2544 41.3918C25.0552 41.3918 24.898 41.449 24.7831 41.5635C24.6694 41.6779 24.6126 41.8393 24.6126 42.0475C24.6126 42.2423 24.6694 42.3957 24.7831 42.5078C24.8967 42.6186 25.0565 42.674 25.2624 42.674H25.2925V41.3918H25.2544ZM25.8721 41.3918V42.674H25.9123C26.1088 42.674 26.2632 42.618 26.3756 42.5059C26.4892 42.3927 26.546 42.2387 26.546 42.0438C26.546 41.8405 26.4906 41.681 26.3796 41.5653C26.2686 41.4496 26.1095 41.3918 25.9022 41.3918H25.8721Z" fill="#DA4F4F"/>
<path d="M29.2617 40.6995H29.8655V43.3589H29.2617V41.5927L28.0924 43.3589H27.4907V40.6995H28.0924V42.4694L29.2617 40.6995Z" fill="#DA4F4F"/>
<path d="M30.3609 40.6995H30.9626V42.9187H32.1319V40.6995H32.7356V42.9187H33.1347L33.0946 44H32.533V43.3589H30.3609V40.6995Z" fill="#DA4F4F"/>
<path d="M35.2547 40.6995H35.8584V43.3589H35.2547V41.5927L34.0854 43.3589H33.4837V40.6995H34.0854V42.4694L35.2547 40.6995Z" fill="#DA4F4F"/>
<path d="M36.9816 42.4219V43.3589H36.3799V40.6995H37.5191C37.7384 40.6995 37.931 40.7361 38.0968 40.8091C38.2639 40.8822 38.3923 40.9863 38.4819 41.1215C38.5715 41.2554 38.6162 41.4082 38.6162 41.5799C38.6162 41.8405 38.518 42.0463 38.3214 42.1973C38.1262 42.347 37.8554 42.4219 37.5091 42.4219H36.9816ZM36.9816 41.9781H37.5191C37.6783 41.9781 37.7993 41.944 37.8822 41.8758C37.9664 41.8076 38.0085 41.7102 38.0085 41.5836C38.0085 41.4533 37.9664 41.3479 37.8822 41.2676C37.7979 41.1872 37.6816 41.1458 37.5332 41.1434H36.9816V41.9781Z" fill="#DA4F4F"/>
<path d="M41.4302 42.0895C41.4302 42.3513 41.3794 42.5808 41.2778 42.7781C41.1762 42.9753 41.0304 43.1275 40.8405 43.2347C40.652 43.3419 40.4354 43.3954 40.1907 43.3954C39.9487 43.3954 39.7327 43.3425 39.5429 43.2365C39.353 43.1306 39.2059 42.9796 39.1016 42.7836C38.9973 42.5863 38.9445 42.3598 38.9432 42.1041V41.9726C38.9432 41.7108 38.9947 41.4807 39.0976 41.2822C39.2019 41.0825 39.3483 40.9297 39.5369 40.8237C39.7267 40.7166 39.9433 40.663 40.1867 40.663C40.4301 40.663 40.646 40.7166 40.8345 40.8237C41.0244 40.9297 41.1708 41.0825 41.2738 41.2822C41.3781 41.4807 41.4302 41.7102 41.4302 41.9708V42.0895ZM40.8205 41.9689C40.8205 41.6901 40.7657 41.4782 40.656 41.3333C40.5464 41.1884 40.3899 41.116 40.1867 41.116C39.9848 41.116 39.829 41.1878 39.7194 41.3315C39.6097 41.474 39.5542 41.6834 39.5529 41.9598V42.0895C39.5529 42.361 39.6077 42.5717 39.7174 42.7215C39.827 42.8712 39.9848 42.9461 40.1907 42.9461C40.3926 42.9461 40.5477 42.8743 40.656 42.7306C40.7643 42.5857 40.8192 42.375 40.8205 42.0986V41.9689Z" fill="#DA4F4F"/>
<path d="M41.8675 43.3589V40.6995H42.8904C43.2447 40.6995 43.5135 40.7616 43.6966 40.8858C43.8798 41.0088 43.9714 41.1896 43.9714 41.4283C43.9714 41.5586 43.9347 41.6737 43.8611 41.7735C43.7876 41.8721 43.6853 41.9446 43.5542 41.9909C43.704 42.025 43.8217 42.0938 43.9072 42.1973C43.9942 42.3008 44.0376 42.4274 44.0376 42.5772C44.0376 42.8329 43.948 43.0265 43.7688 43.158C43.5897 43.2895 43.3343 43.3565 43.0027 43.3589H41.8675ZM42.4692 42.2009V42.9187H42.9846C43.1264 42.9187 43.2367 42.8883 43.3156 42.8274C43.3958 42.7653 43.4359 42.6801 43.4359 42.5717C43.4359 42.3282 43.2975 42.2046 43.0207 42.2009H42.4692ZM42.4692 41.8137H42.9144C43.218 41.8088 43.3697 41.6986 43.3697 41.4831C43.3697 41.3626 43.3309 41.2761 43.2534 41.2237C43.1772 41.1702 43.0562 41.1434 42.8904 41.1434H42.4692V41.8137Z" fill="#DA4F4F"/>
<path d="M46.1396 42.811H45.0846L44.884 43.3589H44.2442L45.3313 40.6995H45.8889L46.9819 43.3589H46.3421L46.1396 42.811ZM45.247 42.3671H45.9771L45.6101 41.3717L45.247 42.3671Z" fill="#DA4F4F"/>
<path d="M49.6315 43.3589H49.0298V42.2192H47.8564V43.3589H47.2547V40.6995H47.8564V41.7772H49.0298V40.6995H49.6315V43.3589Z" fill="#DA4F4F"/>
<path d="M52.5357 43.3589H51.934V42.2192H50.7607V43.3589H50.159V40.6995H50.7607V41.7772H51.934V40.6995H52.5357V43.3589Z" fill="#DA4F4F"/>
<path d="M53.6749 41.6584H54.1442C54.4879 41.6584 54.76 41.7346 54.9606 41.8868C55.1625 42.0377 55.2634 42.2417 55.2634 42.4986C55.2634 42.7568 55.1631 42.9644 54.9626 43.1215C54.7633 43.2773 54.4979 43.3565 54.1663 43.3589H53.0692V40.6995H53.6749V41.6584ZM56.1158 43.3589H55.5141V40.6995H56.1158V43.3589ZM53.6749 42.1005V42.9187H54.1543C54.308 42.9187 54.4304 42.8804 54.5213 42.8037C54.6136 42.7269 54.6597 42.624 54.6597 42.495C54.6597 42.3744 54.6156 42.2795 54.5273 42.21C54.4404 42.1394 54.3207 42.1029 54.1683 42.1005H53.6749Z" fill="#DA4F4F"/>
<path d="M58.3963 40.6995H59V43.3589H58.3963V41.5927L57.227 43.3589H56.6253V40.6995H57.227V42.4694L58.3963 40.6995ZM58.5126 40C58.5126 40.1619 58.4484 40.2928 58.3201 40.3927C58.193 40.4925 58.0259 40.5425 57.8187 40.5425C57.6114 40.5425 57.4436 40.4932 57.3152 40.3945C57.1882 40.2959 57.1247 40.1644 57.1247 40H57.5359C57.5359 40.0767 57.5606 40.1364 57.6101 40.179C57.6609 40.2204 57.7304 40.2411 57.8187 40.2411C57.9056 40.2411 57.9738 40.2204 58.0232 40.179C58.0727 40.1364 58.0974 40.0767 58.0974 40H58.5126Z" fill="#DA4F4F"/>
<path d="M23.1494 51H22.0945V46.8345H20.0514V51H19V46H23.1494V51Z" fill="#DA4F4F"/>
<path d="M26.9553 49.9698H25.1119L24.7615 51H23.6435L25.543 46H26.5172L28.4272 51H27.3093L26.9553 49.9698ZM25.3958 49.1353H26.6714L26.0301 47.2637L25.3958 49.1353Z" fill="#DA4F4F"/>
<path d="M29.9552 49.2383V51H28.9038V46H30.8944C31.2776 46 31.614 46.0687 31.9037 46.206C32.1958 46.3434 32.4201 46.5391 32.5766 46.7933C32.7331 47.0451 32.8114 47.3324 32.8114 47.6552C32.8114 48.1451 32.6397 48.5321 32.2962 48.8159C31.9551 49.0975 31.482 49.2383 30.8769 49.2383H29.9552ZM29.9552 48.4038H30.8944C31.1725 48.4038 31.3839 48.3397 31.5287 48.2115C31.6759 48.0833 31.7495 47.9002 31.7495 47.6621C31.7495 47.4171 31.6759 47.2191 31.5287 47.068C31.3816 46.9169 31.1783 46.8391 30.919 46.8345H29.9552V48.4038Z" fill="#DA4F4F"/>
<path d="M37.3778 46.8345H35.8148V51H34.7634V46.8345H33.2214V46H37.3778V46.8345Z" fill="#DA4F4F"/>
<path d="M42.1335 51H41.0821V48.8571H39.032V51H37.9806V46H39.032V48.0261H41.0821V46H42.1335V51Z" fill="#DA4F4F"/>
<path d="M46.1252 48.8331H44.1066V50.1724H46.4756V51H43.0552V46H46.4686V46.8345H44.1066V48.0261H46.1252V48.8331Z" fill="#DA4F4F"/>
<path d="M48.1438 49.2383V51H47.0924V46H49.083C49.4662 46 49.8026 46.0687 50.0923 46.206C50.3844 46.3434 50.6087 46.5391 50.7652 46.7933C50.9217 47.0451 51 47.3324 51 47.6552C51 48.1451 50.8283 48.5321 50.4848 48.8159C50.1437 49.0975 49.6706 49.2383 49.0655 49.2383H48.1438ZM48.1438 48.4038H49.083C49.361 48.4038 49.5725 48.3397 49.7173 48.2115C49.8645 48.0833 49.9381 47.9002 49.9381 47.6621C49.9381 47.4171 49.8645 47.2191 49.7173 47.068C49.5701 46.9169 49.3669 46.8391 49.1075 46.8345H48.1438V48.4038Z" fill="#DA4F4F"/>
<path fill-rule="evenodd" clip-rule="evenodd" d="M29.0456 17.2369C28.6797 17.2369 28.3827 17.5349 28.3827 17.9022C28.3827 18.2703 28.6797 18.5681 29.0456 18.5681C29.4117 18.5681 29.7083 18.2703 29.7083 17.9022C29.7083 17.5349 29.4117 17.2369 29.0456 17.2369ZM56.0153 16.7483C56.4499 16.7483 56.7678 16.9927 56.9761 17.2369V16.0571C56.6347 15.8245 56.2234 15.7314 55.8657 15.7314C54.7671 15.7314 53.8124 16.5217 53.8124 17.8812C53.8124 19.183 54.68 20.0316 55.8828 20.0316C56.2298 20.0316 56.6115 19.9788 56.9761 19.7293V18.5722C56.7678 18.7877 56.4386 19.0146 56.0153 19.0146C55.368 19.0146 54.9802 18.5325 54.9802 17.9162C54.9802 17.2479 55.391 16.7483 56.0153 16.7483ZM53.9366 15.8479H52.6063L51.3855 17.5559V15.8479H50.2521L50.2525 19.9152H51.3855V18.1659L52.5593 19.9152H53.9773L52.3979 17.8174L53.9366 15.8479ZM46.9045 18.2884V15.8479H45.8114V19.9152H46.9219L48.4895 17.4746V19.9152H49.5827V15.8479H48.4719L46.9045 18.2884ZM43.6195 17.6779H43.2962V16.7428H43.6195C44.1055 16.7428 44.1746 17.0039 44.1746 17.2074C44.1746 17.3817 44.1227 17.6779 43.6195 17.6779ZM43.868 15.8479H42.162V19.9152H43.2962V18.5722H43.868C45.0136 18.5722 45.3433 17.7714 45.3433 17.2074C45.3433 16.6494 45.0193 15.8479 43.868 15.8479ZM38.7845 16.8237H39.6746V19.9152H40.8087V16.8237H41.6992V15.8479H38.7845V16.8237ZM35.6432 18.2884V15.8479H34.5503V19.9152H35.6611L37.2279 17.4746V19.9152H38.3214V15.8479H37.2111L35.6432 18.2884ZM32.2656 19.1012H31.7799V18.2474H32.2656C32.6243 18.2474 32.8327 18.3522 32.8327 18.672C32.8327 18.9971 32.6187 19.1012 32.2656 19.1012ZM32.3758 17.4339H31.7799V16.8237H33.6365V15.8479H30.6463L30.6462 19.9152L32.3758 19.9152C32.6703 19.9152 33.9662 19.9265 33.9662 18.6544C33.9662 17.4281 32.6822 17.4339 32.3758 17.4339ZM24.3013 17.8812C24.3013 19.183 25.1689 20.0316 26.3718 20.0316C26.7192 20.0316 27.1009 19.9788 27.4654 19.7293V18.5722C27.2565 18.7877 26.9269 19.0146 26.5049 19.0146C25.8569 19.0146 25.4696 18.5325 25.4696 17.9162C25.4696 17.2479 25.8801 16.7483 26.5049 16.7483C26.9385 16.7483 27.2565 16.9927 27.4654 17.2369V16.0571C27.1233 15.8245 26.7131 15.7314 26.3544 15.7314C25.2554 15.7314 24.3013 16.5217 24.3013 17.8812ZM21.9277 16.7832H22.547V19.9152H23.594V15.8479H21.9277V16.7832Z" fill="#727272"/>
<path fill-rule="evenodd" clip-rule="evenodd" d="M15.4514 13C15.1198 13 14.7973 13.0375 14.4865 13.1068V17.475C14.4865 18.0103 14.921 18.4469 15.454 18.4469C15.9867 18.4469 16.421 18.0103 16.421 17.4753C16.421 16.9611 16.0211 16.539 15.5183 16.5054V15.7275C16.4474 15.7614 17.195 16.5335 17.195 17.4753C17.195 18.4384 16.4129 19.2245 15.454 19.2245C14.4947 19.2245 13.7127 18.4384 13.7127 17.475V13.354C13.6027 13.4008 13.4954 13.4528 13.3901 13.5087V17.475C13.3903 18.6167 14.3175 19.5477 15.454 19.5477C16.5906 19.5477 17.5174 18.6167 17.5174 17.4753C17.5174 16.3551 16.6255 15.4378 15.5183 15.4033V14.6256C17.0515 14.6604 18.291 15.9271 18.291 17.4753C18.291 19.0453 17.0165 20.3253 15.454 20.3253C13.891 20.3253 12.6162 19.0453 12.6162 17.475V14.0245C11.6293 14.8443 11 16.084 11 17.4717C11 19.9413 12.993 21.9439 15.4516 21.9439C17.9106 21.9439 19.903 19.9413 19.903 17.4717C19.903 15.002 17.9106 13 15.4514 13Z" fill="#727272"/>
<line opacity="0.05" x1="11" y1="31.5" x2="59" y2="31.5" stroke="black"/>
<defs>
<linearGradient id="paint0_linear" x1="34.2501" y1="0" x2="34.2501" y2="73.5004" gradientUnits="userSpaceOnUse">
<stop stop-color="#DA4F4F"/>
<stop offset="1" stop-color="#DA4F4F"/>
</linearGradient>
</defs>
</svg>
