<svg width="26" height="26" viewBox="0 0 26 26" fill="none" xmlns="http://www.w3.org/2000/svg">
<path fill-rule="evenodd" clip-rule="evenodd" d="M0.544528 11.6845C0.717009 11.5115 0.921909 11.3743 1.14749 11.2807C1.37308 11.1871 1.61491 11.1389 1.85914 11.1389C2.10338 11.1389 2.34521 11.1871 2.5708 11.2807C2.79638 11.3743 3.00128 11.5115 3.17376 11.6845L13 21.5144L22.8262 11.6845C23.1748 11.3358 23.6477 11.1399 24.1408 11.1399C24.6338 11.1399 25.1067 11.3358 25.4554 11.6845C25.804 12.0331 25.9999 12.506 25.9999 12.9991C25.9999 13.4921 25.804 13.965 25.4554 14.3137L14.3146 25.4545C14.1421 25.6274 13.9372 25.7646 13.7116 25.8582C13.486 25.9518 13.2442 26 13 26C12.7557 26 12.5139 25.9518 12.2883 25.8582C12.0627 25.7646 11.8578 25.6274 11.6853 25.4545L0.544528 14.3137C0.37161 14.1412 0.234419 13.9363 0.140812 13.7107C0.0472051 13.4851 -0.000976562 13.2433 -0.000976562 12.9991C-0.000976562 12.7548 0.0472051 12.513 0.140812 12.2874C0.234419 12.0618 0.37161 11.8569 0.544528 11.6845Z" fill="white"/>
<path fill-rule="evenodd" clip-rule="evenodd" d="M13.0004 0.00146484C13.4928 0.00146484 13.9651 0.197092 14.3133 0.54531C14.6615 0.893528 14.8572 1.36581 14.8572 1.85827V20.4263C14.8572 20.9187 14.6615 21.391 14.3133 21.7392C13.9651 22.0875 13.4928 22.2831 13.0004 22.2831C12.5079 22.2831 12.0356 22.0875 11.6874 21.7392C11.3392 21.391 11.1436 20.9187 11.1436 20.4263V1.85827C11.1436 1.36581 11.3392 0.893528 11.6874 0.54531C12.0356 0.197092 12.5079 0.00146484 13.0004 0.00146484Z" fill="white"/>
</svg>
