<svg width="26" height="26" viewBox="0 0 26 26" fill="none" xmlns="http://www.w3.org/2000/svg">
<path fill-rule="evenodd" clip-rule="evenodd" d="M0.545504 11.6844C0.717985 11.5115 0.922885 11.3743 1.14847 11.2807C1.37405 11.1871 1.61589 11.1389 1.86012 11.1389C2.10435 11.1389 2.34619 11.1871 2.57177 11.2807C2.79736 11.3743 3.00226 11.5115 3.17474 11.6844L13.0009 21.5143L22.8271 11.6844C23.1758 11.3358 23.6487 11.1399 24.1417 11.1399C24.6348 11.1399 25.1077 11.3358 25.4564 11.6844C25.805 12.0331 26.0009 12.506 26.0009 12.999C26.0009 13.4921 25.805 13.965 25.4564 14.3137L14.3155 25.4545C14.1431 25.6274 13.9382 25.7646 13.7126 25.8582C13.487 25.9518 13.2452 26 13.0009 26C12.7567 26 12.5149 25.9518 12.2893 25.8582C12.0637 25.7646 11.8588 25.6274 11.6863 25.4545L0.545504 14.3137C0.372587 14.1412 0.235395 13.9363 0.141788 13.7107C0.0481817 13.4851 0 13.2433 0 12.999C0 12.7548 0.0481817 12.513 0.141788 12.2874C0.235395 12.0618 0.372587 11.8569 0.545504 11.6844Z" fill="#222222"/>
<path fill-rule="evenodd" clip-rule="evenodd" d="M13.0013 0C13.4938 0 13.9661 0.195627 14.3143 0.543845C14.6625 0.892063 14.8581 1.36435 14.8581 1.8568V20.4248C14.8581 20.9173 14.6625 21.3896 14.3143 21.7378C13.9661 22.086 13.4938 22.2816 13.0013 22.2816C12.5089 22.2816 12.0366 22.086 11.6884 21.7378C11.3402 21.3896 11.1445 20.9173 11.1445 20.4248V1.8568C11.1445 1.36435 11.3402 0.892063 11.6884 0.543845C12.0366 0.195627 12.5089 0 13.0013 0Z" fill="#222222"/>
</svg>
