<svg width="69" height="74" viewBox="0 0 69 74" fill="none" xmlns="http://www.w3.org/2000/svg">
<path d="M34.3053 71.0004H33.6928L2.50025 52.2849C2.49995 49.9622 2.49999 29.7537 2.50002 13.0918C2.50003 9.29202 2.50003 5.6767 2.50003 2.50001C2.56757 2.50001 2.63724 2.50001 2.70901 2.50002C10.8101 2.50009 45.752 2.5004 66 2.50041L66.0003 51.9562C65.9798 51.974 65.9595 51.9921 65.9392 52.0106C65.8854 52.0599 65.8345 52.1099 65.7862 52.1604C65.6367 52.2595 65.4133 52.4026 65.1124 52.5909C64.4849 52.9838 63.584 53.5342 62.4656 54.21C60.2319 55.5597 57.1711 57.385 53.7854 59.3982C52.1593 60.3651 50.4584 61.3752 48.7396 62.396C43.5758 65.4628 38.2504 68.6255 34.3053 71.0004Z" fill="white" stroke="url(#paint0_linear)" stroke-width="5"/>
<path d="M18.2127 35.9633C17.9841 35.9817 17.7554 36 17.5268 36C13.3728 36 10 32.735 10 28.7362C10 24.7375 13.3728 21.4908 17.5268 21.4908C17.8317 21.4908 18.1556 21.5092 18.4605 21.5459C17.8317 19.1246 18.3462 16.5566 19.8706 14.5206C22.7479 10.6869 28.293 9.80645 32.2946 12.5579C33.3617 9.25617 36.5439 7 40.1453 7C44.6995 7 48.3771 10.5402 48.3771 14.9058C48.3771 15.3643 48.339 15.8046 48.2628 16.2448C53.7126 16.5199 58 20.8672 58 26.1132C58 31.5794 53.3886 36 47.7102 36H47.7101C47.4814 36 47.2528 36 47.0242 35.9817V36H18.2128V35.9633L18.2127 35.9633Z" fill="url(#paint1_linear)"/>
<path d="M45.5742 30.8056H49.6357V29.9142H46.9588C47.328 28.4514 49.5895 28.1314 49.5895 26.5085C49.5895 25.64 48.9895 25 47.7203 25C46.9357 25 46.2434 25.2286 45.7819 25.4571L46.0588 26.28C46.4742 26.0743 46.9588 25.8914 47.5588 25.8914C48.0203 25.8914 48.4588 26.0971 48.4588 26.6228C48.4588 27.8114 45.805 27.9028 45.5742 30.8056ZM49.7511 29.3885H52.3587V30.8056H53.3971V29.3885H54.274V28.5199H53.3971V25H52.6356L49.7511 28.7028V29.3885ZM50.928 28.5656L52.4049 26.6C52.4049 26.76 52.3587 27.2628 52.3587 27.7199V28.5428H51.6664C51.4587 28.5428 51.0664 28.5656 50.928 28.5656Z" fill="#005893"/>
<path d="M16.0846 29.9376V28.1319H16.523C16.9153 28.1319 17.2384 28.1777 17.4692 28.3148C17.6999 28.4519 17.8384 28.6805 17.8384 29.0462C17.8384 29.6633 17.4692 29.9376 16.5923 29.9376H16.0846ZM15.0231 30.8062H16.5692C18.2999 30.8062 18.923 30.0519 18.923 29.0005C18.923 28.2919 18.623 27.812 18.0922 27.5377C17.6769 27.3091 17.1461 27.2405 16.5 27.2405H16.0846V25.8691H18.4153L18.6922 25.0234H15V30.8062H15.0231ZM19.6384 30.8062H20.6537L21.9691 28.9319C22.2229 28.5891 22.4075 28.2462 22.5229 28.0634H22.546C22.5229 28.3148 22.4999 28.6348 22.4999 28.9548V30.7833H23.5383V26.6691H22.5229L21.2076 28.5434C20.9768 28.8862 20.7691 29.2291 20.6537 29.4119H20.6307C20.6537 29.1605 20.6768 28.8405 20.6768 28.5205V26.692H19.6384V30.8062ZM25.3152 30.8062H26.3767V27.5377H27.6228L27.8997 26.6691H24.046V27.5377H25.3152V30.8062ZM28.269 32.8861H29.3074V30.8062C29.5151 30.8748 29.7228 30.8976 29.9535 30.8976C31.2689 30.8976 32.1227 30.0062 32.1227 28.7262C32.1227 27.4005 31.3381 26.5548 29.8382 26.5548C29.2613 26.5548 28.7074 26.6691 28.2459 26.8063V32.8861H28.269ZM29.3074 29.9148V27.492C29.4689 27.4462 29.6074 27.4234 29.792 27.4234C30.5535 27.4234 31.0381 27.8348 31.0381 28.7262C31.0381 29.5262 30.6458 30.0291 29.8612 30.0291C29.6536 30.0291 29.492 29.9833 29.3074 29.9148ZM32.7458 30.8062H33.7612L35.0765 28.9319C35.3304 28.5891 35.515 28.2462 35.6304 28.0634H35.6534C35.6304 28.3148 35.6073 28.6348 35.6073 28.9548V30.7833H36.6457V26.6691H35.6304L34.315 28.5434C34.0842 28.8862 33.8765 29.2291 33.7612 29.4119H33.7381C33.7612 29.1605 33.7842 28.8405 33.7842 28.5205V26.692H32.7458V30.8062ZM37.4765 30.8062H38.538V29.0919H39.1611C39.2764 29.0919 39.3918 29.2062 39.5303 29.4805L40.061 30.8062H41.1918L40.4303 29.2291C40.2918 28.9548 40.1533 28.7948 39.9457 28.7262V28.7034C40.2918 28.4977 40.338 27.9034 40.5456 27.6062C40.6149 27.5148 40.7072 27.4691 40.8456 27.4691C40.9149 27.4691 41.0072 27.4691 41.0764 27.5148V26.6234C40.961 26.5777 40.7533 26.5548 40.638 26.5548C40.2687 26.5548 40.038 26.692 39.8764 26.9205C39.5303 27.4234 39.5303 28.2919 39.0226 28.2919H38.538V26.6691H37.4765V30.8062ZM43.5456 30.8976C44.1225 30.8976 44.6533 30.7148 44.9763 30.4862L44.6763 29.7776C44.3763 29.9376 44.0994 30.0519 43.7071 30.0519C42.9918 30.0519 42.5302 29.5948 42.5302 28.7491C42.5302 27.9948 42.9918 27.4005 43.7764 27.4005C44.1917 27.4005 44.4917 27.5148 44.7917 27.7205V26.8291C44.561 26.692 44.1917 26.5548 43.661 26.5548C42.4148 26.5548 41.4456 27.4691 41.4456 28.7719C41.4456 29.9605 42.1841 30.8976 43.5456 30.8976Z" fill="white"/>
<circle cx="57.5" cy="18.5" r="1.5" fill="#005893"/>
<path d="M58.4917 18.5176H57.6477V17.6816H57.4238V18.7394H58.4917V18.5176Z" fill="white"/>
<path d="M12.3807 42.4731C12.358 42.7592 12.2417 42.9845 12.0318 43.1489C11.8232 43.3132 11.5477 43.3954 11.2054 43.3954C10.831 43.3954 10.5362 43.281 10.3209 43.0521C10.107 42.8219 10 42.5065 10 42.1059V41.9434C10 41.6877 10.0495 41.4624 10.1484 41.2676C10.2474 41.0728 10.3884 40.9236 10.5716 40.8201C10.7561 40.7154 10.9701 40.663 11.2134 40.663C11.5504 40.663 11.8218 40.7452 12.0277 40.9096C12.2337 41.074 12.3527 41.3047 12.3848 41.6018H11.7831C11.7683 41.4301 11.7155 41.3059 11.6246 41.2292C11.535 41.1513 11.398 41.1123 11.2134 41.1123C11.0129 41.1123 10.8624 41.1781 10.7622 41.3096C10.6632 41.4399 10.6124 41.6426 10.6097 41.9178V42.1187C10.6097 42.4061 10.6572 42.6161 10.7521 42.7489C10.8484 42.8816 10.9995 42.9479 11.2054 42.9479C11.3913 42.9479 11.5297 42.9096 11.6206 42.8329C11.7129 42.7549 11.7657 42.635 11.779 42.4731H12.3807Z" fill="#50BFF4"/>
<path d="M14.5328 42.2064H13.3776V42.9187H14.7334V43.3589H12.7759V40.6995H14.7294V41.1434H13.3776V41.7772H14.5328V42.2064Z" fill="#50BFF4"/>
<path d="M15.6881 42.4219V43.3589H15.0864V40.6995H16.2256C16.4449 40.6995 16.6375 40.7361 16.8033 40.8091C16.9704 40.8822 17.0988 40.9863 17.1884 41.1215C17.278 41.2554 17.3227 41.4082 17.3227 41.5799C17.3227 41.8405 17.2245 42.0463 17.0279 42.1973C16.8327 42.347 16.5619 42.4219 16.2156 42.4219H15.6881ZM15.6881 41.9781H16.2256C16.3848 41.9781 16.5058 41.944 16.5887 41.8758C16.6729 41.8076 16.715 41.7102 16.715 41.5836C16.715 41.4533 16.6729 41.3479 16.5887 41.2676C16.5044 41.1872 16.3881 41.1458 16.2397 41.1434H15.6881V41.9781Z" fill="#50BFF4"/>
<path d="M19.9362 41.1434H19.0416V43.3589H18.4399V41.1434H17.5574V40.6995H19.9362V41.1434Z" fill="#50BFF4"/>
<path d="M22.0321 40.6995H22.6358V43.3589H22.0321V41.5927L20.8628 43.3589H20.2611V40.6995H20.8628V42.4694L22.0321 40.6995Z" fill="#50BFF4"/>
<path d="M24.8721 40.937H24.9082C25.1369 40.937 25.3435 40.9833 25.528 41.0758C25.7139 41.1671 25.8583 41.2974 25.9612 41.4667C26.0642 41.6359 26.1157 41.8283 26.1157 42.0438C26.1157 42.3629 26.0033 42.6234 25.7787 42.8256C25.5554 43.0277 25.2532 43.1288 24.8721 43.1288V43.4685H24.2925V43.1288H24.2544C24.0231 43.1288 23.8145 43.0837 23.6286 42.9936C23.4428 42.9023 23.2983 42.7744 23.1954 42.61C23.0938 42.4457 23.043 42.2581 23.043 42.0475C23.043 41.8344 23.0938 41.6438 23.1954 41.4758C23.297 41.3078 23.4394 41.1769 23.6226 41.0831C23.8058 40.9881 24.0104 40.9394 24.2363 40.937H24.2925V40.59H24.8721V40.937ZM24.2544 41.3918C24.0552 41.3918 23.898 41.449 23.7831 41.5635C23.6694 41.6779 23.6126 41.8393 23.6126 42.0475C23.6126 42.2423 23.6694 42.3957 23.7831 42.5078C23.8967 42.6186 24.0565 42.674 24.2624 42.674H24.2925V41.3918H24.2544ZM24.8721 41.3918V42.674H24.9123C25.1088 42.674 25.2632 42.618 25.3756 42.5059C25.4892 42.3927 25.546 42.2387 25.546 42.0438C25.546 41.8405 25.4906 41.681 25.3796 41.5653C25.2686 41.4496 25.1095 41.3918 24.9022 41.3918H24.8721Z" fill="#50BFF4"/>
<path d="M28.2617 40.6995H28.8655V43.3589H28.2617V41.5927L27.0924 43.3589H26.4907V40.6995H27.0924V42.4694L28.2617 40.6995Z" fill="#50BFF4"/>
<path d="M29.3609 40.6995H29.9626V42.9187H31.1319V40.6995H31.7356V42.9187H32.1347L32.0946 44H31.533V43.3589H29.3609V40.6995Z" fill="#50BFF4"/>
<path d="M34.2547 40.6995H34.8584V43.3589H34.2547V41.5927L33.0854 43.3589H32.4837V40.6995H33.0854V42.4694L34.2547 40.6995Z" fill="#50BFF4"/>
<path d="M35.9816 42.4219V43.3589H35.3799V40.6995H36.5191C36.7384 40.6995 36.931 40.7361 37.0968 40.8091C37.2639 40.8822 37.3923 40.9863 37.4819 41.1215C37.5715 41.2554 37.6162 41.4082 37.6162 41.5799C37.6162 41.8405 37.518 42.0463 37.3214 42.1973C37.1262 42.347 36.8554 42.4219 36.5091 42.4219H35.9816ZM35.9816 41.9781H36.5191C36.6783 41.9781 36.7993 41.944 36.8822 41.8758C36.9664 41.8076 37.0085 41.7102 37.0085 41.5836C37.0085 41.4533 36.9664 41.3479 36.8822 41.2676C36.7979 41.1872 36.6816 41.1458 36.5332 41.1434H35.9816V41.9781Z" fill="#50BFF4"/>
<path d="M40.4302 42.0895C40.4302 42.3513 40.3794 42.5808 40.2778 42.7781C40.1762 42.9753 40.0304 43.1275 39.8405 43.2347C39.652 43.3419 39.4354 43.3954 39.1907 43.3954C38.9487 43.3954 38.7327 43.3425 38.5429 43.2365C38.353 43.1306 38.2059 42.9796 38.1016 42.7836C37.9973 42.5863 37.9445 42.3598 37.9432 42.1041V41.9726C37.9432 41.7108 37.9947 41.4807 38.0976 41.2822C38.2019 41.0825 38.3483 40.9297 38.5369 40.8237C38.7267 40.7166 38.9433 40.663 39.1867 40.663C39.4301 40.663 39.646 40.7166 39.8345 40.8237C40.0244 40.9297 40.1708 41.0825 40.2738 41.2822C40.3781 41.4807 40.4302 41.7102 40.4302 41.9708V42.0895ZM39.8205 41.9689C39.8205 41.6901 39.7657 41.4782 39.656 41.3333C39.5464 41.1884 39.3899 41.116 39.1867 41.116C38.9848 41.116 38.829 41.1878 38.7194 41.3315C38.6097 41.474 38.5542 41.6834 38.5529 41.9598V42.0895C38.5529 42.361 38.6077 42.5717 38.7174 42.7215C38.827 42.8712 38.9848 42.9461 39.1907 42.9461C39.3926 42.9461 39.5477 42.8743 39.656 42.7306C39.7643 42.5857 39.8192 42.375 39.8205 42.0986V41.9689Z" fill="#50BFF4"/>
<path d="M40.8675 43.3589V40.6995H41.8904C42.2447 40.6995 42.5135 40.7616 42.6966 40.8858C42.8798 41.0088 42.9714 41.1896 42.9714 41.4283C42.9714 41.5586 42.9347 41.6737 42.8611 41.7735C42.7876 41.8721 42.6853 41.9446 42.5542 41.9909C42.704 42.025 42.8217 42.0938 42.9072 42.1973C42.9942 42.3008 43.0376 42.4274 43.0376 42.5772C43.0376 42.8329 42.948 43.0265 42.7688 43.158C42.5897 43.2895 42.3343 43.3565 42.0027 43.3589H40.8675ZM41.4692 42.2009V42.9187H41.9846C42.1264 42.9187 42.2367 42.8883 42.3156 42.8274C42.3958 42.7653 42.4359 42.6801 42.4359 42.5717C42.4359 42.3282 42.2975 42.2046 42.0207 42.2009H41.4692ZM41.4692 41.8137H41.9144C42.218 41.8088 42.3697 41.6986 42.3697 41.4831C42.3697 41.3626 42.3309 41.2761 42.2534 41.2237C42.1772 41.1702 42.0562 41.1434 41.8904 41.1434H41.4692V41.8137Z" fill="#50BFF4"/>
<path d="M45.1396 42.811H44.0846L43.884 43.3589H43.2442L44.3313 40.6995H44.8889L45.9819 43.3589H45.3421L45.1396 42.811ZM44.247 42.3671H44.9771L44.6101 41.3717L44.247 42.3671Z" fill="#50BFF4"/>
<path d="M48.6315 43.3589H48.0298V42.2192H46.8564V43.3589H46.2547V40.6995H46.8564V41.7772H48.0298V40.6995H48.6315V43.3589Z" fill="#50BFF4"/>
<path d="M51.5357 43.3589H50.934V42.2192H49.7607V43.3589H49.159V40.6995H49.7607V41.7772H50.934V40.6995H51.5357V43.3589Z" fill="#50BFF4"/>
<path d="M52.6749 41.6584H53.1442C53.4879 41.6584 53.76 41.7346 53.9606 41.8868C54.1625 42.0377 54.2634 42.2417 54.2634 42.4986C54.2634 42.7568 54.1631 42.9644 53.9626 43.1215C53.7633 43.2773 53.4979 43.3565 53.1663 43.3589H52.0692V40.6995H52.6749V41.6584ZM55.1158 43.3589H54.5141V40.6995H55.1158V43.3589ZM52.6749 42.1005V42.9187H53.1543C53.308 42.9187 53.4304 42.8804 53.5213 42.8037C53.6136 42.7269 53.6597 42.624 53.6597 42.495C53.6597 42.3744 53.6156 42.2795 53.5273 42.21C53.4404 42.1394 53.3207 42.1029 53.1683 42.1005H52.6749Z" fill="#50BFF4"/>
<path d="M57.3963 40.6995H58V43.3589H57.3963V41.5927L56.227 43.3589H55.6253V40.6995H56.227V42.4694L57.3963 40.6995ZM57.5126 40C57.5126 40.1619 57.4484 40.2928 57.3201 40.3927C57.193 40.4925 57.0259 40.5425 56.8187 40.5425C56.6114 40.5425 56.4436 40.4932 56.3152 40.3945C56.1882 40.2959 56.1247 40.1644 56.1247 40H56.5359C56.5359 40.0767 56.5606 40.1364 56.6101 40.179C56.6609 40.2204 56.7304 40.2411 56.8187 40.2411C56.9056 40.2411 56.9738 40.2204 57.0232 40.179C57.0727 40.1364 57.0974 40.0767 57.0974 40H57.5126Z" fill="#50BFF4"/>
<path d="M22.1494 51H21.0945V46.8345H19.0514V51H18V46H22.1494V51Z" fill="#50BFF4"/>
<path d="M25.9553 49.9698H24.1119L23.7615 51H22.6435L24.543 46H25.5172L27.4272 51H26.3093L25.9553 49.9698ZM24.3958 49.1353H25.6714L25.0301 47.2637L24.3958 49.1353Z" fill="#50BFF4"/>
<path d="M28.9552 49.2383V51H27.9038V46H29.8944C30.2776 46 30.614 46.0687 30.9037 46.206C31.1958 46.3434 31.4201 46.5391 31.5766 46.7933C31.7331 47.0451 31.8114 47.3324 31.8114 47.6552C31.8114 48.1451 31.6397 48.5321 31.2962 48.8159C30.9551 49.0975 30.482 49.2383 29.8769 49.2383H28.9552ZM28.9552 48.4038H29.8944C30.1725 48.4038 30.3839 48.3397 30.5287 48.2115C30.6759 48.0833 30.7495 47.9002 30.7495 47.6621C30.7495 47.4171 30.6759 47.2191 30.5287 47.068C30.3816 46.9169 30.1783 46.8391 29.919 46.8345H28.9552V48.4038Z" fill="#50BFF4"/>
<path d="M36.3778 46.8345H34.8148V51H33.7634V46.8345H32.2214V46H36.3778V46.8345Z" fill="#50BFF4"/>
<path d="M41.1335 51H40.0821V48.8571H38.032V51H36.9806V46H38.032V48.0261H40.0821V46H41.1335V51Z" fill="#50BFF4"/>
<path d="M45.1252 48.8331H43.1066V50.1724H45.4756V51H42.0552V46H45.4686V46.8345H43.1066V48.0261H45.1252V48.8331Z" fill="#50BFF4"/>
<path d="M47.1438 49.2383V51H46.0924V46H48.083C48.4662 46 48.8026 46.0687 49.0923 46.206C49.3844 46.3434 49.6087 46.5391 49.7652 46.7933C49.9217 47.0451 50 47.3324 50 47.6552C50 48.1451 49.8283 48.5321 49.4848 48.8159C49.1437 49.0975 48.6706 49.2383 48.0655 49.2383H47.1438ZM47.1438 48.4038H48.083C48.361 48.4038 48.5725 48.3397 48.7173 48.2115C48.8645 48.0833 48.9381 47.9002 48.9381 47.6621C48.9381 47.4171 48.8645 47.2191 48.7173 47.068C48.5701 46.9169 48.3669 46.8391 48.1075 46.8345H47.1438V48.4038Z" fill="#50BFF4"/>
<defs>
<linearGradient id="paint0_linear" x1="34.2501" y1="0" x2="34.2501" y2="73.5004" gradientUnits="userSpaceOnUse">
<stop stop-color="#50BFF4"/>
<stop offset="1" stop-color="#50BFF4"/>
</linearGradient>
<linearGradient id="paint1_linear" x1="34" y1="7" x2="34" y2="36" gradientUnits="userSpaceOnUse">
<stop stop-color="#BFE8FE"/>
<stop offset="1" stop-color="#50BFF4"/>
</linearGradient>
</defs>
</svg>
