<svg width="240" height="57" viewBox="0 0 240 57" fill="none" xmlns="http://www.w3.org/2000/svg">
<path fill-rule="evenodd" clip-rule="evenodd" d="M58.2207 56.7053H60.8279V44.7261H58.2207V56.7053ZM68.0805 56.7053H70.6876V47.1538H74.2902V44.7261H64.4621V47.1538H68.0647L68.0805 56.7053ZM89.9489 56.9129C92.2401 56.9129 93.5831 56.1942 94.8156 54.8685L93.1565 53.0636C92.2243 53.9261 91.4026 54.4692 90.0437 54.4692C88.0054 54.4692 86.5991 52.7601 86.5991 50.6997C86.5991 48.6073 88.037 46.9302 90.0437 46.9302C91.4026 46.9302 92.1769 47.4254 93.0933 48.2719L94.6576 46.4511C93.5515 45.349 92.3033 44.5024 90.0753 44.5024C86.4411 44.5024 83.8972 47.2976 83.8972 50.6997C83.8814 54.1976 86.4569 56.9129 89.9489 56.9129ZM103.822 56.9129C107.472 56.9129 110.142 54.1178 110.142 50.7157C110.142 47.2816 107.52 44.5184 103.87 44.5184C100.22 44.5184 97.5492 47.3136 97.5492 50.7157C97.5492 54.1657 100.172 56.9129 103.822 56.9129ZM103.854 54.4851C101.752 54.4851 100.267 52.7761 100.267 50.7157C100.267 48.6233 101.721 46.9462 103.822 46.9462C105.924 46.9462 107.409 48.6552 107.409 50.7157C107.409 52.808 105.955 54.4851 103.854 54.4851ZM113.966 56.7053H116.526V48.9427L119.828 54.006H119.892L123.226 48.8948V56.7213H125.817V44.742H123.004L119.892 49.8053L116.779 44.742H113.966V56.7053ZM130.178 56.7053H132.785V53.1115H134.76C137.415 53.1115 139.548 51.674 139.548 48.8948C139.548 46.4191 137.841 44.7261 135.013 44.7261H130.178V56.7053ZM132.785 50.7636V47.1059H134.808C136.103 47.1059 136.925 47.7448 136.925 48.9268C136.925 49.9809 136.167 50.7796 134.855 50.7796L132.785 50.7636ZM140.812 56.7053H143.467L144.557 54.0219H149.566L150.656 56.7053H153.374L148.302 44.6462H145.9L140.812 56.7053ZM145.473 51.69L147.053 47.8087L148.634 51.69H145.473ZM156.708 56.7053H159.283V49.0865L165.019 56.7053H167.231V44.7261H164.656V52.1053L159.109 44.7261H156.708V56.7053ZM174.942 56.7053H177.549V51.9296L182.1 44.7261H179.129L176.253 49.5337L173.425 44.7261H170.376L174.926 51.9775V56.7053H174.942Z" fill="white"/>
<path fill-rule="evenodd" clip-rule="evenodd" d="M10.8552 29.9971V11.6449L21.031 29.9971H26.7035L36.9109 11.6449V29.9971H47.9084V0.56012H33.2767L24.1912 17.0915L15.2637 0.56012H0V29.9971H10.8552ZM66.0794 17.8901L70.8513 7.76363L75.7495 17.8901H66.0794ZM93.7468 29.9971L78.5147 0.56012H63.567L49.1566 29.9971H60.4227L62.6506 25.2533H79.3047L81.5801 29.9971H93.7468ZM114.604 20.7811L122.741 29.9971H136.393L123.2 14.7595L135.809 0.56012H122.615L115.173 9.21711L107.778 0.56012H93.573L106.482 14.8873L93.1305 29.9971H106.514L114.604 20.7811ZM137.863 0.56012V29.9971H148.939V0.56012H137.863ZM182.643 29.6457C185.187 29.0387 187.162 28.288 188.552 27.4096C189.864 26.595 191.033 25.5568 191.981 24.3269C192.866 23.1609 193.45 22.0908 193.703 21.1644C193.956 20.2699 194.083 19.3436 194.098 18.4172V17.7783H182.595C182.516 18.0658 182.437 18.3373 182.358 18.5769C182.169 19.0081 181.916 19.4074 181.616 19.7588C181.189 20.3179 180.652 20.797 180.051 21.1484C179.419 21.5158 178.503 21.8512 177.27 22.1547C175.864 22.4741 174.442 22.6338 173.004 22.6019C171.155 22.6019 169.56 22.3783 168.216 21.9311C166.873 21.4838 165.862 20.8769 165.167 20.1102C164.535 19.4394 164.029 18.6408 163.682 17.7783C163.381 16.9797 163.223 16.1331 163.223 15.2866V14.8074C163.223 10.2234 166.478 7.92335 172.973 7.92335C178.471 7.92335 181.679 9.42475 182.564 12.4275H194.114V11.9164C194.114 11.2935 194.051 10.6706 193.94 10.0636C193.782 9.31294 193.529 8.59419 193.198 7.90738C192.803 7.09279 192.313 6.32612 191.728 5.63931C191.001 4.82473 190.164 4.10597 189.247 3.515C188.11 2.78027 186.893 2.17332 185.613 1.71013C183.954 1.13512 182.263 0.735815 180.525 0.480258C178.313 0.14484 176.085 -0.0148833 173.857 0.00108902H172.325C168.849 0.00108902 165.815 0.336508 163.223 1.00734C160.632 1.67818 158.625 2.50874 157.203 3.49902C155.829 4.44139 154.659 5.63931 153.774 7.06085C152.921 8.45044 152.352 9.71225 152.115 10.8782C151.863 12.1081 151.736 13.3539 151.736 14.5998V15.7498C151.736 16.9956 151.863 18.2415 152.131 19.4713C152.384 20.6533 152.969 21.947 153.853 23.3526C154.77 24.7741 155.955 26.004 157.33 26.9783C158.768 28.0005 160.774 28.8471 163.334 29.5339C165.894 30.2207 168.896 30.5561 172.325 30.5561H173.857C177.16 30.5561 180.099 30.2526 182.643 29.6457ZM209.931 0.544148C208.098 0.815677 206.312 1.27887 204.574 1.93374C203.215 2.44485 201.936 3.16361 200.766 4.02611C199.802 4.72889 198.933 5.57542 198.207 6.53376C197.59 7.3803 197.085 8.32266 196.721 9.29697C196.374 10.1754 196.121 11.0859 195.979 12.0282C195.852 12.8748 195.805 13.7373 195.805 14.5998V15.7817C195.805 16.6442 195.868 17.5067 195.979 18.3533C196.121 19.2956 196.374 20.222 196.721 21.1005C197.085 22.1068 197.59 23.0491 198.207 23.9116C198.933 24.8859 199.802 25.7484 200.766 26.4672C201.936 27.3457 203.215 28.0644 204.574 28.6075C206.312 29.2624 208.114 29.7415 209.931 30.0131C212.285 30.3804 214.655 30.5721 217.041 30.5401H218.795C221.181 30.5561 223.551 30.3804 225.906 30.0131C228.023 29.6617 229.808 29.1825 231.246 28.6075C232.605 28.0804 233.885 27.3617 235.038 26.4672C236.018 25.7484 236.871 24.8859 237.598 23.9116C238.214 23.0491 238.72 22.1068 239.084 21.1005C239.431 20.2061 239.684 19.2956 239.826 18.3533C239.953 17.5067 240 16.6442 240 15.7817V14.5998C240 13.7373 239.937 12.8748 239.826 12.0282C239.684 11.0859 239.431 10.1754 239.084 9.29697C238.704 8.30669 238.199 7.3803 237.582 6.53376C236.84 5.57542 235.987 4.72889 235.023 4.02611C233.853 3.14763 232.589 2.44485 231.23 1.93374C229.492 1.29485 227.691 0.831649 225.874 0.544148C223.535 0.176785 221.181 0.00108878 218.811 0.0170611H217.057C214.655 0.00108878 212.269 0.176785 209.931 0.544148ZM228.023 17.922C227.659 18.7845 227.122 19.5512 226.459 20.1901C225.732 20.9248 224.626 21.5158 223.156 21.947C221.687 22.3783 219.933 22.6019 217.895 22.6019C215.856 22.6019 214.102 22.3783 212.633 21.9311C211.163 21.4838 210.057 20.8769 209.33 20.1262C208.667 19.4713 208.13 18.6887 207.766 17.8262C207.45 17.0435 207.292 16.197 207.292 15.3505V14.8713C207.26 13.1144 207.987 11.4213 209.283 10.2393C210.01 9.52059 211.116 8.96155 212.57 8.5303C214.023 8.11502 215.809 7.89141 217.895 7.89141C219.933 7.89141 221.687 8.09905 223.14 8.5303C224.594 8.94558 225.7 9.52059 226.443 10.2393C227.122 10.8463 227.659 11.597 228.023 12.4275C228.339 13.1942 228.497 14.0248 228.497 14.8553V15.4144C228.497 16.2928 228.339 17.1234 228.023 17.922Z" fill="white"/>
</svg>
