<svg width="37" height="37" viewBox="0 0 37 37" fill="none" xmlns="http://www.w3.org/2000/svg">
<g clip-path="url(#clip0)">
<path d="M36.9642 10.8781C36.8776 8.91215 36.5596 7.56057 36.1042 6.38942C35.6344 5.14626 34.9116 4.03327 33.9646 3.10803C33.0394 2.16839 31.9191 1.43825 30.6903 0.975777C29.5124 0.520358 28.1678 0.20244 26.2019 0.11576C24.2213 0.0217404 23.5925 0 18.569 0C13.5456 0 12.9168 0.0217404 10.9435 0.10842C8.97758 0.195099 7.626 0.513299 6.45513 0.968436C5.21169 1.43825 4.09869 2.16105 3.17346 3.10803C2.23382 4.03327 1.50397 5.1536 1.04121 6.38236C0.585787 7.56057 0.267869 8.90481 0.18119 10.8708C0.0871701 12.8514 0.0654297 13.4802 0.0654297 18.5036C0.0654297 23.5271 0.0871701 24.1558 0.173849 26.1291C0.260529 28.0951 0.578729 29.4467 1.03415 30.6178C1.50397 31.861 2.23382 32.974 3.17346 33.8992C4.09869 34.8388 5.21903 35.569 6.44779 36.0315C7.626 36.4869 8.97024 36.8048 10.9365 36.8915C12.9095 36.9784 13.5385 36.9999 18.562 36.9999C23.5854 36.9999 24.2142 36.9784 26.1875 36.8915C28.1534 36.8048 29.505 36.4869 30.6759 36.0315C33.1625 35.0701 35.1284 33.1041 36.0898 30.6178C36.545 29.4396 36.8632 28.0951 36.9498 26.1291C37.0365 24.1558 37.0583 23.5271 37.0583 18.5036C37.0583 13.4802 37.0509 12.8514 36.9642 10.8781ZM33.6323 25.9846C33.5527 27.7916 33.2492 28.7673 32.9962 29.4179C32.3745 31.0298 31.0952 32.309 29.4833 32.9308C28.8328 33.1837 27.8499 33.4873 26.05 33.5666C24.0984 33.6536 23.5131 33.675 18.5764 33.675C13.6396 33.675 13.047 33.6536 11.1025 33.5666C9.2955 33.4873 8.31972 33.1837 7.6692 32.9308C6.86706 32.6343 6.13693 32.1645 5.54429 31.5501C4.92991 30.9501 4.46009 30.2273 4.16363 29.4252C3.91065 28.7747 3.60714 27.7916 3.5278 25.9919C3.44084 24.0404 3.41938 23.4548 3.41938 18.518C3.41938 13.5813 3.44084 12.9886 3.5278 11.0444C3.60714 9.23741 3.91065 8.26163 4.16363 7.61111C4.46009 6.8087 4.92991 6.07884 5.55163 5.48592C6.15133 4.87154 6.87412 4.40172 7.67654 4.10555C8.32706 3.85257 9.31018 3.54905 11.1098 3.46943C13.0614 3.38275 13.647 3.36101 18.5834 3.36101C23.5275 3.36101 24.1128 3.38275 26.0573 3.46943C27.8643 3.54905 28.8401 3.85257 29.4906 4.10555C30.2928 4.40172 31.0229 4.87154 31.6155 5.48592C32.2299 6.0859 32.6997 6.8087 32.9962 7.61111C33.2492 8.26163 33.5527 9.24447 33.6323 11.0444C33.719 12.996 33.7407 13.5813 33.7407 18.518C33.7407 23.4548 33.719 24.033 33.6323 25.9846Z" fill="white"/>
<path d="M18.5683 8.99902C13.3209 8.99902 9.06348 13.2562 9.06348 18.5038C9.06348 23.7514 13.3209 28.0086 18.5683 28.0086C23.8159 28.0086 28.073 23.7514 28.073 18.5038C28.073 13.2562 23.8159 8.99902 18.5683 8.99902ZM18.5683 24.6693C15.1641 24.6693 12.4027 21.9083 12.4027 18.5038C12.4027 15.0993 15.1641 12.3383 18.5683 12.3383C21.9728 12.3383 24.7338 15.0993 24.7338 18.5038C24.7338 21.9083 21.9728 24.6693 18.5683 24.6693Z" fill="white"/>
<path d="M30.6686 8.62323C30.6686 9.8486 29.6751 10.8422 28.4494 10.8422C27.224 10.8422 26.2305 9.8486 26.2305 8.62323C26.2305 7.39758 27.224 6.4043 28.4494 6.4043C29.6751 6.4043 30.6686 7.39758 30.6686 8.62323Z" fill="white"/>
</g>
<defs>
<clipPath id="clip0">
<rect width="37" height="37" fill="white"/>
</clipPath>
</defs>
</svg>
