<svg width="38" height="38" viewBox="0 0 38 38" fill="none" xmlns="http://www.w3.org/2000/svg">
<path d="M32.3536 5.51828C28.7838 1.96187 24.035 0.00202942 18.9809 0C13.938 0 9.18167 1.9581 5.58844 5.51364C1.98883 9.07527 0.00463867 13.8085 0 18.824V18.8298V18.8333C0.000579834 21.869 0.798141 24.9314 2.31209 27.7268L0.0518952 38L10.4434 35.6363C13.0753 36.9627 16.0118 37.662 18.9736 37.6631H18.9812C24.0231 37.6631 28.7795 35.7047 32.3733 32.1489C35.9761 28.5844 37.9612 23.8573 37.9635 18.8385C37.9649 13.8551 35.9729 9.12456 32.3536 5.51828ZM18.9809 34.6973H18.9742C16.3148 34.6961 13.6797 34.0284 11.3543 32.7658L10.8629 32.4991L3.95302 34.0708L5.45392 27.2496L5.16458 26.7506C3.72601 24.2698 2.96585 21.5313 2.96585 18.8301C2.97136 10.0871 10.1549 2.96585 18.9803 2.96585C23.2438 2.96759 27.2499 4.62041 30.2604 7.61931C33.3164 10.6646 34.9988 14.6486 34.9973 18.8376C34.9939 27.5827 27.8088 34.6973 18.9809 34.6973Z" fill="white"/>
<path d="M13.8161 10.5293H12.984C12.6944 10.5293 12.2242 10.6377 11.8264 11.0706C11.4283 11.5037 10.3066 12.5506 10.3066 14.6797C10.3066 16.8089 11.8626 18.8661 12.0795 19.1552C12.2966 19.444 15.083 23.9527 19.4961 25.6873C23.1639 27.1288 23.9104 26.8421 24.7062 26.7699C25.5024 26.698 27.2752 25.7233 27.637 24.7129C27.9988 23.7025 27.9988 22.8363 27.8904 22.6554C27.7817 22.475 27.4921 22.3669 27.058 22.1506C26.6238 21.9341 24.4958 20.8695 24.0977 20.7248C23.6996 20.5807 23.4103 20.5085 23.1207 20.942C22.8311 21.3745 21.9784 22.3753 21.725 22.6641C21.4719 22.9531 21.2185 22.9893 20.7842 22.7728C20.3499 22.5556 18.9659 22.0906 17.3073 20.6167C16.0163 19.4695 15.1204 18.0065 14.867 17.5734C14.6139 17.1406 14.8401 16.9063 15.0578 16.6903C15.2529 16.4967 15.5164 16.2317 15.7336 15.9792C15.9505 15.7263 16.0122 15.546 16.1572 15.2573C16.3018 14.9685 16.2294 14.7157 16.1209 14.4994C16.0122 14.2829 15.179 12.143 14.7928 11.2871H14.7931C14.4678 10.5664 14.1254 10.5421 13.8161 10.5293Z" fill="white"/>
</svg>
