<svg width="38" height="38" viewBox="0 0 38 38" fill="none" xmlns="http://www.w3.org/2000/svg">
<path d="M33.5469 0H4.45312C1.99767 0 0 1.99767 0 4.45312V33.5469C0 36.0023 1.99767 38 4.45312 38H33.5469C36.0023 38 38 36.0023 38 33.5469V4.45312C38 1.99767 36.0023 0 33.5469 0ZM35.0312 33.5469C35.0312 34.3654 34.3654 35.0312 33.5469 35.0312H25.0859V22.9336H29.6719L30.4297 18.332H25.0859V15.1406C25.0859 13.8808 26.0526 12.9141 27.3125 12.9141H30.3555V8.3125H27.3125C23.5331 8.3125 20.486 11.374 20.486 15.1535V18.332H16.0312V22.9336H20.486V35.0312H4.45312C3.63464 35.0312 2.96875 34.3654 2.96875 33.5469V4.45312C2.96875 3.63464 3.63464 2.96875 4.45312 2.96875H33.5469C34.3654 2.96875 35.0312 3.63464 35.0312 4.45312V33.5469Z" fill="white"/>
</svg>
