<svg width="69" height="74" viewBox="0 0 69 74" fill="none" xmlns="http://www.w3.org/2000/svg">
<path d="M34.3053 71.0004H33.6928L2.50025 52.2849C2.49995 49.9622 2.49999 29.7537 2.50002 13.0918C2.50003 9.29202 2.50003 5.6767 2.50003 2.50001C2.56757 2.50001 2.63724 2.50001 2.70901 2.50002C10.8101 2.50009 45.752 2.5004 66 2.50041L66.0003 51.9562C65.9798 51.974 65.9595 51.9921 65.9392 52.0106C65.8854 52.0599 65.8345 52.1099 65.7862 52.1604C65.6367 52.2595 65.4133 52.4026 65.1124 52.5909C64.4849 52.9838 63.584 53.5342 62.4656 54.21C60.2319 55.5597 57.1711 57.385 53.7854 59.3982C52.1593 60.3651 50.4584 61.3752 48.7396 62.396C43.5758 65.4628 38.2504 68.6255 34.3053 71.0004Z" fill="white" stroke="url(#paint0_linear)" stroke-width="5"/>
<path d="M32.3275 25.6314C32.4596 25.2717 32.6412 24.9404 32.9109 24.672C33.9897 23.5812 35.773 23.8553 36.505 25.226C37.0554 26.2654 37.6388 27.2819 38.2057 28.3099C39.1524 30.0174 40.1101 31.725 41.0457 33.4383C41.8328 34.8717 40.9797 36.6821 39.4166 36.9277C38.4589 37.0762 37.5618 36.6193 37.0664 35.7284C36.2353 34.2264 35.3987 32.7244 34.5676 31.2282C34.5511 31.1939 34.5291 31.1653 34.5071 31.1368C34.419 31.0625 34.3805 30.954 34.3254 30.857C33.9567 30.1831 33.5769 29.5149 33.2081 28.8467C32.9715 28.4127 32.7238 27.9844 32.4871 27.5503C32.2725 27.162 32.1734 26.7394 32.1844 26.2939C32.2009 26.0655 32.2284 25.837 32.3275 25.6314Z" fill="#3C8BD9"/>
<path d="M32.3289 25.6309C32.2794 25.8365 32.2354 26.042 32.2244 26.2591C32.2079 26.7388 32.3234 27.1842 32.5546 27.6011C33.16 28.6805 33.7655 29.7656 34.3654 30.8507C34.4204 30.9477 34.4645 31.0448 34.5195 31.1362C34.1893 31.7301 33.859 32.3184 33.5233 32.9123C33.061 33.7404 32.5986 34.5742 32.1308 35.4023C32.1088 35.4023 32.1033 35.3908 32.0978 35.3737C32.0923 35.328 32.1088 35.288 32.1198 35.2424C32.3454 34.3857 32.1583 33.6262 31.5914 32.9751C31.2447 32.5811 30.8044 32.3583 30.298 32.2841C29.6375 32.187 29.0541 32.364 28.5312 32.7924C28.4377 32.8666 28.3771 32.9751 28.267 33.0322C28.245 33.0322 28.234 33.0208 28.2285 33.0037C28.4927 32.5297 28.7514 32.0557 29.0156 31.5817C30.1054 29.6171 31.1951 27.6525 32.2904 25.6937C32.3014 25.6708 32.3179 25.6537 32.3289 25.6309Z" fill="#FABC04"/>
<path d="M28.2481 33.0209C28.3526 32.9239 28.4517 32.8211 28.5618 32.7297C29.8992 31.6332 31.9082 32.427 32.1999 34.1631C32.2714 34.58 32.2329 34.9798 32.1118 35.3796C32.1063 35.4138 32.1008 35.4424 32.0898 35.4766C32.0403 35.568 31.9962 35.6651 31.9412 35.7565C31.4514 36.596 30.7303 37.0129 29.7837 36.9501C28.6994 36.8701 27.8463 36.0249 27.6977 34.9056C27.6261 34.363 27.7307 33.8547 28.0004 33.3864C28.0554 33.2836 28.1215 33.1923 28.182 33.0895C28.2095 33.0666 28.1985 33.0209 28.2481 33.0209Z" fill="#34A852"/>
<path d="M26.8002 34.1102C26.7731 34.1383 26.7731 34.1875 26.7257 34.1946C26.7189 34.1453 26.746 34.1172 26.7731 34.082L26.8002 34.1102Z" fill="#FABC04"/>
<path d="M31.5308 37.1352C31.5036 37.086 31.5308 37.0508 31.5579 37.0156C31.5647 37.0227 31.5782 37.0367 31.585 37.0438L31.5308 37.1352Z" fill="#E1C025"/>
<path d="M12.3807 42.4731C12.358 42.7592 12.2417 42.9845 12.0318 43.1489C11.8232 43.3132 11.5477 43.3954 11.2054 43.3954C10.831 43.3954 10.5362 43.281 10.3209 43.0521C10.107 42.8219 10 42.5065 10 42.1059V41.9434C10 41.6877 10.0495 41.4624 10.1484 41.2676C10.2474 41.0728 10.3884 40.9236 10.5716 40.8201C10.7561 40.7154 10.9701 40.663 11.2134 40.663C11.5504 40.663 11.8218 40.7452 12.0277 40.9096C12.2337 41.074 12.3527 41.3047 12.3848 41.6018H11.7831C11.7683 41.4301 11.7155 41.3059 11.6246 41.2292C11.535 41.1513 11.398 41.1123 11.2134 41.1123C11.0129 41.1123 10.8624 41.1781 10.7622 41.3096C10.6632 41.4399 10.6124 41.6426 10.6097 41.9178V42.1187C10.6097 42.4061 10.6572 42.6161 10.7521 42.7489C10.8484 42.8816 10.9995 42.9479 11.2054 42.9479C11.3913 42.9479 11.5297 42.9096 11.6206 42.8329C11.7129 42.7549 11.7657 42.635 11.779 42.4731H12.3807Z" fill="#2F86E3"/>
<path d="M14.5328 42.2064H13.3776V42.9187H14.7334V43.3589H12.7759V40.6995H14.7294V41.1434H13.3776V41.7772H14.5328V42.2064Z" fill="#2F86E3"/>
<path d="M15.6881 42.4219V43.3589H15.0864V40.6995H16.2256C16.4449 40.6995 16.6375 40.7361 16.8033 40.8091C16.9704 40.8822 17.0988 40.9863 17.1884 41.1215C17.278 41.2554 17.3227 41.4082 17.3227 41.5799C17.3227 41.8405 17.2245 42.0463 17.0279 42.1973C16.8327 42.347 16.5619 42.4219 16.2156 42.4219H15.6881ZM15.6881 41.9781H16.2256C16.3848 41.9781 16.5058 41.944 16.5887 41.8758C16.6729 41.8076 16.715 41.7102 16.715 41.5836C16.715 41.4533 16.6729 41.3479 16.5887 41.2676C16.5044 41.1872 16.3881 41.1458 16.2397 41.1434H15.6881V41.9781Z" fill="#2F86E3"/>
<path d="M19.9362 41.1434H19.0416V43.3589H18.4399V41.1434H17.5574V40.6995H19.9362V41.1434Z" fill="#2F86E3"/>
<path d="M22.0321 40.6995H22.6358V43.3589H22.0321V41.5927L20.8628 43.3589H20.2611V40.6995H20.8628V42.4694L22.0321 40.6995Z" fill="#2F86E3"/>
<path d="M24.8721 40.937H24.9082C25.1369 40.937 25.3435 40.9833 25.528 41.0758C25.7139 41.1671 25.8583 41.2974 25.9612 41.4667C26.0642 41.6359 26.1157 41.8283 26.1157 42.0438C26.1157 42.3629 26.0033 42.6234 25.7787 42.8256C25.5554 43.0277 25.2532 43.1288 24.8721 43.1288V43.4685H24.2925V43.1288H24.2544C24.0231 43.1288 23.8145 43.0837 23.6286 42.9936C23.4428 42.9023 23.2983 42.7744 23.1954 42.61C23.0938 42.4457 23.043 42.2581 23.043 42.0475C23.043 41.8344 23.0938 41.6438 23.1954 41.4758C23.297 41.3078 23.4394 41.1769 23.6226 41.0831C23.8058 40.9881 24.0104 40.9394 24.2363 40.937H24.2925V40.59H24.8721V40.937ZM24.2544 41.3918C24.0552 41.3918 23.898 41.449 23.7831 41.5635C23.6694 41.6779 23.6126 41.8393 23.6126 42.0475C23.6126 42.2423 23.6694 42.3957 23.7831 42.5078C23.8967 42.6186 24.0565 42.674 24.2624 42.674H24.2925V41.3918H24.2544ZM24.8721 41.3918V42.674H24.9123C25.1088 42.674 25.2632 42.618 25.3756 42.5059C25.4892 42.3927 25.546 42.2387 25.546 42.0438C25.546 41.8405 25.4906 41.681 25.3796 41.5653C25.2686 41.4496 25.1095 41.3918 24.9022 41.3918H24.8721Z" fill="#2F86E3"/>
<path d="M28.2617 40.6995H28.8655V43.3589H28.2617V41.5927L27.0924 43.3589H26.4907V40.6995H27.0924V42.4694L28.2617 40.6995Z" fill="#2F86E3"/>
<path d="M29.3609 40.6995H29.9626V42.9187H31.1319V40.6995H31.7356V42.9187H32.1347L32.0946 44H31.533V43.3589H29.3609V40.6995Z" fill="#2F86E3"/>
<path d="M34.2547 40.6995H34.8584V43.3589H34.2547V41.5927L33.0854 43.3589H32.4837V40.6995H33.0854V42.4694L34.2547 40.6995Z" fill="#2F86E3"/>
<path d="M35.9816 42.4219V43.3589H35.3799V40.6995H36.5191C36.7384 40.6995 36.931 40.7361 37.0968 40.8091C37.2639 40.8822 37.3923 40.9863 37.4819 41.1215C37.5715 41.2554 37.6162 41.4082 37.6162 41.5799C37.6162 41.8405 37.518 42.0463 37.3214 42.1973C37.1262 42.347 36.8554 42.4219 36.5091 42.4219H35.9816ZM35.9816 41.9781H36.5191C36.6783 41.9781 36.7993 41.944 36.8822 41.8758C36.9664 41.8076 37.0085 41.7102 37.0085 41.5836C37.0085 41.4533 36.9664 41.3479 36.8822 41.2676C36.7979 41.1872 36.6816 41.1458 36.5332 41.1434H35.9816V41.9781Z" fill="#2F86E3"/>
<path d="M40.4302 42.0895C40.4302 42.3513 40.3794 42.5808 40.2778 42.7781C40.1762 42.9753 40.0304 43.1275 39.8405 43.2347C39.652 43.3419 39.4354 43.3954 39.1907 43.3954C38.9487 43.3954 38.7327 43.3425 38.5429 43.2365C38.353 43.1306 38.2059 42.9796 38.1016 42.7836C37.9973 42.5863 37.9445 42.3598 37.9432 42.1041V41.9726C37.9432 41.7108 37.9947 41.4807 38.0976 41.2822C38.2019 41.0825 38.3483 40.9297 38.5369 40.8237C38.7267 40.7166 38.9433 40.663 39.1867 40.663C39.4301 40.663 39.646 40.7166 39.8345 40.8237C40.0244 40.9297 40.1708 41.0825 40.2738 41.2822C40.3781 41.4807 40.4302 41.7102 40.4302 41.9708V42.0895ZM39.8205 41.9689C39.8205 41.6901 39.7657 41.4782 39.656 41.3333C39.5464 41.1884 39.3899 41.116 39.1867 41.116C38.9848 41.116 38.829 41.1878 38.7194 41.3315C38.6097 41.474 38.5542 41.6834 38.5529 41.9598V42.0895C38.5529 42.361 38.6077 42.5717 38.7174 42.7215C38.827 42.8712 38.9848 42.9461 39.1907 42.9461C39.3926 42.9461 39.5477 42.8743 39.656 42.7306C39.7643 42.5857 39.8192 42.375 39.8205 42.0986V41.9689Z" fill="#2F86E3"/>
<path d="M40.8675 43.3589V40.6995H41.8904C42.2447 40.6995 42.5135 40.7616 42.6966 40.8858C42.8798 41.0088 42.9714 41.1896 42.9714 41.4283C42.9714 41.5586 42.9347 41.6737 42.8611 41.7735C42.7876 41.8721 42.6853 41.9446 42.5542 41.9909C42.704 42.025 42.8217 42.0938 42.9072 42.1973C42.9942 42.3008 43.0376 42.4274 43.0376 42.5772C43.0376 42.8329 42.948 43.0265 42.7688 43.158C42.5897 43.2895 42.3343 43.3565 42.0027 43.3589H40.8675ZM41.4692 42.2009V42.9187H41.9846C42.1264 42.9187 42.2367 42.8883 42.3156 42.8274C42.3958 42.7653 42.4359 42.6801 42.4359 42.5717C42.4359 42.3282 42.2975 42.2046 42.0207 42.2009H41.4692ZM41.4692 41.8137H41.9144C42.218 41.8088 42.3697 41.6986 42.3697 41.4831C42.3697 41.3626 42.3309 41.2761 42.2534 41.2237C42.1772 41.1702 42.0562 41.1434 41.8904 41.1434H41.4692V41.8137Z" fill="#2F86E3"/>
<path d="M45.1396 42.811H44.0846L43.884 43.3589H43.2442L44.3313 40.6995H44.8889L45.9819 43.3589H45.3421L45.1396 42.811ZM44.247 42.3671H44.9771L44.6101 41.3717L44.247 42.3671Z" fill="#2F86E3"/>
<path d="M48.6315 43.3589H48.0298V42.2192H46.8564V43.3589H46.2547V40.6995H46.8564V41.7772H48.0298V40.6995H48.6315V43.3589Z" fill="#2F86E3"/>
<path d="M51.5357 43.3589H50.934V42.2192H49.7607V43.3589H49.159V40.6995H49.7607V41.7772H50.934V40.6995H51.5357V43.3589Z" fill="#2F86E3"/>
<path d="M52.6749 41.6584H53.1442C53.4879 41.6584 53.76 41.7346 53.9606 41.8868C54.1625 42.0377 54.2634 42.2417 54.2634 42.4986C54.2634 42.7568 54.1631 42.9644 53.9626 43.1215C53.7633 43.2773 53.4979 43.3565 53.1663 43.3589H52.0692V40.6995H52.6749V41.6584ZM55.1158 43.3589H54.5141V40.6995H55.1158V43.3589ZM52.6749 42.1005V42.9187H53.1543C53.308 42.9187 53.4304 42.8804 53.5213 42.8037C53.6136 42.7269 53.6597 42.624 53.6597 42.495C53.6597 42.3744 53.6156 42.2795 53.5273 42.21C53.4404 42.1394 53.3207 42.1029 53.1683 42.1005H52.6749Z" fill="#2F86E3"/>
<path d="M57.3963 40.6995H58V43.3589H57.3963V41.5927L56.227 43.3589H55.6253V40.6995H56.227V42.4694L57.3963 40.6995ZM57.5126 40C57.5126 40.1619 57.4484 40.2928 57.3201 40.3927C57.193 40.4925 57.0259 40.5425 56.8187 40.5425C56.6114 40.5425 56.4436 40.4932 56.3152 40.3945C56.1882 40.2959 56.1247 40.1644 56.1247 40H56.5359C56.5359 40.0767 56.5606 40.1364 56.6101 40.179C56.6609 40.2204 56.7304 40.2411 56.8187 40.2411C56.9056 40.2411 56.9738 40.2204 57.0232 40.179C57.0727 40.1364 57.0974 40.0767 57.0974 40H57.5126Z" fill="#2F86E3"/>
<path d="M22.1494 51H21.0945V46.8345H19.0514V51H18V46H22.1494V51Z" fill="#2F86E3"/>
<path d="M25.9553 49.9698H24.1119L23.7615 51H22.6435L24.543 46H25.5172L27.4272 51H26.3093L25.9553 49.9698ZM24.3958 49.1353H25.6714L25.0301 47.2637L24.3958 49.1353Z" fill="#2F86E3"/>
<path d="M28.9552 49.2383V51H27.9038V46H29.8944C30.2776 46 30.614 46.0687 30.9037 46.206C31.1958 46.3434 31.4201 46.5391 31.5766 46.7933C31.7331 47.0451 31.8114 47.3324 31.8114 47.6552C31.8114 48.1451 31.6397 48.5321 31.2962 48.8159C30.9551 49.0975 30.482 49.2383 29.8769 49.2383H28.9552ZM28.9552 48.4038H29.8944C30.1725 48.4038 30.3839 48.3397 30.5287 48.2115C30.6759 48.0833 30.7495 47.9002 30.7495 47.6621C30.7495 47.4171 30.6759 47.2191 30.5287 47.068C30.3816 46.9169 30.1783 46.8391 29.919 46.8345H28.9552V48.4038Z" fill="#2F86E3"/>
<path d="M36.3778 46.8345H34.8148V51H33.7634V46.8345H32.2214V46H36.3778V46.8345Z" fill="#2F86E3"/>
<path d="M41.1335 51H40.0821V48.8571H38.032V51H36.9806V46H38.032V48.0261H40.0821V46H41.1335V51Z" fill="#2F86E3"/>
<path d="M45.1252 48.8331H43.1066V50.1724H45.4756V51H42.0552V46H45.4686V46.8345H43.1066V48.0261H45.1252V48.8331Z" fill="#2F86E3"/>
<path d="M47.1438 49.2383V51H46.0924V46H48.083C48.4662 46 48.8026 46.0687 49.0923 46.206C49.3844 46.3434 49.6087 46.5391 49.7652 46.7933C49.9217 47.0451 50 47.3324 50 47.6552C50 48.1451 49.8283 48.5321 49.4848 48.8159C49.1437 49.0975 48.6706 49.2383 48.0655 49.2383H47.1438ZM47.1438 48.4038H48.083C48.361 48.4038 48.5725 48.3397 48.7173 48.2115C48.8645 48.0833 48.9381 47.9002 48.9381 47.6621C48.9381 47.4171 48.8645 47.2191 48.7173 47.068C48.5701 46.9169 48.3669 46.8391 48.1075 46.8345H47.1438V48.4038Z" fill="#2F86E3"/>
<path d="M31.5506 16.0695C31.5506 17.7288 30.291 18.9515 28.745 18.9515C27.1991 18.9515 25.9395 17.7288 25.9395 16.0695C25.9395 14.3985 27.1991 13.1875 28.745 13.1875C30.291 13.1875 31.5506 14.3985 31.5506 16.0695ZM30.3225 16.0695C30.3225 15.0326 29.5924 14.3232 28.745 14.3232C27.8977 14.3232 27.1676 15.0326 27.1676 16.0695C27.1676 17.096 27.8977 17.8159 28.745 17.8159C29.5924 17.8159 30.3225 17.0947 30.3225 16.0695Z" fill="#EA4335"/>
<path d="M37.6014 16.0695C37.6014 17.7288 36.3417 18.9515 34.7958 18.9515C33.2499 18.9515 31.9902 17.7288 31.9902 16.0695C31.9902 14.3998 33.2499 13.1875 34.7958 13.1875C36.3417 13.1875 37.6014 14.3985 37.6014 16.0695ZM36.3733 16.0695C36.3733 15.0326 35.6432 14.3232 34.7958 14.3232C33.9485 14.3232 33.2184 15.0326 33.2184 16.0695C33.2184 17.096 33.9485 17.8159 34.7958 17.8159C35.6432 17.8159 36.3733 17.0947 36.3733 16.0695Z" fill="#FBBC05"/>
<path d="M43.4045 13.3616V18.5357C43.4045 20.6641 42.1864 21.5334 40.7464 21.5334C39.3909 21.5334 38.5751 20.5991 38.2674 19.8351L39.3367 19.3764C39.5271 19.8455 39.9936 20.399 40.7452 20.399C41.6669 20.399 42.2381 19.813 42.2381 18.7098V18.2953H42.1952C41.9204 18.6449 41.3908 18.9502 40.7225 18.9502C39.3241 18.9502 38.043 17.695 38.043 16.0799C38.043 14.4531 39.3241 13.1875 40.7225 13.1875C41.3895 13.1875 41.9191 13.4929 42.1952 13.832H42.2381V13.3629H43.4045V13.3616ZM42.3251 16.0799C42.3251 15.0651 41.6682 14.3232 40.8322 14.3232C39.9848 14.3232 39.2749 15.0651 39.2749 16.0799C39.2749 17.0843 39.9848 17.8159 40.8322 17.8159C41.6682 17.8159 42.3251 17.0843 42.3251 16.0799Z" fill="#4285F4"/>
<path d="M45.3248 10.3291V18.775H44.127V10.3291H45.3248Z" fill="#34A853"/>
<path d="M49.9941 17.0174L50.9474 17.6723C50.6397 18.1414 49.8983 18.9496 48.6171 18.9496C47.0283 18.9496 45.8418 17.684 45.8418 16.0676C45.8418 14.3537 47.0384 13.1855 48.4797 13.1855C49.931 13.1855 50.6409 14.3758 50.873 15.019L51.0003 15.3464L47.2616 16.942C47.5479 17.5203 47.993 17.8152 48.6171 17.8152C49.2426 17.8152 49.6763 17.4982 49.9941 17.0174ZM47.0599 15.9805L49.5591 14.9111C49.4216 14.5512 49.008 14.3004 48.5213 14.3004C47.8971 14.3004 47.0283 14.8682 47.0599 15.9805Z" fill="#EA4335"/>
<path d="M21.4045 15.3196V14.0969H25.4029C25.442 14.31 25.4622 14.5621 25.4622 14.835C25.4622 15.7523 25.2188 16.8867 24.4345 17.6949C23.6716 18.5135 22.6969 18.9501 21.4057 18.9501C19.0125 18.9501 17 16.9413 17 14.475C17 12.0088 19.0125 10 21.4057 10C22.7297 10 23.6729 10.5353 24.3815 11.2331L23.5443 12.0959C23.0361 11.6047 22.3476 11.2227 21.4045 11.2227C19.6568 11.2227 18.2899 12.6741 18.2899 14.475C18.2899 16.276 19.6568 17.7274 21.4045 17.7274C22.5381 17.7274 23.1837 17.2583 23.5972 16.8321C23.9327 16.4865 24.1533 15.9927 24.2403 15.3183L21.4045 15.3196Z" fill="#4285F4"/>
<defs>
<linearGradient id="paint0_linear" x1="34.2501" y1="0" x2="34.2501" y2="73.5004" gradientUnits="userSpaceOnUse">
<stop stop-color="#2F86E3"/>
<stop offset="1" stop-color="#2F86E3"/>
</linearGradient>
</defs>
</svg>
