<svg width="74" height="74" viewBox="0 0 74 74" fill="none" xmlns="http://www.w3.org/2000/svg">
<g clip-path="url(#clip0)">
<path d="M65.8481 32.4796C65.3306 30.9945 64.1663 29.703 62.7432 28.7344C58.668 26.1515 52.5229 25.9578 48.3184 28.2824C46.0544 29.4447 44.5666 31.7693 44.0491 34.0939C43.2082 37.9683 43.4023 42.6175 46.4425 45.5233C49.9355 48.5582 55.0457 49.2685 59.5736 47.977C59.7677 47.9124 60.4792 47.7833 60.932 47.525L61.0614 47.4604C62.4845 46.8793 63.7782 45.9107 64.8131 44.6193C67.1418 41.3261 67.2712 36.2894 65.8481 32.4796ZM58.474 41.1969C58.3446 41.9072 57.8271 42.6821 57.0509 43.0049C55.8219 43.5215 54.1401 43.3924 52.9757 42.7466C52.0054 42.1009 51.8761 40.9386 51.7467 39.8409C51.682 37.71 51.488 35.5145 52.0701 33.5774C52.5229 32.3505 53.8166 32.0922 54.981 31.9631C56.21 31.9631 57.3743 32.1568 58.1505 33.1254C58.6033 33.8357 58.6033 34.7397 58.668 35.5791C58.668 37.3871 58.7974 39.4535 58.474 41.1969Z" fill="white"/>
<path d="M21.5394 43.1333C20.5044 43.0688 19.3401 43.1333 18.3698 43.0688V32.3497L18.4345 32.2852H21.5394C21.6041 30.5417 21.6041 28.6691 21.4747 27.0548L9.70196 26.9902L7.7614 27.0548C7.7614 28.6691 7.7614 30.5417 7.7614 32.2206C8.79637 32.2852 9.83133 32.2206 10.8663 32.2852V42.6168V43.0688L7.7614 43.1333C7.69672 44.8122 7.69672 46.4911 7.7614 48.17H21.5394V43.1333Z" fill="white"/>
<path d="M56.1466 50.4308C54.8529 52.3034 53.1711 54.1114 51.3599 55.532C51.2952 55.5966 51.1012 55.5966 51.0365 55.532C50.2602 55.0154 49.4193 54.628 48.6431 54.176C49.6134 53.0137 50.5837 51.7868 51.3599 50.4954H50.4543C49.6781 51.6577 48.8372 52.82 47.8669 53.8531C46.5085 53.272 45.2148 52.82 43.8564 52.4325L43.727 52.3034C43.9211 51.6577 44.3739 51.0765 44.5033 50.4954H43.6623L42.6921 52.0451C40.8809 51.6577 38.8109 51.4639 36.9351 51.3348C36.8704 51.0765 36.9351 50.6891 36.8704 50.4308H36.0295C35.9648 50.8182 36.0942 51.0765 35.9648 51.3994C34.0242 51.4639 32.1484 51.7222 30.3372 52.0451L29.4963 50.4308C29.1728 50.4308 28.8494 50.3662 28.6553 50.4954L29.4316 52.3034L29.3669 52.368C27.9438 52.7554 26.5854 53.272 25.227 53.7885L25.0977 53.724C24.1921 52.7554 23.3512 51.7222 22.7043 50.6891C22.5749 50.1725 21.9281 50.4954 21.6046 50.4308C22.3809 51.7868 23.3512 52.9491 24.3214 54.176C23.4805 54.6926 22.6396 55.2091 21.734 55.5966C19.8581 54.176 18.1116 52.368 16.8179 50.4308C16.4298 50.3662 16.1711 50.3662 15.8477 50.4308C18.1116 53.9177 21.6046 56.9526 25.227 58.7606C25.227 58.7606 25.227 58.7606 25.2917 58.7606C25.2917 58.7606 25.3564 58.8252 25.2917 58.8252C27.7498 59.9875 30.4018 60.8915 33.1833 61.2144C42.7567 62.4412 51.8774 58.3732 57.1816 50.3662C56.8581 50.4308 56.47 50.4308 56.1466 50.4308ZM43.1449 53.2074L43.2095 53.1428C44.5679 53.4657 45.8616 53.8531 47.026 54.4343C46.0557 55.5966 44.762 56.5652 43.533 57.34C42.8214 57.792 42.1099 58.244 41.3337 58.5669L39.9753 57.9858L40.04 57.792C41.269 56.3714 42.3039 54.8217 43.1449 53.2074ZM36.9998 52.3034C38.8109 52.368 40.5574 52.4971 42.2393 52.8845V52.9491C41.3984 54.628 40.2987 56.1777 39.0697 57.6629C38.5522 57.7275 38.0347 57.5337 37.5172 57.4692H36.9998C36.9351 55.6611 36.9351 54.1114 36.9998 52.3034ZM30.984 52.82C32.6012 52.4971 34.283 52.2388 36.0295 52.2388L36.0942 57.4046C35.4473 57.5337 34.7358 57.5337 34.0889 57.7275C32.7952 56.2423 31.7602 54.628 30.8546 52.9491L30.984 52.82ZM25.9386 54.4988C27.1676 53.9177 28.4613 53.4657 29.755 53.1428H29.8844C30.79 54.8217 31.8896 56.436 33.0539 57.9858C32.6012 58.244 32.0837 58.3732 31.6309 58.6315C29.5609 57.5983 27.6204 56.2423 25.9386 54.4988ZM30.0137 59.7292C27.3616 59.0835 24.9683 57.9212 22.7043 56.3069V56.1777C23.4805 55.7257 24.1921 55.2091 25.033 54.8863C26.8442 56.6297 28.6553 57.9212 30.6606 59.2126C30.4665 59.4063 30.2078 59.6001 30.0137 59.7292ZM41.5924 60.1166C38.2935 60.8269 34.6064 60.8269 31.3074 60.0521C31.2428 59.9229 31.4368 59.8583 31.5662 59.7938C34.477 57.9212 39.005 57.9212 41.8511 59.9229C41.8511 60.1166 41.6571 60.0521 41.5924 60.1166ZM44.5679 59.2772L43.0802 59.7292C42.8214 59.6001 42.6274 59.4063 42.3686 59.2126L42.4333 59.1481C44.4386 57.9858 46.2498 56.5652 47.9316 54.8863C48.7725 55.2091 49.6134 55.6611 50.3249 56.1777C48.6431 57.5983 46.6379 58.5023 44.5679 59.2772Z" fill="white"/>
<path d="M16.7535 24.6016C17.5297 23.5684 18.3706 22.5352 19.2762 21.5667C20.1171 20.7918 20.8287 20.0815 21.7343 19.5003C22.5752 20.0169 23.4808 20.4689 24.257 20.9209C23.2867 22.0832 22.3164 23.3101 21.6049 24.6016C21.7989 24.6661 22.2517 24.6661 22.5105 24.6016C23.2867 23.4393 24.1276 22.3415 25.1626 21.3084C26.521 21.8249 27.8147 22.3415 29.1731 22.6644L29.3024 22.7935L28.4615 24.6016C28.785 24.6661 29.0437 24.6661 29.3671 24.6016C29.6259 24.085 29.8846 23.5038 30.208 22.9872C32.0192 23.3747 33.8951 23.5684 35.8357 23.633C36.0944 23.8267 35.9003 24.2787 35.965 24.6016H36.8059C36.8706 24.2787 36.8059 23.9558 36.8706 23.6975C38.6818 23.633 40.5577 23.4393 42.3042 22.9872L42.4336 23.0518L43.2745 24.6661C43.5332 24.6661 43.9213 24.7307 44.1801 24.6016L43.4038 22.8581L43.4685 22.7935C44.8916 22.4061 46.25 21.8895 47.6084 21.3084C48.5787 22.3415 49.4843 23.5038 50.3252 24.6661C50.6486 24.6661 51.0367 24.7307 51.2308 24.6016C50.8426 23.9558 50.3898 23.2455 49.8724 22.6644C49.4843 22.0832 49.0315 21.5667 48.514 20.9855V20.8564L50.7133 19.6295L51.0367 19.5003C52.9126 20.9209 54.5944 22.6644 55.9528 24.6016C56.3409 24.6016 56.6643 24.7307 56.9231 24.6016C52.8479 18.2735 45.9266 14.27 38.4877 13.6888L38.4231 13.7534L38.3584 13.6888C37.5175 13.6242 36.4825 13.5597 35.5769 13.6888C35.2535 13.6888 34.8007 13.6888 34.4126 13.7534C26.9738 14.27 20.0524 18.0797 15.7832 24.6016C16.1066 24.6016 16.4301 24.7307 16.7535 24.6016ZM29.6905 21.8895H29.5612C28.2675 21.5667 27.0384 21.1792 25.8741 20.6626L25.9388 20.4689C27.6853 18.8546 29.4318 17.4986 31.437 16.4654C31.8898 16.6592 32.3426 16.7883 32.8601 17.0466L32.7954 17.3049C31.5664 18.7255 30.6608 20.3398 29.6905 21.8895ZM35.9003 22.729C35.0594 22.8581 34.2185 22.729 33.3776 22.6644C32.5367 22.5352 31.5017 22.4707 30.6608 22.1478C31.5664 20.4689 32.6014 18.8546 33.8951 17.3694L35.9003 17.6277C35.965 19.242 35.9003 21.0501 35.9003 22.729ZM36.8706 22.7935C36.8059 21.1792 36.8706 19.3712 36.8706 17.6923C37.5175 17.6277 38.1643 17.4986 38.8112 17.434C40.0402 18.9838 41.2045 20.5335 42.0454 22.2124C40.3636 22.5352 38.6171 22.7935 36.8706 22.7935ZM46.8322 20.5981C45.6031 21.1146 44.3741 21.6312 43.0157 21.8895C42.0454 20.2752 41.0105 18.6609 39.7815 17.1112C40.2343 16.8529 40.7517 16.6592 41.2045 16.4654C43.2098 17.4986 45.215 18.9192 46.8322 20.5335V20.5981ZM42.8217 15.3677C45.4738 16.0134 47.9318 17.1757 50.1311 18.79L50.0664 18.9192L47.9318 20.0815H47.8024C46.1206 18.4026 44.2447 16.982 42.2395 15.8843C42.3042 15.6906 42.6276 15.5614 42.8217 15.3677ZM41.5926 15.1094C38.8759 17.1112 34.4773 17.3049 31.6311 15.4968C31.5017 15.3677 31.1783 15.3031 31.1136 15.1094C34.4126 14.3345 38.2937 14.27 41.5926 15.1094ZM22.5752 18.8546C24.5157 17.434 26.715 16.3363 29.0437 15.626C29.1084 15.5614 29.1731 15.4323 29.3024 15.4323V15.4968C29.5612 15.5614 29.7552 15.3031 29.9493 15.4323C30.1433 15.5614 30.3374 15.6906 30.5315 15.8843C28.5909 17.0466 26.715 18.4672 24.9685 20.2106C24.1276 19.8878 23.3514 19.4358 22.5752 18.8546Z" fill="white"/>
<path d="M35.9639 43.3277C33.053 44.1026 29.8188 43.5214 27.7488 41.3259C27.4901 41.0031 27.3607 40.6802 27.102 40.3574H22.8974C22.8328 42.8111 22.8328 45.6523 22.8974 48.1061H27.5548L27.6195 46.6209C28.137 46.8792 28.6544 47.202 29.2366 47.4603C32.4709 48.8163 36.6754 49.1392 39.845 47.4603C42.1737 46.1689 43.4027 43.7151 43.0793 41.0031C42.7558 38.4202 40.2331 36.031 37.7104 35.3853L30.1422 33.1898L29.56 32.9315C29.3013 32.7378 29.1719 32.415 29.2366 32.0921C29.8188 31.0589 31.1772 31.3818 32.2121 31.4464C34.4114 31.7692 36.6107 32.4795 37.9044 34.4813C39.2628 34.4813 40.88 34.4813 42.3677 34.4167C42.4324 31.8984 42.3677 29.7029 42.303 27.1846C40.88 27.12 39.1981 27.12 37.7751 27.2492C37.7104 27.6366 37.8398 28.1532 37.7104 28.476L36.2873 27.7657C32.859 26.3451 28.0723 26.1514 24.9027 28.4115C22.8974 29.8966 22.2506 32.5441 22.7681 34.8041C23.1562 36.9996 25.2908 38.6139 27.2961 39.3888C30.0775 40.3574 32.9884 41.0677 35.7698 42.0362C36.0286 42.1654 36.4167 42.4237 36.352 42.7465C36.4814 43.0694 36.1579 43.2631 35.9639 43.3277Z" fill="white"/>
<path d="M6.46812 50.4312L6.59749 50.7541C6.59749 50.8186 6.59749 50.8832 6.53281 50.9478L2.06952 52.885C2.00483 52.885 1.94015 52.885 1.87546 52.8204L1.74609 52.4975C1.74609 52.433 1.74609 52.3684 1.81078 52.3038L6.33875 50.3666C6.33875 50.3021 6.46812 50.3021 6.46812 50.4312Z" fill="white"/>
<path d="M5.11062 46.7502L5.23999 47.0731C5.23999 47.1377 5.23999 47.2022 5.17531 47.2668L2.97601 47.9771C2.32915 48.1708 2.19978 48.4937 2.32915 49.0103C2.39384 49.2686 2.65258 49.5914 2.91132 49.7851L5.69279 48.8166C5.75748 48.8166 5.82216 48.8166 5.88685 48.8811L6.01622 49.204C6.01622 49.2686 6.01622 49.3331 5.95153 49.3977L2.58789 50.56C2.52321 50.56 2.45852 50.56 2.39384 50.4954L2.26447 50.1726C2.26447 50.108 2.26447 50.0434 2.32915 49.9789L2.45852 49.9143C2.1351 49.5914 1.94104 49.3331 1.81167 48.9457C1.55293 48.1708 1.94104 47.6543 2.78195 47.3314L4.98125 46.6211C5.04594 46.6857 5.11062 46.6857 5.11062 46.7502Z" fill="white"/>
<path d="M4.52751 44.1672C4.59219 44.2964 4.65688 44.4901 4.65688 44.6192C4.78625 45.265 4.72156 45.5878 3.94534 45.7815L1.55198 46.3627L1.61667 47.0084C1.61667 47.073 1.61667 47.1376 1.55198 47.1376L1.35793 47.2021C1.29324 47.2021 1.22856 47.2021 1.22856 47.073L1.09919 46.4273L0.452333 46.5564C0.387647 46.5564 0.322962 46.5564 0.258277 46.4918L0.128906 46.169C0.128906 46.1044 0.128906 46.0398 0.193592 46.0398L0.969815 45.8461L0.775759 45.1358C0.775759 45.0712 0.775759 45.0067 0.90513 44.9421L1.16387 44.8775C1.22856 44.8775 1.29324 44.8775 1.35793 45.0067L1.55198 45.717L3.88065 45.1358C4.26877 45.0712 4.26877 44.9421 4.20408 44.6838L4.1394 44.2964C4.1394 44.2318 4.1394 44.1672 4.20408 44.1027L4.46282 44.0381C4.46282 44.1027 4.46282 44.1027 4.52751 44.1672Z" fill="white"/>
<path d="M2.26314 41.0679L2.58657 43.3925H2.71594C3.55685 43.2633 3.81559 42.9405 3.68622 42.2947C3.62153 41.9073 3.55685 41.3907 3.42747 41.0679C3.42747 41.0679 3.42747 41.0679 3.42747 41.0033C3.42747 40.9387 3.42747 40.8741 3.49216 40.8741L3.7509 40.8096C3.81559 40.8096 3.88027 40.8096 3.94496 40.9387C4.07433 41.3261 4.13901 41.7136 4.2037 42.1656C4.33307 42.9405 4.07433 43.7799 2.78062 43.9736L2.13377 44.0382C1.16349 44.1673 0.45195 43.7153 0.32258 42.7467C0.193209 41.7136 0.775377 41.1324 1.74566 41.0033L2.13377 40.9387C2.19845 40.9387 2.26314 41.0033 2.26314 41.0679ZM1.81034 41.5844C1.03412 41.7136 0.775377 42.0364 0.840062 42.6176C0.904748 43.1987 1.29286 43.5216 2.06908 43.3925H2.13377L1.81034 41.5844Z" fill="white"/>
<path d="M0.517482 38.6789C0.517482 39.0018 0.646853 39.2601 0.840909 39.6475L3.75175 39.5184C3.81643 39.5184 3.88112 39.583 3.88112 39.6475V39.9704C3.9458 39.9704 3.88112 40.035 3.81643 40.035L0.258741 40.2287C0.194056 40.2287 0.129371 40.1641 0.129371 40.0995V39.7767C0.129371 39.7121 0.194056 39.6475 0.258741 39.6475H0.388112C0.129371 39.3247 0 39.0018 0 38.6789C0 38.5498 0.0646853 38.5498 0.129371 38.5498H0.388112C0.452797 38.5498 0.517482 38.5498 0.517482 38.6789Z" fill="white"/>
<path d="M3.94557 35.0629V35.3857C3.94557 35.4503 3.88089 35.5149 3.8162 35.5149L1.55222 35.4503C0.840677 35.4503 0.646621 35.644 0.581936 36.1606C0.581936 36.4189 0.646621 36.8063 0.840677 37.1292L3.75152 37.2583C3.8162 37.2583 3.88089 37.3229 3.88089 37.3875V37.7103C3.88089 37.7749 3.8162 37.8395 3.75152 37.8395L0.193824 37.7103C0.129138 37.7103 0.0644531 37.6458 0.0644531 37.5812V37.2583C0.0644531 37.1938 0.129138 37.1292 0.193824 37.1292H0.323194C0.129138 36.7417 0.0644531 36.4189 0.0644531 36.0314C0.129138 35.192 0.646621 34.8691 1.55222 34.8691L3.8162 34.9337C3.88089 34.9337 3.94557 34.9983 3.94557 35.0629Z" fill="white"/>
<path d="M4.39767 31.6405L4.33299 31.9634C4.33299 32.0279 4.2683 32.0925 4.20362 32.0925H4.07425C4.20362 32.48 4.33299 32.8028 4.2683 33.1903C4.20362 33.7714 3.8155 34.288 2.9746 34.1588H2.90991C2.19837 34.0297 1.87495 33.5777 2.069 32.3508L2.13369 31.8342L1.87495 31.7697C1.29278 31.7051 1.09872 31.8342 0.969351 32.4154C0.904666 32.8674 0.904666 33.1903 0.83998 33.4485C0.83998 33.4485 0.83998 33.4485 0.83998 33.5131C0.775295 33.5131 0.775295 33.5777 0.645924 33.5777L0.387183 33.5131C0.322498 33.5131 0.257812 33.4485 0.257812 33.3194C0.257812 33.0611 0.257812 32.7382 0.322498 32.2217C0.451868 31.2531 0.969351 30.9302 1.81026 31.0594L4.20362 31.3822C4.33299 31.5114 4.39767 31.5759 4.39767 31.6405ZM2.5218 31.8342L2.45711 32.3508C2.32774 33.1903 2.45711 33.4485 2.9746 33.5131H3.03928C3.55676 33.5777 3.68613 33.384 3.75082 32.9965C3.8155 32.6737 3.75082 32.4154 3.62145 32.0279L2.5218 31.8342Z" fill="white"/>
<path d="M5.04476 29.0575C5.04476 29.1866 4.98007 29.3803 4.98007 29.5095C4.8507 30.1552 4.59196 30.4135 3.88042 30.2198L1.42238 29.7032L1.16364 30.3489C1.16364 30.4135 1.09895 30.4781 1.03427 30.4781L0.904898 30.3489C0.840213 30.3489 0.775527 30.2843 0.840213 30.2198L0.969583 29.574L0.32273 29.4449C0.258045 29.4449 0.193359 29.3803 0.193359 29.3157V28.9283C0.193359 28.8637 0.258045 28.8637 0.32273 28.8637L1.03427 29.0575L1.29301 28.218C1.29301 28.1534 1.3577 28.0889 1.48707 28.0889L1.74581 28.1534C1.81049 28.1534 1.87518 28.218 1.87518 28.3472L1.61644 29.0575L3.94511 29.6386C4.33322 29.7032 4.39791 29.6386 4.46259 29.3803L4.52728 28.9929C4.52728 28.9283 4.59196 28.8637 4.65665 28.8637L4.91539 28.9283C4.98007 28.9283 5.04476 28.9929 5.04476 29.0575Z" fill="white"/>
<path d="M1.10036 26.6681L0.970986 26.9909C0.970986 27.0555 0.841615 27.1201 0.77693 27.0555L0.259448 26.8618C0.194762 26.8618 0.130077 26.7327 0.194762 26.6681L0.324133 26.3452C0.324133 26.2807 0.453504 26.2161 0.518189 26.2807L1.03567 26.4744C1.10036 26.4744 1.16504 26.5389 1.10036 26.6681ZM5.36959 27.9595L5.24022 28.2824C5.24022 28.347 5.11085 28.4115 5.04616 28.347L1.68252 27.3138C1.61784 27.3138 1.55315 27.1847 1.61784 27.1201L1.74721 26.7972C1.74721 26.7327 1.87658 26.6681 1.94127 26.7327L5.24022 27.7658C5.3049 27.8304 5.36959 27.895 5.36959 27.9595Z" fill="white"/>
<path d="M6.20919 25.7002C5.82107 26.6688 4.98017 26.8625 4.07457 26.4751L3.55709 26.2813C2.65149 25.9585 2.1987 25.1836 2.58681 24.2796C2.97492 23.311 3.81583 23.1173 4.72142 23.4402L5.17422 23.6339C6.1445 24.0213 6.5973 24.7316 6.20919 25.7002ZM4.46268 24.0213C3.81583 23.763 3.29835 23.8276 3.03961 24.4733C2.78086 25.0545 3.10429 25.5065 3.75114 25.7648L4.26863 25.9585C4.91548 26.2168 5.43296 26.1522 5.6917 25.5065C5.95045 24.9253 5.62702 24.4733 4.98017 24.215L4.46268 24.0213Z" fill="white"/>
<path d="M8.34406 21.18L8.21469 21.5029C8.15 21.5674 8.08532 21.5674 8.02063 21.5674L6.01539 20.4697C5.36854 20.1468 5.10979 20.276 4.85105 20.728C4.72168 20.9863 4.657 21.3091 4.657 21.6966L7.24441 23.0526C7.30909 23.1172 7.30909 23.1817 7.30909 23.2463L7.11504 23.5692C7.05035 23.6337 6.98567 23.6337 6.92098 23.6337L3.81609 21.9549C3.7514 21.8903 3.68672 21.8257 3.7514 21.7612L3.88077 21.4383C3.88077 21.3737 4.01014 21.3091 4.07483 21.3737L4.2042 21.4383C4.2042 20.9863 4.26889 20.6634 4.46294 20.3406C4.85105 19.6303 5.49791 19.5011 6.33881 19.9531L8.34406 21.0509C8.34406 21.0509 8.34406 21.1154 8.34406 21.18Z" fill="white"/>
<path d="M10.2206 18.4033L10.0265 18.6616C9.96181 18.7261 9.89713 18.7261 9.83244 18.7261L9.70307 18.597C9.70307 18.9844 9.5737 19.3719 9.37964 19.6947C9.05622 20.2113 8.53874 20.4696 7.8272 20.0176L7.76251 19.8884C7.11566 19.4364 7.05097 18.9199 7.76251 17.8867L8.02125 17.4347L7.76251 17.3055C7.30971 16.9827 6.98629 17.0473 6.72755 17.4993C6.4688 17.8867 6.27475 18.145 6.14538 18.4033C6.08069 18.4678 6.08069 18.4678 5.95132 18.4678L5.82195 18.3387C5.75727 18.2741 5.75727 18.2096 5.82195 18.145C5.95132 17.8867 6.08069 17.6284 6.33943 17.1764C6.85692 16.4015 7.50377 16.337 8.15062 16.789L10.1559 18.145C10.2206 18.2096 10.2206 18.3387 10.2206 18.4033ZM8.40936 17.693L8.15062 18.145C7.69783 18.8553 7.69783 19.1136 8.08594 19.4364L8.15062 19.501C8.53874 19.7593 8.79748 19.6947 9.05622 19.3073C9.25027 19.049 9.31496 18.7261 9.37964 18.4033L8.40936 17.693Z" fill="white"/>
<path d="M11.1266 17.241L10.8678 17.4993C10.8031 17.5639 10.7385 17.5639 10.6738 17.4993L6.79265 14.3998C6.72797 14.3353 6.72797 14.2707 6.79265 14.2061L7.0514 13.9478C7.11608 13.8833 7.18077 13.8833 7.24545 13.9478L11.1266 17.0473C11.1266 17.0473 11.1913 17.1765 11.1266 17.241Z" fill="white"/>
<path d="M14.1663 14.0119C13.3901 14.7222 12.3552 14.8514 11.3202 13.6891L10.738 13.0434C9.70306 11.9456 9.83243 10.9125 10.6087 10.1376C11.3849 9.36272 12.4198 9.29815 13.4548 10.4605L14.037 11.1062C15.0719 12.2685 14.9426 13.3016 14.1663 14.0119ZM12.9373 10.977C12.1611 10.1376 11.5142 10.1376 10.9321 10.6542C10.3499 11.1708 10.3499 11.8165 11.1261 12.6559L11.7083 13.3016C12.4845 14.1411 13.1314 14.1411 13.7135 13.6245C14.2957 13.1079 14.2957 12.4622 13.5195 11.6228L12.9373 10.977Z" fill="white"/>
<path d="M15.3312 8.71711C15.0725 8.91083 14.8784 9.16912 14.749 9.55656L16.4955 11.8812C16.5602 11.9457 16.5602 12.0103 16.4955 12.0749L16.1721 12.204C16.1074 12.2686 16.0427 12.204 15.978 12.204L13.8434 9.42741C13.7788 9.36284 13.7788 9.29827 13.8434 9.23369L14.1022 9.03998C14.1669 8.9754 14.2315 8.9754 14.2962 9.03998L14.3609 9.16912C14.4903 8.78169 14.6843 8.5234 14.9431 8.32968C15.0078 8.26511 15.0725 8.26511 15.1371 8.32968L15.3312 8.5234C15.3959 8.58797 15.3959 8.65254 15.3312 8.71711Z" fill="white"/>
<path d="M18.4354 6.58606L18.2414 6.77977C18.4354 6.84435 18.6295 6.90892 18.8235 7.23178V7.29635C19.2117 7.94208 19.0823 8.52323 18.1767 9.10438C17.8533 9.2981 17.6592 9.36267 17.4005 9.42724C17.3358 9.55639 17.3358 9.62096 17.4005 9.75011C17.4652 9.87925 17.5298 9.87925 17.7239 9.81468L18.7589 9.49182C19.4057 9.2981 20.0526 9.10438 20.4407 9.62096V9.68553C20.8288 10.2667 20.6347 10.8478 19.6645 11.429C18.7589 12.0101 18.112 11.9456 17.7239 11.3644L17.6592 11.2998C17.4652 10.977 17.4652 10.5895 17.5298 10.3313H17.4652C17.2064 10.3958 17.0124 10.2021 16.883 10.073C16.7536 9.94382 16.7536 9.68553 16.883 9.49182C16.6242 9.42724 16.3655 9.2981 16.1715 8.97524V8.91066C15.848 8.39408 15.7833 7.68379 16.8183 7.03806L18.112 6.19862C18.1767 6.13405 18.3061 6.19862 18.3061 6.26319L18.3708 6.39234C18.5648 6.52148 18.5001 6.52148 18.4354 6.58606ZM18.3708 7.55464C18.1767 7.23178 17.7886 7.03806 17.2064 7.4255C16.5596 7.81293 16.6242 8.20037 16.8183 8.5878V8.65237C17.0124 8.91066 17.3358 9.16895 17.9826 8.71695C18.6295 8.32951 18.6295 8.00665 18.3708 7.55464ZM19.9232 9.94382C19.7938 9.68553 19.5351 9.75011 18.8882 9.94382L18.112 10.2021C18.0473 10.4604 17.9826 10.6541 18.1767 10.977L18.2414 11.0416C18.4354 11.3644 18.7589 11.429 19.4057 11.0416C20.1173 10.5895 20.1819 10.3313 19.9232 9.94382Z" fill="white"/>
<path d="M23.0932 8.0072L22.8345 8.13635C22.7698 8.20092 22.7051 8.13635 22.6404 8.07177L22.5757 7.94263C22.3817 8.26549 22.1229 8.52378 21.7348 8.7175C21.2174 8.97579 20.6352 8.97579 20.2471 8.20092L20.1824 8.13635C19.859 7.49062 20.053 6.90947 21.2174 6.39289L21.6702 6.1346L21.5408 5.87631C21.282 5.35973 21.0233 5.23059 20.5058 5.48888C20.1177 5.68259 19.7943 5.87631 19.6002 6.00546C19.6002 6.00546 19.6002 6.00546 19.5355 6.00546C19.4709 6.00546 19.4062 6.07003 19.4062 5.94088L19.2768 5.81174C19.2121 5.74717 19.2768 5.68259 19.3415 5.61802C19.6002 5.4243 19.859 5.29516 20.2471 5.03687C21.088 4.58486 21.6702 4.84315 22.0583 5.61802L23.1579 7.81348C23.2226 7.87806 23.1579 8.0072 23.0932 8.0072ZM21.8642 6.58661L21.4114 6.78032C20.6352 7.16776 20.5705 7.42605 20.7646 7.87806L20.8292 7.94263C21.0233 8.39463 21.3467 8.39463 21.6702 8.20092C21.9289 8.07177 22.1876 7.87806 22.3817 7.55519L21.8642 6.58661Z" fill="white"/>
<path d="M26.5217 6.71523L26.1983 6.84437C26.1336 6.84437 26.0689 6.84437 26.0043 6.7798L25.228 4.64891C24.9693 4.00319 24.7106 3.87404 24.1931 4.06776C23.9343 4.1969 23.6756 4.39062 23.4168 4.64891L24.3871 7.42552C24.3871 7.4901 24.3871 7.55467 24.3224 7.61924L23.999 7.74839C23.9343 7.74839 23.8696 7.74839 23.805 7.68381L22.6406 4.1969C22.6406 4.13233 22.6406 4.06776 22.7053 4.00319L23.0934 3.87404C23.1581 3.87404 23.2228 3.87404 23.2875 3.93861V4.06776C23.5462 3.7449 23.805 3.55118 24.1931 3.42203C24.9693 3.16374 25.4868 3.48661 25.8102 4.39062L26.5864 6.52151C26.6511 6.58608 26.5864 6.65066 26.5217 6.71523Z" fill="white"/>
<path d="M26.8441 2.00143L26.5207 2.13058C26.456 2.13058 26.3913 2.13058 26.3266 2.00143L26.1973 1.48485C26.1973 1.42028 26.1973 1.35571 26.3266 1.29113L26.6501 1.22656C26.7147 1.22656 26.7794 1.22656 26.8441 1.35571L26.9735 1.87229C26.9735 1.93686 26.9088 2.00143 26.8441 2.00143ZM28.0085 6.32779L27.685 6.39236C27.6203 6.39236 27.5557 6.39236 27.491 6.26321L26.5854 2.84087C26.5854 2.7763 26.5854 2.71173 26.7147 2.64716L27.0382 2.58258C27.1029 2.58258 27.1675 2.58258 27.2322 2.71173L28.1378 6.13407C28.0731 6.19864 28.0731 6.26321 28.0085 6.32779Z" fill="white"/>
<path d="M31.3082 5.55313L29.2383 5.94057C28.9149 6.00514 28.7855 5.81142 28.7208 5.61771V5.48856C28.6562 5.29484 28.7208 5.1657 28.7855 5.03655L30.1439 2.51823V2.45366C30.1439 2.45366 30.1439 2.38908 30.0792 2.38908L28.3974 2.71195C28.3327 2.71195 28.268 2.64737 28.2034 2.5828L28.1387 2.32451C28.1387 2.25994 28.2034 2.19537 28.268 2.13079L30.2733 1.74336C30.532 1.67879 30.6614 1.80793 30.7261 2.00165L30.7908 2.19537C30.7908 2.32451 30.7908 2.45366 30.7261 2.5828L29.3677 5.1657C29.3677 5.23027 29.3677 5.23027 29.3677 5.23027C29.3677 5.29484 29.3677 5.29484 29.4324 5.29484L31.2436 4.97198C31.3082 4.97198 31.3729 5.03655 31.4376 5.10113L31.5023 5.35942C31.4376 5.48856 31.3729 5.55313 31.3082 5.55313Z" fill="white"/>
<path d="M34.5419 5.22994H34.2185C34.1538 5.22994 34.0891 5.16536 34.0891 5.10079V4.97165C33.7657 5.16536 33.4423 5.35908 33.0542 5.42365C32.472 5.48823 31.8898 5.29451 31.8252 4.3905V4.32592C31.7605 3.55105 32.1486 3.16362 33.3776 3.03447L33.8951 2.9699V2.71161C33.8304 2.13046 33.6363 1.93674 33.0542 2.00132C32.6014 2.06589 32.278 2.13046 32.0192 2.13046C32.0192 2.13046 32.0192 2.13046 31.9545 2.13046C31.8898 2.13046 31.8252 2.13046 31.8252 2.00132V1.74303C31.8252 1.67845 31.8898 1.61388 31.9545 1.61388C32.2133 1.54931 32.5367 1.48474 32.9895 1.42016C33.9598 1.35559 34.4126 1.8076 34.4773 2.58247L34.6713 4.97165C34.6713 5.16536 34.6066 5.22994 34.5419 5.22994ZM33.8951 3.42191L33.3776 3.48648C32.5367 3.55105 32.3426 3.74477 32.4073 4.26135V4.32592C32.472 4.8425 32.7307 4.90707 33.1189 4.90707C33.4423 4.90707 33.701 4.77793 34.0245 4.51964L33.8951 3.42191Z" fill="white"/>
<path d="M37.1934 5.23039C37.0641 5.23039 36.87 5.29496 36.7406 5.29496C36.0938 5.29496 35.7704 5.16582 35.7704 4.39095V1.9372L35.1235 1.87262C35.0588 1.87262 34.9941 1.80805 34.9941 1.74348V1.54976C34.9941 1.48519 35.0588 1.42062 35.1235 1.42062H35.7704V0.710319C35.7704 0.645746 35.8351 0.581174 35.8997 0.581174L36.2232 0.516602C36.2878 0.516602 36.3525 0.581174 36.3525 0.645746V1.42062H37.1288C37.1934 1.42062 37.2581 1.48519 37.2581 1.54976V1.80805C37.2581 1.87262 37.1934 1.9372 37.1288 1.9372H36.3525L36.4172 4.39095C36.4172 4.77838 36.5466 4.84295 36.8053 4.84295H37.1934C37.3228 4.84295 37.3228 4.84295 37.3228 4.90753V5.16582C37.3228 5.16582 37.3228 5.16582 37.1934 5.23039Z" fill="white"/>
<path d="M38.4235 5.29494H38.1001C38.0354 5.29494 37.9707 5.23037 37.9707 5.16579L38.1648 1.54974C38.1648 1.48517 38.2294 1.42059 38.2941 1.42059H38.6176C38.6822 1.42059 38.7469 1.48517 38.7469 1.54974L38.5529 5.16579C38.5529 5.23037 38.4882 5.29494 38.4235 5.29494ZM38.6822 0.839442H38.3588C38.2941 0.839442 38.2294 0.774869 38.2294 0.710297V0.129145C38.2294 0.0645724 38.2941 0 38.3588 0H38.7469C38.8116 0 38.8763 0.0645724 38.8763 0.129145L38.8116 0.710297C38.8763 0.774869 38.8116 0.839442 38.6822 0.839442Z" fill="white"/>
<path d="M40.8158 5.55329C39.7808 5.42414 39.3927 4.64927 39.5221 3.68069L39.5867 3.16411C39.7161 2.13095 40.363 1.5498 41.3332 1.67894C42.3682 1.80809 42.7563 2.58296 42.627 3.55154L42.5623 4.06812C42.4329 5.10128 41.8507 5.68243 40.8158 5.55329ZM42.0448 3.48697C42.1095 2.77667 41.9154 2.32467 41.2686 2.19552C40.6217 2.13095 40.2983 2.51838 40.1689 3.22868L40.1042 3.74526C40.0395 4.45556 40.2336 4.90756 40.8804 5.03671C41.5273 5.10128 41.8507 4.71385 41.9801 4.00355L42.0448 3.48697Z" fill="white"/>
<path d="M45.7316 6.52167L45.4082 6.45709C45.2788 6.45709 45.2788 6.32795 45.2788 6.26338L45.861 4.06791C46.0551 3.35762 45.861 3.09933 45.3435 2.97018C45.0848 2.90561 44.6967 2.90561 44.3732 3.03475L43.6617 5.87594C43.6617 5.94051 43.597 6.00509 43.4676 6.00509L43.1442 5.94051C43.0795 5.94051 43.0148 5.87594 43.0795 5.7468L43.9851 2.32446C43.9851 2.25988 44.0498 2.19531 44.1792 2.19531L44.5026 2.25988C44.5673 2.25988 44.632 2.32446 44.5673 2.4536V2.58275C45.0201 2.4536 45.3435 2.4536 45.7316 2.51817C46.5725 2.71189 46.7666 3.29304 46.5725 4.19706L45.861 6.45709C45.861 6.52167 45.7963 6.52167 45.7316 6.52167Z" fill="white"/>
<path d="M51.6183 3.61644L51.2948 3.48729C50.9714 3.35815 50.842 3.42272 50.7127 3.74558L50.5186 4.19759L51.1655 4.45588C51.2301 4.45588 51.2948 4.58502 51.2301 4.6496L51.1008 4.90789C51.1008 4.97246 51.0361 4.97246 50.9067 4.97246L50.2599 4.71417L49.0308 7.61993C49.0308 7.6845 48.9015 7.74907 48.8368 7.6845L48.5134 7.55535C48.4487 7.55535 48.384 7.42621 48.4487 7.36164L49.6777 4.45588L49.1602 4.13302C49.0955 4.06844 49.0308 4.00387 49.0955 3.9393L49.1602 3.81015C49.1602 3.74558 49.2896 3.74558 49.3543 3.74558L50.0011 4.00387L50.1952 3.55186C50.4539 2.84157 50.9067 2.777 51.4889 3.03528C51.6183 3.09986 51.6829 3.16443 51.7476 3.229C51.8123 3.29357 51.877 3.29357 51.8123 3.35815L51.7476 3.55186C51.7476 3.61644 51.6829 3.61644 51.6183 3.61644Z" fill="white"/>
<path d="M51.4257 8.91132C50.5201 8.45931 50.3907 7.61987 50.8435 6.71585L51.1023 6.26385C51.5551 5.35983 52.3313 5.03697 53.2369 5.48898C54.1425 5.94098 54.2719 6.78042 53.8191 7.68444L53.5603 8.13645C53.1075 9.04046 52.3313 9.42789 51.4257 8.91132ZM53.3016 7.42615C53.625 6.78042 53.5603 6.26385 52.9782 5.94098C52.396 5.61812 51.9432 5.87641 51.6198 6.52214L51.361 6.97414C51.0376 7.61987 51.1023 8.13645 51.6198 8.45931C52.2019 8.78217 52.6547 8.52388 52.9782 7.87816L53.3016 7.42615Z" fill="white"/>
<path d="M56.4699 8.00703C56.2112 7.81331 55.8877 7.74874 55.4996 7.74874L53.9472 10.2025C53.8825 10.2671 53.8178 10.2671 53.7531 10.2671L53.4944 10.0733C53.4297 10.0088 53.4297 9.9442 53.4297 9.87963L55.3702 6.9093C55.4349 6.84473 55.4996 6.84473 55.5643 6.84473L55.823 7.03844C55.8877 7.10302 55.8877 7.16759 55.8877 7.23216L55.823 7.36131C56.2758 7.36131 56.5346 7.42588 56.7933 7.6196C56.858 7.68417 56.9227 7.74874 56.858 7.81331L56.7286 8.0716C56.664 8.0716 56.5993 8.0716 56.4699 8.00703Z" fill="white"/>
<path d="M57.4402 12.9787C57.0521 12.6558 56.858 12.3975 56.5993 12.1392C56.5346 12.0747 56.5346 12.0101 56.5993 11.9455L56.7934 11.7518C56.858 11.6872 56.9227 11.6872 56.9874 11.7518C57.1815 12.0101 57.5696 12.333 57.8283 12.5267C58.4752 13.0433 58.8633 12.9787 59.1867 12.5912C59.4455 12.333 59.3808 12.0747 59.1867 11.3644L58.8633 10.6541C58.6045 9.94378 58.6045 9.49177 58.9927 9.03977C59.5101 8.39404 60.2217 8.52319 61.0626 9.16891C61.386 9.4272 61.7741 9.81464 61.9035 10.0084C61.9682 10.0729 61.9682 10.1375 61.9035 10.2021L61.7094 10.3958C61.6448 10.4604 61.5801 10.4604 61.5801 10.3958C61.386 10.2021 60.9979 9.87921 60.6745 9.55635C60.157 9.16891 59.8336 9.03977 59.5101 9.4272C59.3161 9.68549 59.3161 9.94378 59.5101 10.5895L59.7689 11.2998C60.0923 12.2038 60.0276 12.6558 59.6395 13.1078C59.1867 13.5598 58.4752 13.8827 57.4402 12.9787Z" fill="white"/>
<path d="M60.3517 15.7553C60.2224 15.6907 60.093 15.5616 60.0283 15.4324C59.5755 14.9804 59.5108 14.6576 60.0283 14.141L61.7748 12.4621L61.3867 11.9455C61.322 11.8809 61.322 11.8164 61.3867 11.7518L61.5161 11.6226C61.5808 11.5581 61.6455 11.5581 61.7101 11.6226L62.1629 12.0747L62.6804 11.6226C62.7451 11.5581 62.8098 11.5581 62.8745 11.6226L63.1979 11.8164C63.2626 11.8809 63.2626 11.9455 63.1979 11.9455L62.6804 12.4621L63.1979 12.9787C63.2626 13.0432 63.2626 13.1078 63.1979 13.1724L63.0038 13.3661C62.9392 13.4307 62.8745 13.4307 62.8098 13.3661L62.2923 12.8495L60.5458 14.5284C60.2871 14.7867 60.2871 14.9158 60.4811 15.1096L60.7399 15.3678C60.8045 15.4324 60.8045 15.497 60.7399 15.5616L60.5458 15.7553C60.4811 15.8199 60.4164 15.8199 60.3517 15.7553Z" fill="white"/>
<path d="M62.4209 18.1452L62.2268 17.8869C62.1621 17.8223 62.1621 17.7577 62.2268 17.6932L62.3562 17.6286C61.9681 17.4994 61.6447 17.3057 61.3859 16.9829C60.9978 16.5309 60.8684 15.9497 61.5153 15.3686L61.58 15.304C62.1621 14.852 62.7443 14.9165 63.5205 15.8851L63.844 16.2726L64.038 16.0789C64.4908 15.6914 64.4908 15.4331 64.1674 14.9811C63.9087 14.6583 63.6499 14.4 63.4559 14.2063C63.3912 14.1417 63.3912 14.0771 63.4559 14.0125L63.6499 13.8834C63.7146 13.8188 63.7793 13.8188 63.844 13.8834C64.038 14.0771 64.2968 14.2708 64.6202 14.6583C65.2024 15.4331 65.073 16.0143 64.4908 16.5309L62.615 18.0806C62.5503 18.2097 62.4209 18.2097 62.4209 18.1452ZM63.5205 16.5954L63.1971 16.208C62.6796 15.5623 62.3562 15.4977 61.9681 15.8206L61.9034 15.8851C61.5153 16.208 61.58 16.4663 61.8387 16.7892C62.0328 17.0474 62.2915 17.1766 62.6796 17.3703L63.5205 16.5954Z" fill="white"/>
<path d="M64.4264 21.1793L64.2324 20.921C64.1677 20.8564 64.2324 20.7918 64.2971 20.7273L66.2376 19.5004C66.8198 19.113 66.8845 18.7901 66.561 18.3381C66.4317 18.0798 66.1082 17.8861 65.8495 17.6924L63.3915 19.3067C63.3268 19.3712 63.2621 19.3067 63.1974 19.2421L63.0034 18.9838C62.9387 18.9192 63.0034 18.8547 63.068 18.7901L66.0436 16.8529C66.1082 16.7883 66.1729 16.8529 66.2376 16.9175L66.4317 17.1758C66.4964 17.2404 66.4317 17.3049 66.367 17.3695L66.2376 17.4341C66.6257 17.6278 66.8845 17.8215 67.0785 18.2089C67.5313 18.9192 67.2726 19.5004 66.4964 20.017L64.5558 21.2438C64.5558 21.2438 64.4911 21.2438 64.4264 21.1793Z" fill="white"/>
<path d="M66.1081 24.2793C65.8493 23.9564 65.5906 23.569 65.4612 23.1816C65.0084 22.2776 65.3965 21.5027 66.3021 21.0507L66.7549 20.857C67.7252 20.3404 68.5014 20.5341 68.9542 21.4381C69.0836 21.6318 69.1483 21.9547 69.2776 22.213L70.442 21.6318C70.5067 21.6318 70.5713 21.6318 70.636 21.6964L70.7654 22.0193C70.7654 22.0838 70.7654 22.1484 70.7007 22.213L66.3668 24.4084C66.2374 24.4084 66.1727 24.4084 66.1081 24.2793ZM68.8248 22.4713C68.7602 22.2776 68.6308 21.8901 68.5014 21.6964C68.178 21.1153 67.7252 21.0507 67.0783 21.4381L66.6255 21.6318C65.9787 21.9547 65.6553 22.3421 65.9787 22.9879C66.1081 23.1816 66.2374 23.5044 66.3668 23.6982L68.8248 22.4713Z" fill="white"/>
<path d="M67.3371 27.5078L67.2077 27.1849C67.2077 27.1203 67.2077 27.0558 67.2724 26.9912L67.4018 26.9266C67.0783 26.6683 66.8196 26.41 66.6902 26.0226C66.4962 25.4415 66.5609 24.8603 67.3371 24.5374H67.4018C68.1133 24.2792 68.6308 24.5374 69.0189 25.6997L69.213 26.1518L69.4717 26.0226C69.9892 25.8289 70.1186 25.5706 69.9245 25.054C69.7951 24.602 69.6011 24.3437 69.4717 24.0854C69.4717 24.0854 69.4717 24.0854 69.4717 24.0209C69.4717 23.9563 69.4717 23.8917 69.5364 23.8917L69.7951 23.8271C69.8598 23.8271 69.9245 23.8271 69.9892 23.8917C70.1186 24.15 70.3126 24.4083 70.442 24.8603C70.7654 25.7643 70.442 26.2809 69.6658 26.6038L67.4018 27.4432C67.4018 27.6369 67.3371 27.5723 67.3371 27.5078ZM68.8895 26.4746L68.6955 26.0226C68.372 25.2477 68.178 25.1186 67.6605 25.2477H67.5958C67.143 25.4415 67.0783 25.6997 67.2077 26.0872C67.3371 26.41 67.5311 26.6038 67.7899 26.862L68.8895 26.4746Z" fill="white"/>
<path d="M71.2178 28.9933C71.1532 28.6705 70.9591 28.4122 70.7004 28.1539L67.9189 28.9288C67.8542 28.9288 67.7895 28.9288 67.7248 28.7996L67.6602 28.4768C67.6602 28.4122 67.6602 28.3476 67.7895 28.283L71.2178 27.3145C71.2825 27.3145 71.3472 27.3145 71.4119 27.379L71.4766 27.7019C71.4766 27.7665 71.4766 27.831 71.3472 27.8956L71.2178 27.9602C71.5413 28.2185 71.7353 28.5413 71.8 28.7996C71.8 28.8642 71.8 28.9288 71.7353 28.9933L71.4766 29.0579C71.2825 29.1225 71.2178 29.1225 71.2178 28.9933Z" fill="white"/>
<path d="M68.6964 32.9321C68.567 32.5447 68.4377 32.0926 68.373 31.7052C68.1789 30.672 68.7611 30.0909 69.7961 29.8972L70.3135 29.8326C71.4132 29.6389 72.06 30.0263 72.2541 30.9949C72.3188 31.1886 72.3188 31.5115 72.3188 31.8344L73.6125 31.5761C73.6772 31.5761 73.7419 31.5761 73.7419 31.7052L73.8065 32.0281C73.8065 32.0926 73.8066 32.1572 73.6772 32.1572L68.8905 33.0612C68.7611 33.0612 68.6964 33.0612 68.6964 32.9321ZM71.7366 31.8989C71.7366 31.6406 71.6719 31.3178 71.6072 31.0595C71.4779 30.4138 71.0251 30.22 70.3135 30.4138L69.7961 30.4783C69.0198 30.6075 68.6964 30.9303 68.8258 31.5761C68.8905 31.8344 68.9551 32.1572 69.0198 32.3509L71.7366 31.8989Z" fill="white"/>
<path d="M68.76 34.4168L68.6953 34.094C68.6953 34.0294 68.76 33.9648 68.8247 33.9648L72.3824 33.5774C72.4471 33.5774 72.5117 33.642 72.5117 33.7065L72.5764 34.0294C72.5764 34.094 72.5117 34.1585 72.4471 34.1585L68.9541 34.546C68.8247 34.546 68.76 34.4814 68.76 34.4168ZM73.1586 33.9648L73.0939 33.642C73.0939 33.5774 73.1586 33.5128 73.2233 33.5128L73.8055 33.4482C73.8701 33.4482 73.9348 33.5128 73.9348 33.5774L73.9995 33.9002C73.9995 33.9648 73.9348 34.0294 73.8701 34.0294L73.288 34.094C73.2233 34.094 73.1586 34.0294 73.1586 33.9648Z" fill="white"/>
<path d="M68.9553 37.8396L68.8906 35.7733C68.8906 35.4504 69.0847 35.3213 69.2787 35.3213H69.4081C69.6022 35.3213 69.7315 35.3859 69.8609 35.4504L72.1249 37.1939H72.1896C72.1896 37.1939 72.2543 37.1939 72.2543 37.1293L72.1896 35.4504C72.1896 35.3859 72.2543 35.3213 72.3189 35.3213H72.5777C72.6424 35.3213 72.7071 35.3859 72.7071 35.4504L72.7717 37.5168C72.7717 37.775 72.6424 37.9042 72.4483 37.9042H72.2543C72.1249 37.9042 71.9955 37.8396 71.8661 37.775L69.5375 36.0316L69.4728 35.967C69.4728 35.967 69.4081 35.967 69.4081 36.0316L69.4728 37.8396C69.4728 37.9042 69.4081 37.9688 69.3434 37.9688H69.0847C69.02 37.9688 68.9553 37.9042 68.9553 37.8396Z" fill="white"/>
<path d="M68.7598 41.1323V40.8094C68.7598 40.7449 68.8244 40.6803 68.8891 40.6803H69.0185C68.8244 40.3574 68.7598 39.97 68.7598 39.5826C68.8245 39.0014 69.0832 38.4848 69.9888 38.5494H70.0535C70.8297 38.614 71.1531 39.066 71.0884 40.2929L71.0237 40.8094H71.2825C71.8646 40.874 72.0587 40.6803 72.1234 40.0992C72.1881 39.6471 72.1234 39.3243 72.1234 39.066C72.1234 39.066 72.1234 39.066 72.1234 39.0014C72.1234 38.9369 72.1234 38.8723 72.2528 38.8723H72.5115C72.5762 38.8723 72.6409 38.9369 72.6409 39.0014C72.6409 39.2597 72.7056 39.5826 72.6409 40.0992C72.5762 41.0677 72.0587 41.3906 71.2178 41.326L68.8244 41.1323C68.8244 41.2615 68.7598 41.1969 68.7598 41.1323ZM70.6356 40.8094L70.7003 40.2929C70.765 39.4534 70.5709 39.1951 70.1182 39.1951H70.0535C69.536 39.1306 69.4066 39.3889 69.4066 39.7763C69.4066 40.0992 69.4713 40.3574 69.6007 40.7449L70.6356 40.8094Z" fill="white"/>
<path d="M68.3086 43.7159C68.3086 43.5867 68.3086 43.393 68.3733 43.2639C68.5026 42.6181 68.6967 42.3599 69.4729 42.489L71.8663 42.8764L72.0603 42.2307C72.0603 42.1661 72.125 42.1016 72.1897 42.1016H72.3838C72.4485 42.1016 72.5131 42.1661 72.5131 42.2307L72.3838 42.8764L73.0306 43.0056C73.0953 43.0056 73.16 43.0702 73.16 43.1347V43.5222C73.16 43.5867 73.0953 43.5867 73.0306 43.5867L72.2544 43.4576L72.125 44.1679C72.125 44.2325 72.0603 44.297 71.9957 44.297L71.7369 44.2325C71.6722 44.2325 71.6075 44.1679 71.6075 44.1033L71.7369 43.393L69.3436 43.0056C68.9554 42.941 68.8908 43.0056 68.8261 43.3284L68.7614 43.7159C68.7614 43.845 68.6967 43.845 68.632 43.845L68.3733 43.7805C68.3733 43.845 68.3086 43.845 68.3086 43.7159Z" fill="white"/>
<path d="M68.1133 44.9422L68.178 44.6194C68.178 44.5548 68.2426 44.4902 68.372 44.4902L71.865 45.2651C71.9297 45.2651 71.9944 45.3297 71.9944 45.4588L71.9297 45.7817C71.9297 45.8463 71.865 45.9108 71.7356 45.9108L68.2426 45.136C68.1133 45.0714 68.0486 45.0068 68.1133 44.9422ZM72.4472 45.9108L72.5119 45.588C72.5119 45.5234 72.5766 45.4588 72.7059 45.4588L73.2234 45.588C73.2881 45.588 73.3528 45.6525 73.3528 45.7817L73.2881 46.1045C73.2881 46.1691 73.2234 46.2337 73.094 46.2337L72.5766 46.1045C72.4472 46.04 72.3825 45.9754 72.4472 45.9108Z" fill="white"/>
<path d="M67.4662 47.2029C67.7896 46.2344 68.5658 45.9115 69.5361 46.2344L70.0536 46.3635C71.0239 46.6864 71.5413 47.3321 71.2179 48.3007C70.8945 49.2693 70.1183 49.5921 69.148 49.2693L68.6305 49.1401C67.5955 48.8818 67.1428 48.1715 67.4662 47.2029ZM69.2774 48.7527C69.9242 48.9464 70.4417 48.8173 70.6358 48.1715C70.8298 47.5258 70.5064 47.1384 69.7948 46.9447L69.2774 46.8155C68.6305 46.6218 68.113 46.7509 67.919 47.3321C67.7249 47.9778 68.0483 48.3652 68.7599 48.559L69.2774 48.7527Z" fill="white"/>
<path d="M65.6562 51.8513L65.7856 51.5285C65.7856 51.4639 65.915 51.3993 65.9797 51.4639L68.0496 52.3679C68.6965 52.6262 68.9552 52.4971 69.2139 52.0451C69.3433 51.7868 69.3433 51.4639 69.3433 51.0765L66.6265 49.9142C66.5618 49.9142 66.4972 49.785 66.5618 49.7204L66.6912 49.3976C66.6912 49.333 66.8206 49.333 66.8853 49.333L70.1195 50.7536C70.1842 50.7536 70.2489 50.8827 70.1842 50.9473L70.0549 51.2702C70.0549 51.3348 69.9255 51.3993 69.8608 51.3348L69.7314 51.2702C69.7961 51.7222 69.7314 52.045 69.6021 52.4325C69.2786 53.2074 68.6318 53.3365 67.7909 52.9491L65.7209 52.0451C65.6562 51.9805 65.6562 51.9159 65.6562 51.8513Z" fill="white"/>
<path d="M28.5921 73.9998C27.8159 73.9998 27.2337 73.9353 26.8456 73.8061C26.7162 73.7415 26.6516 73.7415 26.6516 73.6124V72.8375C26.6516 72.7084 26.7162 72.6438 26.7809 72.6438C26.7809 72.6438 26.7809 72.6438 26.8456 72.6438C27.2984 72.7084 27.9453 72.773 28.4627 72.773C29.239 72.773 29.5624 72.4501 29.5624 71.4815V71.4169C29.3036 71.4815 28.9155 71.5461 28.5274 71.5461C27.3631 71.5461 26.3281 71.0295 26.3281 69.5443V69.4798C26.3281 68.1237 27.169 67.2197 28.6568 67.2197C30.0799 67.2197 31.0502 68.0592 31.0502 69.8026V71.1586C31.0502 73.1604 30.0799 73.9998 28.5921 73.9998ZM29.5624 69.8026C29.5624 68.5757 29.1743 68.382 28.6568 68.382C28.1393 68.382 27.8159 68.6403 27.8159 69.4798V69.5443C27.8159 70.2546 28.2687 70.4483 28.7862 70.4483C29.0449 70.4483 29.3683 70.3838 29.5624 70.3838V69.8026Z" fill="white"/>
<path d="M34.284 73.9997C32.7962 73.9997 31.8906 73.1603 31.8906 71.0294V70.2545C31.8906 68.1236 32.7962 67.2842 34.284 67.2842C35.7717 67.2842 36.6773 68.1236 36.6773 70.2545V71.0294C36.6773 73.0957 35.7717 73.9997 34.284 73.9997ZM35.1896 70.2545C35.1896 68.8339 34.8015 68.5111 34.284 68.5111C33.7665 68.5111 33.4431 68.8339 33.4431 70.2545V71.0294C33.4431 72.45 33.8312 72.7728 34.284 72.7728C34.8015 72.7728 35.1896 72.45 35.1896 71.0294V70.2545Z" fill="white"/>
<path d="M39.9109 73.9997C38.4232 73.9997 37.5176 73.1603 37.5176 71.0294V70.2545C37.5176 68.1236 38.4232 67.2842 39.9109 67.2842C41.3987 67.2842 42.3043 68.1236 42.3043 70.2545V71.0294C42.3043 73.0957 41.4634 73.9997 39.9109 73.9997ZM40.8165 70.2545C40.8165 68.8339 40.4284 68.5111 39.9109 68.5111C39.3935 68.5111 39.07 68.8339 39.07 70.2545V71.0294C39.07 72.45 39.4581 72.7728 39.9109 72.7728C40.4284 72.7728 40.8165 72.45 40.8165 71.0294V70.2545Z" fill="white"/>
<path d="M44.9565 72.6438V68.834L43.7922 69.3506C43.7275 69.3506 43.7275 69.3506 43.6628 69.3506C43.5981 69.3506 43.5334 69.286 43.5334 69.2215V68.1883C43.5334 68.1237 43.5334 68.0592 43.5981 68.0592L45.2153 67.2843C45.2799 67.2843 45.3446 67.2197 45.4093 67.2197H46.1855C46.3149 67.2197 46.3796 67.2843 46.3796 67.4134V72.5792H47.5439C47.6733 72.5792 47.738 72.6438 47.738 72.7729V73.677C47.738 73.8061 47.6733 73.8707 47.5439 73.8707H43.6628C43.5334 73.8707 43.4688 73.8061 43.4688 73.677V72.7729C43.4688 72.6438 43.5334 72.5792 43.6628 72.5792H44.9565V72.6438Z" fill="white"/>
</g>
<defs>
<clipPath id="clip0">
<rect width="74" height="74" fill="white"/>
</clipPath>
</defs>
</svg>
