<svg width="23" height="23" viewBox="0 0 23 23" fill="none" xmlns="http://www.w3.org/2000/svg">
<path d="M11.5015 23.0005C17.8525 23.0005 23.001 17.852 23.001 11.501C23.001 5.14994 17.8525 0.00143433 11.5015 0.00143433C5.15046 0.00143433 0.00195312 5.14994 0.00195312 11.501C0.00195312 17.852 5.15046 23.0005 11.5015 23.0005Z" fill="#5EB0FB"/>
<path d="M11.7333 13.6154C13.6479 13.6154 15.2 12.0484 15.2 10.1154C15.2 8.18239 13.6479 6.61538 11.7333 6.61538C9.81875 6.61538 8.26667 8.18239 8.26667 10.1154C8.26667 12.0484 9.81875 13.6154 11.7333 13.6154Z" fill="#FFE15A"/>
<path d="M12 5.80767C12 5.95635 11.8806 6.07692 11.7333 6.07692C11.5861 6.07692 11.4667 5.95635 11.4667 5.80767C11.4667 5.659 11.7333 5 11.7333 5C11.7333 5 12 5.659 12 5.80767Z" fill="#FFE15A"/>
<path d="M11.4667 14.4231C11.4667 14.2744 11.5861 14.1538 11.7333 14.1538C11.8806 14.1538 12 14.2744 12 14.4231C12 14.5718 11.7333 15.2308 11.7333 15.2308C11.7333 15.2308 11.4667 14.5718 11.4667 14.4231Z" fill="#FFE15A"/>
<path d="M16 10.3846C15.8528 10.3846 15.7333 10.264 15.7333 10.1154C15.7333 9.96672 15.8528 9.84615 16 9.84615C16.1473 9.84615 16.8 10.1154 16.8 10.1154C16.8 10.1154 16.1473 10.3846 16 10.3846Z" fill="#FFE15A"/>
<path d="M7.46665 9.84615C7.61391 9.84615 7.73333 9.96672 7.73333 10.1154C7.73333 10.264 7.61391 10.3846 7.46665 10.3846C7.31939 10.3846 6.66667 10.1154 6.66667 10.1154C6.66667 10.1154 7.31939 9.84615 7.46665 9.84615Z" fill="#FFE15A"/>
<path d="M14.9584 7.10332C14.8917 7.17069 14.7835 7.17069 14.7167 7.10332C14.65 7.03595 14.65 6.92677 14.7167 6.85935C14.7835 6.79193 15.2 6.61538 15.2 6.61538C15.2 6.61538 15.0252 7.03595 14.9584 7.10332Z" fill="#FFE15A"/>
<path d="M8.50827 13.1275C8.57501 13.0601 8.68315 13.0601 8.74993 13.1275C8.81671 13.1948 8.81666 13.304 8.74993 13.3714C8.6832 13.4389 8.26667 13.6154 8.26667 13.6154C8.26667 13.6154 8.44154 13.1949 8.50827 13.1275Z" fill="#FFE15A"/>
<path d="M14.7167 13.3715C14.65 13.3041 14.65 13.1949 14.7167 13.1275C14.7834 13.06 14.8916 13.0601 14.9584 13.1275C15.0251 13.1948 15.2 13.6154 15.2 13.6154C15.2 13.6154 14.7834 13.4388 14.7167 13.3715Z" fill="#FFE15A"/>
<path d="M8.74995 6.85932C8.81668 6.92669 8.81668 7.03587 8.74995 7.1033C8.68322 7.17072 8.57509 7.17067 8.50831 7.1033C8.44153 7.03592 8.26667 6.61538 8.26667 6.61538C8.26667 6.61538 8.68322 6.79199 8.74995 6.85932Z" fill="#FFE15A"/>
<path d="M10.381 5.87953C10.4335 5.95239 10.3733 6.03585 10.2466 6.06602C10.1199 6.09619 9.9748 6.0616 9.92233 5.98874C9.86986 5.91587 9.86667 5.53846 9.86667 5.53846C9.86667 5.53846 10.3286 5.80666 10.381 5.87953Z" fill="#FFE15A"/>
<path d="M13.0856 14.3512C13.0332 14.2784 13.0933 14.1949 13.22 14.1647C13.3467 14.1346 13.4919 14.1692 13.5443 14.242C13.5968 14.3149 13.6 14.6923 13.6 14.6923C13.6 14.6923 13.138 14.4241 13.0856 14.3512Z" fill="#FFE15A"/>
<path d="M16.1244 8.75009C15.9801 8.80306 15.8147 8.74232 15.7549 8.6144C15.6952 8.48647 15.7637 8.33994 15.908 8.28697C16.0524 8.23399 16.8 8.23077 16.8 8.23077C16.8 8.23077 16.2687 8.69704 16.1244 8.75009Z" fill="#FFE15A"/>
<path d="M7.87563 11.4807C8.01997 11.4277 8.1853 11.4884 8.24507 11.6164C8.30484 11.7443 8.23631 11.8908 8.09197 11.9438C7.94764 11.9968 7.2 12 7.2 12C7.2 12 7.7313 11.5337 7.87563 11.4807Z" fill="#FFE15A"/>
<path d="M13.5444 5.98874C13.4919 6.06161 13.3467 6.09617 13.22 6.06604C13.0933 6.03586 13.0332 5.95235 13.0856 5.87952C13.1381 5.80669 13.6 5.53846 13.6 5.53846C13.6 5.53846 13.5969 5.91591 13.5444 5.98874Z" fill="#FFE15A"/>
<path d="M9.92227 14.242C9.97474 14.1692 10.12 14.1346 10.2466 14.1647C10.3734 14.1949 10.4335 14.2784 10.3811 14.3512C10.3286 14.4241 9.86667 14.6923 9.86667 14.6923C9.86667 14.6923 9.86979 14.3149 9.92227 14.242Z" fill="#FFE15A"/>
<path d="M15.908 11.9439C15.7637 11.8909 15.6952 11.7442 15.7549 11.6164C15.8147 11.4884 15.9801 11.4277 16.1244 11.4807C16.2686 11.5336 16.8 12 16.8 12C16.8 12 16.0522 11.9969 15.908 11.9439Z" fill="#FFE15A"/>
<path d="M8.09199 8.2869C8.23634 8.33989 8.30479 8.48653 8.2451 8.61441C8.18533 8.74228 8.01989 8.80304 7.87562 8.75013C7.73136 8.69714 7.2 8.23077 7.2 8.23077C7.2 8.23077 7.9478 8.23385 8.09199 8.2869Z" fill="#FFE15A"/>
<path d="M11.4615 5.75045C11.4903 5.89841 11.3963 6.04222 11.2515 6.07161C11.1068 6.10108 10.9661 6.00501 10.9374 5.85697C10.9086 5.709 11.0431 5 11.0431 5C11.0431 5 11.4326 5.60248 11.4615 5.75045Z" fill="#FFE15A"/>
<path d="M12.5385 14.4803C12.5097 14.3324 12.6037 14.1885 12.7485 14.1592C12.8933 14.1297 13.0339 14.2258 13.0626 14.3738C13.0914 14.5218 12.9569 15.2308 12.9569 15.2308C12.9569 15.2308 12.5673 14.6283 12.5385 14.4803Z" fill="#FFE15A"/>
<path d="M16.0567 9.30245C15.9101 9.33154 15.7677 9.23668 15.7386 9.09048C15.7094 8.94428 15.8046 8.80234 15.9512 8.77332C16.0977 8.74422 16.8 8.88001 16.8 8.88001C16.8 8.88001 16.2033 9.27343 16.0567 9.30245Z" fill="#FFE15A"/>
<path d="M7.40997 10.9283C7.55652 10.8992 7.69897 10.9941 7.72807 11.1403C7.75726 11.2865 7.66211 11.4284 7.51547 11.4575C7.36892 11.4865 6.66667 11.3508 6.66667 11.3508C6.66667 11.3508 7.26341 10.9573 7.40997 10.9283Z" fill="#FFE15A"/>
<path d="M14.4996 6.47842C14.4383 6.61995 14.3141 6.65797 14.2222 6.56338C14.1304 6.46878 14.1057 6.27744 14.1671 6.13592C14.2284 5.99439 14.6667 5.53846 14.6667 5.53846C14.6667 5.53846 14.561 6.33681 14.4996 6.47842Z" fill="#FFE15A"/>
<path d="M9.13407 13.6839C9.25673 13.6131 9.5052 13.5941 9.6889 13.6414C9.87259 13.6886 9.92194 13.7844 9.79916 13.8551C9.6765 13.9259 8.8 14.1538 8.8 14.1538C8.8 14.1538 9.01141 13.7547 9.13407 13.6839Z" fill="#FFE15A"/>
<path d="M15.3357 12.9083C15.1955 12.8464 15.1578 12.7209 15.2515 12.6282C15.3452 12.5355 15.5347 12.5106 15.6749 12.5725C15.8151 12.6345 16.2667 13.0769 16.2667 13.0769C16.2667 13.0769 15.4758 12.9702 15.3357 12.9083Z" fill="#FFE15A"/>
<path d="M8.19884 7.32249C8.26893 7.3844 8.28776 7.50984 8.24091 7.60257C8.19411 7.6953 8.0993 7.72021 8.02922 7.65823C7.95913 7.59625 7.73333 7.15385 7.73333 7.15385C7.73333 7.15385 8.12879 7.26057 8.19884 7.32249Z" fill="#FFE15A"/>
<path d="M9.79924 6.13589C9.92191 6.27743 9.87256 6.46879 9.68896 6.56339C9.50537 6.65799 9.25688 6.61988 9.13409 6.47843C9.01142 6.33689 8.8 5.53846 8.8 5.53846C8.8 5.53846 9.67657 5.99444 9.79924 6.13589Z" fill="#FFE15A"/>
<path d="M14.167 13.8551C14.1057 13.7843 14.1304 13.6887 14.2222 13.6414C14.314 13.5941 14.4382 13.6131 14.4996 13.6838C14.561 13.7546 14.6667 14.1538 14.6667 14.1538C14.6667 14.1538 14.2284 13.9259 14.167 13.8551Z" fill="#FFE15A"/>
<path d="M15.6749 7.65827C15.5347 7.72019 15.3452 7.69528 15.2515 7.6026C15.1578 7.50986 15.1955 7.38448 15.3356 7.3225C15.4758 7.26057 16.2667 7.15385 16.2667 7.15385C16.2667 7.15385 15.8151 7.59634 15.6749 7.65827Z" fill="#FFE15A"/>
<path d="M8.02921 12.5725C8.09931 12.5106 8.19409 12.5355 8.24094 12.6282C8.28774 12.7209 8.26891 12.8463 8.19886 12.9083C8.12876 12.9702 7.73333 13.0769 7.73333 13.0769C7.73333 13.0769 7.95911 12.6344 8.02921 12.5725Z" fill="#FFE15A"/>
<path d="M13.0626 5.85697C13.0338 6.00494 12.8932 6.10108 12.7485 6.07161C12.6037 6.04215 12.5097 5.89841 12.5385 5.75045C12.5674 5.60248 12.957 5 12.957 5C12.957 5 13.0914 5.70901 13.0626 5.85697Z" fill="#FFE15A"/>
<path d="M10.9374 14.3738C10.9662 14.2258 11.1068 14.1297 11.2515 14.1592C11.3963 14.1886 11.4903 14.3324 11.4615 14.4803C11.4327 14.6283 11.043 15.2308 11.043 15.2308C11.043 15.2308 10.9086 14.5218 10.9374 14.3738Z" fill="#FFE15A"/>
<path d="M15.9512 11.4575C15.8046 11.4284 15.7094 11.2864 15.7386 11.1403C15.7678 10.9942 15.9101 10.8992 16.0567 10.9283C16.2033 10.9574 16.8 11.3508 16.8 11.3508C16.8 11.3508 16.0977 11.4865 15.9512 11.4575Z" fill="#FFE15A"/>
<path d="M7.51548 8.7733C7.66203 8.8024 7.75726 8.94435 7.72807 9.09047C7.69889 9.2366 7.55653 9.33155 7.40997 9.30245C7.26341 9.27335 6.66667 8.88 6.66667 8.88C6.66667 8.88 7.36892 8.74428 7.51548 8.7733Z" fill="#FFE15A"/>
<path d="M19.8799 10.8084C19.7802 10.7656 19.6664 10.8146 19.6248 10.9156C19.6241 10.9175 19.6202 10.9273 19.6136 10.9432C19.4662 11.2943 19.1612 11.8075 18.8532 12.2902C19.1401 11.3487 19.4023 10.3431 19.4206 10.2724C19.448 10.1668 19.3867 10.0584 19.2832 10.0298C19.1797 10.0014 19.0732 10.0628 19.0442 10.168C18.9103 10.657 18.6366 11.3006 18.384 11.8454C18.4303 11.2379 18.439 10.6752 18.4396 10.6344C18.4412 10.5268 18.3585 10.4379 18.253 10.4328C18.1537 10.4359 18.058 10.5097 18.0502 10.6172C17.8004 14.1197 14.4948 15.6865 14.173 15.8307C14.0046 15.8478 13.2202 15.9379 12.5083 16.1899C12.4276 16.2185 12.3589 16.2472 12.2904 16.2756C12.265 16.2659 12.2377 16.2604 12.209 16.2621C10.0239 16.4233 8.28171 15.5094 7.02954 13.5516C6.08348 12.0722 5.78677 10.5194 5.78386 10.5039C5.76387 10.3959 5.66246 10.3263 5.55612 10.3454C5.45023 10.366 5.38066 10.4697 5.40072 10.5776C5.40862 10.6205 5.53882 11.2983 5.89735 12.1903C5.41765 11.4183 5.08335 10.483 4.96568 9.99585C4.9633 9.98612 4.95718 9.97874 4.9536 9.96977C4.94808 9.95601 4.94346 9.94217 4.93533 9.93023C4.92959 9.9218 4.92206 9.91564 4.91527 9.90826C4.90461 9.89678 4.89439 9.88553 4.88134 9.87694C4.87389 9.872 4.86554 9.86956 4.85741 9.86569C4.84302 9.85884 4.82892 9.85208 4.81289 9.84896C4.80178 9.84676 4.79045 9.8482 4.77889 9.84797C4.76718 9.84782 4.75614 9.84478 4.74414 9.84691C4.74153 9.84736 4.73951 9.84919 4.7369 9.8498C4.73437 9.85033 4.73198 9.84949 4.72945 9.85003C4.71901 9.85261 4.71103 9.8593 4.70148 9.86348C4.68933 9.86888 4.67688 9.87291 4.66621 9.88044C4.6557 9.88781 4.64787 9.89739 4.63914 9.90659C4.63042 9.91571 4.62132 9.92377 4.61446 9.93434C4.60753 9.94506 4.6038 9.95715 4.59888 9.96909C4.59418 9.98072 4.58873 9.99167 4.58627 10.0042C4.58374 10.0171 4.58486 10.0303 4.58493 10.0437C4.58493 10.0545 4.58202 10.0647 4.58389 10.0757C4.58463 10.0804 4.58612 10.0851 4.58694 10.0897V10.0904C4.58717 10.0913 4.58747 10.0924 4.58769 10.0933C4.70834 10.8181 4.99588 11.5694 5.25591 12.1424C4.84302 11.6647 4.49798 11.1143 4.37569 10.7884C4.37218 10.7789 4.3651 10.7723 4.36033 10.7637C4.35309 10.7506 4.34676 10.7371 4.33699 10.7263C4.33005 10.7185 4.32163 10.7135 4.31372 10.707C4.30187 10.6973 4.29061 10.6875 4.27688 10.6808C4.26809 10.6765 4.25854 10.6752 4.24922 10.6722C4.23483 10.6678 4.22088 10.6629 4.2056 10.6619C4.19359 10.6611 4.18166 10.6642 4.1695 10.6658C4.15824 10.6673 4.14713 10.6658 4.13595 10.6694C4.13379 10.6701 4.1323 10.6718 4.13028 10.6726C4.12819 10.6733 4.12611 10.6728 4.12402 10.6736C4.11343 10.6777 4.1059 10.6857 4.09643 10.6914C4.08532 10.6981 4.07346 10.7037 4.06399 10.7123C4.0543 10.7212 4.04758 10.7323 4.03998 10.7428C4.03274 10.7528 4.02469 10.7617 4.01932 10.7728C4.01373 10.7844 4.01164 10.797 4.00844 10.8096C4.00523 10.8218 4.00098 10.8332 4.00016 10.8461C3.99926 10.8589 4.00239 10.8718 4.00404 10.8848C4.00545 10.896 4.00396 10.9072 4.00739 10.9183C4.21962 11.6162 4.72997 12.4466 5.12981 13.0316C4.79663 12.7698 4.55175 12.4867 4.48068 12.4012C4.473 12.392 4.46547 12.3826 4.45779 12.3733C4.38904 12.289 4.26756 12.277 4.18427 12.3457C4.10127 12.4149 4.08822 12.5392 4.15534 12.6242C4.15899 12.6289 4.17361 12.6475 4.19807 12.6766C4.49068 13.0316 4.80946 13.3629 5.09827 13.6426L4.7032 13.4709C4.61312 13.4313 4.50723 13.467 4.45794 13.5544C4.40857 13.6418 4.43087 13.7524 4.50991 13.813C4.54839 13.8421 5.248 14.375 5.85366 14.69C5.79654 14.6935 5.7295 14.6893 5.65448 14.6834C5.56291 14.6744 5.47283 14.7413 5.45053 14.836C5.42861 14.9311 5.47738 15.0283 5.56597 15.0655C5.58088 15.0718 5.76544 15.1494 5.99332 15.2321C5.94016 15.2542 5.89788 15.2997 5.88035 15.3587C5.8541 15.4469 5.89101 15.5424 5.96946 15.5882C5.98989 15.6003 6.26558 15.7615 6.60673 15.9043C6.59763 15.9187 6.59018 15.9342 6.58458 15.9513C6.55789 16.0348 6.58839 16.1265 6.65945 16.1766C6.71866 16.2181 8.04339 17.1347 9.59055 17.1347C9.69212 17.1347 9.79472 17.1308 9.89793 17.1223C10.0052 17.1137 10.0854 17.0179 10.0768 16.9083C10.0682 16.7987 9.97511 16.716 9.86676 16.7261C8.89482 16.807 7.95845 16.4349 7.40157 16.1505C7.47509 16.1322 7.51737 16.1155 7.52789 16.1113C7.61379 16.0756 7.66331 15.9835 7.64653 15.8907C7.62975 15.7979 7.5513 15.7299 7.45854 15.7279C7.23244 15.7232 6.91933 15.6109 6.64961 15.4905C6.75147 15.4385 6.81098 15.3887 6.8162 15.3845C6.87488 15.3344 6.89964 15.2544 6.87966 15.179C6.85952 15.1041 6.79808 15.0477 6.72276 15.0353C6.63991 15.0213 6.53664 14.9941 6.42851 14.9607C6.53365 14.899 6.5784 14.831 6.59555 14.7965C6.62262 14.7413 6.62321 14.6768 6.59726 14.6213C6.57116 14.5658 6.5215 14.5257 6.46237 14.5129C6.41136 14.5016 6.35357 14.4826 6.29115 14.4577C6.30256 14.4461 6.31308 14.4329 6.32158 14.4178C6.37124 14.3319 6.35074 14.2216 6.27363 14.1599C6.2696 14.1567 6.11823 14.0356 5.889 13.834C5.92539 13.8204 5.95753 13.7952 5.9808 13.761C6.02994 13.6888 6.02658 13.5921 5.97259 13.5237C5.96827 13.5182 5.81667 13.3239 5.60773 13.0287C5.6767 13.0833 5.7456 13.1391 5.81451 13.1843C5.84694 13.2052 5.88363 13.2157 5.92002 13.2157C5.96939 13.2157 6.01808 13.1967 6.05559 13.1598C6.07103 13.1446 6.08311 13.1271 6.09265 13.1085C6.21099 13.2373 6.3353 13.3543 6.46587 13.4542C6.48287 13.4672 6.50353 13.4669 6.52262 13.4735C6.57795 13.5681 6.63552 13.6628 6.69592 13.7575C7.8803 15.6155 9.55029 16.6107 11.5532 16.6705C11.3688 16.7847 11.1686 16.9027 10.8516 17.0286C10.7824 17.0561 10.7212 17.0836 10.6598 17.1112C10.6301 17.1171 10.6023 17.1281 10.5791 17.1469C10.0258 17.408 9.79674 17.6661 9.70382 17.8466C9.61106 18.026 9.69107 18.2101 9.80434 18.3056C9.83954 18.3351 9.88436 18.3503 9.92925 18.3503C9.96012 18.3503 9.99099 18.3433 10.019 18.3289C10.0879 18.2939 10.134 18.2197 10.131 18.1417C10.1389 18.1328 10.1729 18.1041 10.2791 18.1005C10.3566 18.0939 10.5197 18.1118 10.71 18.1273C10.891 18.1425 11.1082 18.1597 11.3391 18.1718C11.1946 18.3435 11.0268 18.5425 11.0268 18.5425C10.9763 18.6023 10.9652 18.6869 10.9988 18.758C11.0325 18.8295 11.1051 18.8738 11.1813 18.871C11.3354 18.8655 11.4401 18.8624 11.5089 18.8609C11.5688 18.941 11.6424 18.9728 11.6898 18.9852C11.824 19.0201 11.9577 18.9654 12.0584 18.9006C12.1346 18.9565 12.2108 18.9802 12.2712 18.9891C12.4073 19.0081 12.5334 18.9678 12.6246 18.9219C12.7191 18.9841 12.8117 19 12.8822 19C12.8832 19 12.8843 19 12.8854 19C13.0376 18.9992 13.1708 18.9243 13.265 18.8508C13.3483 18.9013 13.4278 18.9176 13.4893 18.9204C13.629 18.9254 13.7447 18.8707 13.8217 18.8194C14.0966 18.8756 14.3335 18.7436 14.4901 18.598C14.5615 18.6403 14.6294 18.6508 14.6836 18.6481C14.8228 18.643 14.9288 18.5568 14.9969 18.4795C15.3085 18.5179 15.5322 18.4593 15.6614 18.3028C15.7319 18.2177 15.7605 18.1219 15.7683 18.0344C16.6328 18.0294 16.711 17.5482 16.7174 17.4887C16.723 17.4346 16.7069 17.3807 16.6725 17.3392C16.6382 17.2977 16.5884 17.272 16.5354 17.2689L14.2687 17.1299C14.1739 17.1229 14.0893 17.1878 14.0673 17.2822C14.0668 17.2837 14.0282 17.4305 13.9073 17.5479C13.7446 17.7063 13.4826 17.7899 13.1977 17.8343C13.1987 17.8076 13.1951 17.7806 13.1851 17.7541C13.1462 17.6516 13.0331 17.6018 12.9329 17.6404C12.465 17.8255 11.7074 17.8022 11.1147 17.7602C11.2056 17.6845 11.315 17.6094 11.4025 17.5605C11.4764 17.519 11.5161 17.4339 11.5004 17.3493C11.4891 17.2878 11.4455 17.245 11.3928 17.2174C11.5576 17.1326 11.6927 17.0506 11.8209 16.9709C12.0434 16.832 12.2536 16.701 12.6365 16.5655C13.3755 16.3037 14.2307 16.2241 14.2393 16.2233C14.2587 16.2217 14.2778 16.2167 14.2958 16.2093C14.3262 16.1964 16.7386 15.1661 17.8751 12.7887C17.8602 12.8605 17.8442 12.9262 17.8268 12.9836C17.7971 13.0815 17.8451 13.186 17.9376 13.2255C18.0092 13.2563 18.0906 13.2403 18.1457 13.1883C18.0739 13.3813 18.0089 13.5332 17.9559 13.6229C17.9018 13.7142 17.9279 13.8326 18.015 13.8916C18.0354 13.9052 18.0572 13.9145 18.0797 13.92C17.9917 14.0513 17.9025 14.1755 17.8135 14.2893C17.7543 14.3651 17.7578 14.4731 17.8197 14.5446C17.6669 14.7076 17.5315 14.8421 17.4286 14.9275C17.3614 14.983 17.3395 15.0759 17.3704 15.1552C17.2711 15.213 17.1896 15.2538 17.1331 15.2713C17.0382 15.3004 16.98 15.3978 16.9979 15.4973C17.0072 15.5497 17.0362 15.594 17.0761 15.6231C16.9569 15.6557 16.8264 15.6872 16.6847 15.7159C16.6049 15.7321 16.5433 15.7971 16.5303 15.8789C16.5174 15.9609 16.5555 16.0425 16.626 16.0836C16.6321 16.0871 16.6987 16.1256 16.8007 16.1698C16.4234 16.3248 15.7498 16.5272 14.6443 16.6382C14.5372 16.6491 14.4587 16.7467 14.4694 16.8558C14.4798 16.9649 14.5725 17.0407 14.6827 17.0344C16.7813 16.8228 17.4293 16.2872 17.4558 16.2643C17.5163 16.2126 17.5403 16.1283 17.5163 16.0515C17.5004 16.0006 17.4653 15.9595 17.4203 15.9357C18.0907 15.7205 18.3786 15.4824 18.3936 15.4696C18.4671 15.4074 18.4856 15.2999 18.4372 15.2156C18.3885 15.1313 18.287 15.0948 18.1984 15.1313C18.1735 15.141 18.1337 15.151 18.0833 15.1612C18.5333 14.847 19.0109 14.4729 19.221 14.3059C19.2579 14.278 19.2914 14.2511 19.321 14.2259C19.4025 14.156 19.414 14.0324 19.3466 13.9482C19.2798 13.8643 19.158 13.8503 19.0746 13.9175C19.0442 13.942 19.0125 13.9672 18.9797 13.9932C18.8828 14.0667 18.7588 14.1497 18.6235 14.2351C19.1342 13.644 19.6483 13.0032 19.7951 12.8191C19.8084 12.8024 19.8216 12.7857 19.8349 12.769C19.9023 12.6835 19.8892 12.5585 19.8054 12.4897C19.7213 12.4199 19.5985 12.4342 19.5313 12.5192L19.5308 12.5197C19.5272 12.524 19.5105 12.5454 19.4827 12.5804C19.3289 12.7718 19.1669 12.9572 19.0071 13.1303C19.5273 12.1691 19.9212 11.2229 19.9789 11.0827C19.981 11.0777 19.9829 11.0726 19.985 11.0675C20.0263 10.9669 19.9793 10.8503 19.8799 10.8084ZM10.7384 17.5116L10.7916 17.5187C10.7263 17.5809 10.6732 17.6507 10.6309 17.7228C10.5383 17.7152 10.4543 17.7085 10.3884 17.7055C10.4792 17.6451 10.596 17.5795 10.7384 17.5116Z" fill="#FFE15A"/>
</svg>
