<svg width="156" height="37" viewBox="0 0 156 37" fill="none" xmlns="http://www.w3.org/2000/svg">
<path fill-rule="evenodd" clip-rule="evenodd" d="M38 36.8662H39.6837V29.1441H38V36.8662ZM44.3673 36.8662H46.051V30.7091H48.3776V29.1441H42.0306V30.7091H44.3571L44.3673 36.8662ZM58.4898 37C59.9694 37 60.8367 36.5367 61.6327 35.6821L60.5612 34.5187C59.9592 35.0746 59.4286 35.4247 58.551 35.4247C57.2347 35.4247 56.3265 34.323 56.3265 32.9949C56.3265 31.6461 57.2551 30.565 58.551 30.565C59.4286 30.565 59.9286 30.8842 60.5204 31.4299L61.5306 30.2561C60.8163 29.5457 60.0102 29 58.5714 29C56.2245 29 54.5816 30.8018 54.5816 32.9949C54.5714 35.2497 56.2347 37 58.4898 37ZM67.449 37C69.8061 37 71.5306 35.1982 71.5306 33.0051C71.5306 30.7915 69.8367 29.0103 67.4796 29.0103C65.1224 29.0103 63.398 30.8121 63.398 33.0051C63.398 35.2291 65.0918 37 67.449 37ZM67.4694 35.435C66.1122 35.435 65.1531 34.3333 65.1531 33.0051C65.1531 31.6564 66.0918 30.5753 67.449 30.5753C68.8061 30.5753 69.7653 31.677 69.7653 33.0051C69.7653 34.3539 68.8265 35.435 67.4694 35.435ZM74 36.8662H75.6531V31.8623L77.7857 35.1261H77.8265L79.9796 31.8314V36.8764H81.6531V29.1544H79.8367L77.8265 32.4183L75.8163 29.1544H74V36.8662ZM84.4694 36.8662H86.1531V34.5495H87.4286C89.1429 34.5495 90.5204 33.6229 90.5204 31.8314C90.5204 30.2355 89.4184 29.1441 87.5918 29.1441H84.4694V36.8662ZM86.1531 33.036V30.6783H87.4592C88.2959 30.6783 88.8265 31.0901 88.8265 31.852C88.8265 32.5315 88.3367 33.0463 87.4898 33.0463L86.1531 33.036ZM91.3367 36.8662H93.051L93.7551 35.1364H96.9898L97.6939 36.8662H99.449L96.1735 29.0927H94.6225L91.3367 36.8662ZM94.3469 33.6332L95.3674 31.1313L96.3878 33.6332H94.3469ZM101.602 36.8662H103.265V31.955L106.969 36.8662H108.398V29.1441H106.735V33.9009L103.153 29.1441H101.602V36.8662ZM113.378 36.8662H115.061V33.7876L118 29.1441H116.082L114.224 32.2432L112.398 29.1441H110.429L113.367 33.8185V36.8662H113.378Z" fill="white"/>
<path fill-rule="evenodd" clip-rule="evenodd" d="M7.0559 19.6341V7.62198L13.6702 19.6341H17.3573L23.9921 7.62198V19.6341H31.1404V0.366617H21.6299L15.7243 11.1869L9.92139 0.366617H0V19.6341H7.0559ZM42.9516 11.7097L46.0533 5.08156L49.2372 11.7097H42.9516ZM60.9354 19.6341L51.0346 0.366617H41.3186L31.9518 19.6341H39.2747L40.7229 16.5291H51.5481L53.0271 19.6341H60.9354ZM74.4926 13.6019L79.7819 19.6341H88.6557L80.0798 9.66059L88.2757 0.366617H79.6998L74.8623 6.03291L70.0557 0.366617H60.8224L69.2135 9.74422L60.5348 19.6341H69.234L74.4926 13.6019ZM89.6109 0.366617V19.6341H96.8106V0.366617H89.6109ZM118.718 19.4041C120.371 19.0068 121.655 18.5155 122.559 17.9405C123.411 17.4073 124.171 16.7278 124.788 15.9228C125.363 15.1596 125.743 14.4592 125.907 13.8528C126.071 13.2674 126.154 12.661 126.164 12.0546V11.6365H118.687C118.636 11.8247 118.584 12.0024 118.533 12.1592C118.41 12.4415 118.245 12.7028 118.05 12.9328C117.773 13.2987 117.424 13.6124 117.033 13.8424C116.623 14.0828 116.027 14.3023 115.226 14.501C114.312 14.7101 113.387 14.8146 112.453 14.7937C111.251 14.7937 110.214 14.6473 109.341 14.3546C108.468 14.0619 107.81 13.6646 107.358 13.1628C106.948 12.7237 106.619 12.201 106.393 11.6365C106.198 11.1138 106.095 10.5597 106.095 10.0056V9.69195C106.095 6.69154 108.211 5.1861 112.432 5.1861C116.006 5.1861 118.091 6.16882 118.666 8.13424H126.174V7.7997C126.174 7.39198 126.133 6.98426 126.061 6.58699C125.958 6.09563 125.794 5.62519 125.578 5.17565C125.322 4.64247 125.003 4.14066 124.623 3.69112C124.151 3.15794 123.607 2.6875 123.011 2.30068C122.271 1.81978 121.481 1.42251 120.649 1.11933C119.57 0.742976 118.471 0.481616 117.341 0.314345C115.904 0.0948025 114.455 -0.00974161 113.007 0.0007128H112.011C109.752 0.0007128 107.78 0.220256 106.095 0.659341C104.411 1.09843 103.106 1.64206 102.182 2.29023C101.289 2.90704 100.529 3.69112 99.9534 4.62156C99.3988 5.5311 99.029 6.357 98.875 7.12017C98.7106 7.92516 98.6285 8.7406 98.6285 9.55604V10.3088C98.6285 11.1242 98.7106 11.9396 98.8852 12.7446C99.0496 13.5183 99.4296 14.3651 100.005 15.2851C100.6 16.2155 101.371 17.0205 102.264 17.6582C103.199 18.3273 104.503 18.8814 106.167 19.3309C107.831 19.7805 109.782 20 112.011 20H113.007C115.154 20 117.064 19.8014 118.718 19.4041ZM136.455 0.356163C135.264 0.533888 134.103 0.837065 132.973 1.2657C132.09 1.60024 131.258 2.07069 130.498 2.63522C129.872 3.09522 129.307 3.6493 128.834 4.27657C128.434 4.83065 128.105 5.44746 127.869 6.08518C127.643 6.66017 127.479 7.25607 127.386 7.87288C127.304 8.42697 127.273 8.99151 127.273 9.55604V10.3297C127.273 10.8942 127.314 11.4587 127.386 12.0128C127.479 12.6296 127.643 13.236 127.869 13.811C128.105 14.4696 128.434 15.0864 128.834 15.651C129.307 16.2887 129.872 16.8532 130.498 17.3237C131.258 17.8987 132.09 18.3691 132.973 18.7246C134.103 19.1532 135.274 19.4668 136.455 19.6446C137.985 19.885 139.526 20.0105 141.077 19.9895H142.217C143.768 20 145.308 19.885 146.839 19.6446C148.215 19.4146 149.375 19.1009 150.31 18.7246C151.193 18.3796 152.025 17.9091 152.775 17.3237C153.412 16.8532 153.966 16.2887 154.439 15.651C154.839 15.0864 155.168 14.4696 155.404 13.811C155.63 13.2255 155.795 12.6296 155.887 12.0128C155.969 11.4587 156 10.8942 156 10.3297V9.55604C156 8.99151 155.959 8.42697 155.887 7.87288C155.795 7.25607 155.63 6.66017 155.404 6.08518C155.158 5.43701 154.829 4.83065 154.429 4.27657C153.946 3.6493 153.391 3.09522 152.765 2.63522C152.005 2.06023 151.183 1.60024 150.3 1.2657C149.17 0.84752 147.999 0.544342 146.818 0.356163C145.298 0.115711 143.768 0.000712641 142.227 0.0111671H141.087C139.526 0.000712641 137.975 0.115711 136.455 0.356163ZM148.215 11.7306C147.979 12.2951 147.629 12.7969 147.198 13.2151C146.726 13.696 146.007 14.0828 145.052 14.3651C144.096 14.6473 142.956 14.7937 141.631 14.7937C140.307 14.7937 139.166 14.6473 138.211 14.3546C137.256 14.0619 136.537 13.6646 136.065 13.1733C135.633 12.7446 135.284 12.2324 135.048 11.6678C134.843 11.1556 134.74 10.6015 134.74 10.0474V9.73377C134.719 8.58378 135.192 7.47562 136.034 6.70199C136.506 6.23154 137.225 5.86564 138.17 5.58337C139.115 5.31155 140.276 5.16519 141.631 5.16519C142.956 5.16519 144.096 5.3011 145.041 5.58337C145.986 5.85518 146.705 6.23154 147.188 6.70199C147.629 7.09926 147.979 7.59061 148.215 8.13424C148.42 8.63606 148.523 9.17969 148.523 9.72331V10.0892C148.523 10.6642 148.42 11.2078 148.215 11.7306Z" fill="white"/>
</svg>
