<svg width="156" height="40" viewBox="0 0 156 40" fill="none" xmlns="http://www.w3.org/2000/svg">
<path fill-rule="evenodd" clip-rule="evenodd" d="M22.5922 21.3942V15.3101H25.8186L26.7152 14.2386L33.4326 24.7041L37.7321 15.8532L35.0422 11.2002L36.027 9.14525L36.3871 4.49228L34.4175 1.4539L28.6849 2.2612L26.7961 0.375061H20.7989L19.6377 1.27043H18.8881H18.8366H18.087L16.9258 0.375061H10.9286L9.04717 2.25386L3.3146 1.44657L1.34495 4.48494L1.70507 9.13791L2.6899 11.1929L0 15.8458L4.29943 24.6967L11.0168 14.2312L11.9135 15.3027H15.1399V21.3868L18.4545 24.161V24.7848L13.8831 27.1113L13.1702 26.3994V23.1776L12.2736 22.4657V20.9465L14.0668 20.4107L13.082 19.2512H12.009L10.3995 17.1081L5.20341 25.6949L11.7444 35.4412H13.0012L17.8371 39.3749H18.8587H18.9101H19.9317L24.7382 35.4338H25.995L32.536 25.6875L27.3399 17.1008L25.7304 19.2438H24.6574L23.6726 20.4034L25.4658 20.9391V22.4583L24.5692 23.1702V26.3921L23.8563 27.104L19.2776 24.7922V24.1683L22.5922 21.3942ZM4.6375 21.2107L2.39592 16.6458L8.12849 6.18027H5.88691L4.36557 8.86637L3.20436 6.8995L4.72569 3.50151L9.29705 4.12533L10.8184 2.60614H16.6391L18.2487 4.2134H18.8219H18.8734H19.4466L21.0562 2.60614H26.8769L28.3983 4.12533L32.9696 3.50151L34.4909 6.8995L33.3371 8.87371L31.8158 6.18761H29.5742L35.3067 16.6531L33.0652 21.218L28.413 13.6074L29.5742 11.2809L25.8113 5.10876H22.0483L20.7916 6.26834H18.8734H18.8219H16.9037L15.647 5.10876H11.8841L8.13584 11.2883L9.29705 13.6147L4.6375 21.2107ZM17.8077 36.7035L15.7793 34.8614L16.3011 33.7311L15.8013 33.2614H12.3324L7.48909 25.5701L10.5979 20.8584C10.5685 20.9832 10.5832 22.3849 10.5832 22.3849L12.0237 23.684V26.7957L15.5882 32.0799H17.3594L17.8077 32.6229V36.7035ZM25.6863 26.7957V23.684L27.1268 22.3849C27.1268 22.3849 27.1342 20.9832 27.1121 20.8584L30.2209 25.5701L25.3776 33.2614H21.9087L21.4089 33.7311L21.9307 34.8614L19.9023 36.7035V32.6229L20.3506 32.0799H22.1218L25.6863 26.7957ZM19.454 25.8637L22.4085 27.4709L22.7686 28.0067L21.4236 29.7093H18.8807H18.8293H16.2864L14.9414 28.0067L15.3015 27.4709L18.256 25.8637H18.8293H18.8807H19.454ZM18.8513 21.3648L16.8155 19.3319V14.8624L15.206 13.2551H11.3549L10.8184 12.2717L12.6116 11.2002L14.0448 8.42602H17.0875L17.624 9.32139H18.8219H18.8734H20.0713L20.6078 8.42602H23.6505L25.0837 11.2002L26.8769 12.2717L26.3404 13.2551H22.4893L20.8798 14.8624V19.3319L18.8513 21.3648Z" fill="black"/>
<path fill-rule="evenodd" clip-rule="evenodd" d="M49.4182 19.3319V10.8993L54.1513 19.3319H56.7897L61.5374 10.8993V19.3319H66.6527V5.80595H59.8471L55.6211 13.4019L51.4687 5.80595H44.3691V19.3319H49.4182ZM75.1045 13.7688L77.3241 9.11587L79.6024 13.7688H75.1045ZM87.9734 19.3319L80.8885 5.80595H73.936L67.2333 19.3319H72.4734L73.5097 17.1522H81.256L82.3143 19.3319H87.9734ZM97.6747 15.0972L101.46 19.3319H107.81L101.673 12.3304L107.538 5.80595H101.401L97.9393 9.78373L94.4997 5.80595H87.8926L93.8971 12.3891L87.6868 19.3319H93.9118L97.6747 15.0972ZM108.493 5.80595V19.3319H113.645V5.80595H108.493ZM129.321 19.1704C130.505 18.8915 131.423 18.5466 132.07 18.1429C132.68 17.7686 133.224 17.2916 133.665 16.7265C134.076 16.1907 134.348 15.699 134.466 15.2734C134.584 14.8624 134.642 14.4367 134.65 14.011V13.7175H129.299C129.263 13.8496 129.226 13.9743 129.189 14.0844C129.101 14.2826 128.983 14.4661 128.844 14.6275C128.645 14.8844 128.395 15.1046 128.116 15.266C127.822 15.4348 127.396 15.5889 126.823 15.7284C126.168 15.8752 125.507 15.9486 124.838 15.9339C123.978 15.9339 123.236 15.8311 122.611 15.6256C121.987 15.4201 121.516 15.1413 121.193 14.789C120.899 14.4807 120.664 14.1138 120.502 13.7175C120.362 13.3505 120.289 12.9615 120.289 12.5726V12.3524C120.289 10.2461 121.803 9.18927 124.824 9.18927C127.381 9.18927 128.873 9.87914 129.285 11.2589H134.657V11.024C134.657 10.7378 134.628 10.4516 134.576 10.1727C134.503 9.82776 134.385 9.49751 134.231 9.18193C134.047 8.80763 133.819 8.45536 133.547 8.13978C133.209 7.76549 132.82 7.43523 132.393 7.16368C131.864 6.82608 131.298 6.5472 130.703 6.33437C129.931 6.07016 129.145 5.88668 128.337 5.76926C127.308 5.61514 126.271 5.54175 125.235 5.54908H124.522C122.905 5.54908 121.494 5.70321 120.289 6.01145C119.084 6.31969 118.15 6.70132 117.489 7.15634C116.849 7.58935 116.306 8.13978 115.894 8.79295C115.497 9.43145 115.233 10.0112 115.122 10.547C115.005 11.1121 114.946 11.6846 114.946 12.257V12.7854C114.946 13.3579 115.005 13.9303 115.13 14.4954C115.247 15.0385 115.519 15.633 115.931 16.2788C116.357 16.932 116.908 17.4971 117.548 17.9448C118.216 18.4145 119.15 18.8035 120.34 19.119C121.531 19.4346 122.927 19.5887 124.522 19.5887H125.235C126.771 19.5887 128.138 19.4493 129.321 19.1704ZM142.014 5.79861C141.161 5.92338 140.331 6.13621 139.522 6.43711C138.89 6.67196 138.295 7.00222 137.751 7.39853C137.303 7.72145 136.899 8.11042 136.561 8.55077C136.274 8.93974 136.039 9.37274 135.87 9.82043C135.708 10.2241 135.59 10.6424 135.524 11.0754C135.466 11.4644 135.443 11.8607 135.443 12.257V12.8001C135.443 13.1964 135.473 13.5927 135.524 13.9817C135.59 14.4147 135.708 14.8404 135.87 15.244C136.039 15.7064 136.274 16.1394 136.561 16.5357C136.899 16.9834 137.303 17.3797 137.751 17.7099C138.295 18.1136 138.89 18.4438 139.522 18.6934C140.331 18.9943 141.169 19.2144 142.014 19.3392C143.109 19.508 144.211 19.5961 145.321 19.5814H146.137C147.247 19.5887 148.349 19.508 149.444 19.3392C150.429 19.1777 151.259 18.9576 151.928 18.6934C152.56 18.4512 153.156 18.1209 153.692 17.7099C154.148 17.3797 154.545 16.9834 154.883 16.5357C155.169 16.1394 155.405 15.7064 155.574 15.244C155.735 14.833 155.853 14.4147 155.919 13.9817C155.978 13.5927 156 13.1964 156 12.8001V12.257C156 11.8607 155.97 11.4644 155.919 11.0754C155.853 10.6424 155.735 10.2241 155.574 9.82043C155.397 9.3654 155.162 8.93974 154.875 8.55077C154.53 8.11042 154.133 7.72145 153.685 7.39853C153.141 6.99488 152.553 6.67196 151.921 6.43711C151.113 6.14355 150.275 5.93072 149.429 5.79861C148.342 5.62981 147.247 5.54908 146.144 5.55642H145.328C144.211 5.54908 143.102 5.62981 142.014 5.79861ZM150.429 13.7835C150.26 14.1798 150.01 14.5321 149.701 14.8257C149.363 15.1633 148.849 15.4348 148.165 15.633C147.482 15.8311 146.666 15.9339 145.718 15.9339C144.77 15.9339 143.954 15.8311 143.271 15.6256C142.587 15.4201 142.073 15.1413 141.735 14.7963C141.426 14.4954 141.176 14.1358 141.007 13.7395C140.86 13.3799 140.787 12.9909 140.787 12.6019V12.3818C140.772 11.5745 141.11 10.7965 141.713 10.2534C142.051 9.92317 142.565 9.66631 143.241 9.46815C143.917 9.27733 144.748 9.17459 145.718 9.17459C146.666 9.17459 147.482 9.27 148.158 9.46815C148.834 9.65897 149.349 9.92317 149.694 10.2534C150.01 10.5323 150.26 10.8773 150.429 11.2589C150.576 11.6112 150.649 11.9928 150.649 12.3744V12.6313C150.649 13.0349 150.576 13.4166 150.429 13.7835ZM44.472 31.1845H45.6847V25.6802H44.472V31.1845ZM49.0581 31.1845H50.2707V26.7957H51.9464V25.6802H47.3751V26.7957H49.0507L49.0581 31.1845ZM59.2297 31.2799C60.2954 31.2799 60.9201 30.9496 61.4934 30.3405L60.7217 29.5112C60.288 29.9075 59.9059 30.157 59.2738 30.157C58.3257 30.157 57.6716 29.3717 57.6716 28.425C57.6716 27.4636 58.3404 26.693 59.2738 26.693C59.9059 26.693 60.266 26.9205 60.6923 27.3094L61.4199 26.4728C60.9054 25.9664 60.3248 25.5774 59.2885 25.5774C57.5981 25.5774 56.4149 26.8618 56.4149 28.425C56.4075 30.0322 57.6055 31.2799 59.2297 31.2799ZM65.6825 31.2799C67.3803 31.2799 68.6223 29.9955 68.6223 28.4323C68.6223 26.8544 67.4023 25.5848 65.7046 25.5848C64.0069 25.5848 62.7648 26.8691 62.7648 28.4323C62.7648 30.0176 63.9848 31.2799 65.6825 31.2799ZM65.6972 30.1643C64.7198 30.1643 64.0289 29.3791 64.0289 28.4323C64.0289 27.4709 64.7051 26.7003 65.6825 26.7003C66.66 26.7003 67.3509 27.4856 67.3509 28.4323C67.3509 29.3937 66.6747 30.1643 65.6972 30.1643ZM70.4009 31.1845H71.5915V27.6177L73.1275 29.9442H73.1569L74.7077 27.5957V31.1918H75.913V25.6875H74.6048L73.1569 28.014L71.7091 25.6875H70.4009V31.1845ZM77.9414 31.1845H79.1541V29.5332H80.0728C81.3075 29.5332 82.2996 28.8727 82.2996 27.5957C82.2996 26.4581 81.5059 25.6802 80.1903 25.6802H77.9414V31.1845ZM79.1541 28.4543V26.7737H80.0948C80.6975 26.7737 81.0796 27.0672 81.0796 27.6103C81.0796 28.0947 80.7268 28.4617 80.1168 28.4617L79.1541 28.4543ZM82.8876 31.1845H84.1223L84.6294 29.9515H86.9592L87.4663 31.1845H88.7304L86.3712 25.6435H85.2541L82.8876 31.1845ZM85.0557 28.88L85.7906 27.0966L86.5256 28.88H85.0557ZM90.2811 31.1845H91.4791V27.6837L94.1469 31.1845H95.1759V25.6802H93.9779V29.0708L91.3982 25.6802H90.2811V31.1845ZM98.7624 31.1845H99.9751V28.9901L102.092 25.6802H100.71L99.3724 27.8892L98.0568 25.6802H96.6384L98.755 29.0121V31.1845H98.7624Z" fill="black"/>
</svg>
