<svg width="7" height="4" viewBox="0 0 7 4" fill="none" xmlns="http://www.w3.org/2000/svg">
<path fill-rule="evenodd" clip-rule="evenodd" d="M0.146862 0.146828C0.193297 0.100285 0.248461 0.063359 0.309193 0.0381638C0.369924 0.0129686 0.435032 0 0.500785 0C0.566537 0 0.631645 0.0129686 0.692376 0.0381638C0.753108 0.063359 0.808272 0.100285 0.854707 0.146828L3.50013 2.79265L6.14555 0.146828C6.23942 0.0529832 6.36673 0.000261666 6.49948 0.000261667C6.63222 0.000261668 6.75953 0.0529832 6.8534 0.146828C6.94727 0.240673 7 0.367953 7 0.50067C7 0.633386 6.94727 0.760667 6.8534 0.854512L3.85405 3.85317C3.80762 3.89971 3.75245 3.93664 3.69172 3.96184C3.63099 3.98703 3.56588 4 3.50013 4C3.43438 4 3.36927 3.98703 3.30854 3.96184C3.24781 3.93664 3.19264 3.89971 3.14621 3.85317L0.146862 0.854512C0.100308 0.808087 0.0633735 0.752936 0.0381725 0.692218C0.0129716 0.6315 0 0.566408 0 0.50067C0 0.434932 0.0129716 0.36984 0.0381725 0.309122C0.0633735 0.248404 0.100308 0.193253 0.146862 0.146828Z" fill="#FFFFFF"/>
</svg>
