<svg width="31" height="30" viewBox="0 0 31 30" fill="none" xmlns="http://www.w3.org/2000/svg">
<path d="M16.6625 13.125C15.8875 12.9375 15.1125 12.5625 14.5312 12C13.95 11.8125 13.7563 11.25 13.7563 10.875C13.7563 10.5 13.95 9.9375 14.3375 9.75C14.9187 9.375 15.5 9 16.0813 9.1875C17.2437 9.1875 18.2125 9.75 18.7937 10.5L20.5375 8.25C19.9563 7.6875 19.375 7.3125 18.7937 6.9375C18.2125 6.5625 17.4375 6.375 16.6625 6.375V3.75H14.3375V6.375C13.3687 6.5625 12.4 7.125 11.625 7.875C10.85 8.8125 10.2688 9.9375 10.4625 11.0625C10.4625 12.1875 10.85 13.3125 11.625 14.0625C12.5938 15 13.95 15.5625 15.1125 16.125C15.6938 16.3125 16.4688 16.6875 17.05 17.0625C17.4375 17.4375 17.6313 18 17.6313 18.5625C17.6313 19.125 17.4375 19.6875 17.05 20.25C16.4688 20.8125 15.6938 21 15.1125 21C14.3375 21 13.3688 20.8125 12.7875 20.25C12.2063 19.875 11.625 19.3125 11.2375 18.75L9.3 20.8125C9.88125 21.5625 10.4625 22.125 11.2375 22.6875C12.2063 23.25 13.3687 23.8125 14.5312 23.8125V26.25H16.6625V23.4375C17.825 23.25 18.7938 22.6875 19.5688 21.9375C20.5375 21 21.1187 19.5 21.1187 18.1875C21.1187 17.0625 20.7312 15.75 19.7625 15C18.7937 14.0625 17.825 13.5 16.6625 13.125ZM15.5 0C6.975 0 0 6.75 0 15C0 23.25 6.975 30 15.5 30C24.025 30 31 23.25 31 15C31 6.75 24.025 0 15.5 0ZM15.5 27.9375C8.1375 27.9375 2.13125 22.125 2.13125 15C2.13125 7.875 8.1375 2.0625 15.5 2.0625C22.8625 2.0625 28.8687 7.875 28.8687 15C28.8687 22.125 22.8625 27.9375 15.5 27.9375Z" fill="white"/>
</svg>
