<svg width="38" height="38" viewBox="0 0 38 38" fill="none" xmlns="http://www.w3.org/2000/svg">
<path d="M7.79914 17.8799C7.18468 17.8799 6.68548 18.3791 6.68548 18.9935C6.68548 19.608 7.18468 20.1072 7.79914 20.1072C8.41359 20.1072 8.91279 19.608 8.91279 18.9935C8.91279 18.3791 8.41359 17.8799 7.79914 17.8799Z" fill="white"/>
<path d="M21.4063 16.5226C20.5645 15.6808 19.0986 15.6808 18.2569 16.5226C17.9893 16.789 17.8023 17.1044 17.6968 17.4601V17.4612C17.3161 18.7445 16.4299 19.8256 15.264 20.5129C17.1834 21.5983 19.8034 21.2753 21.4063 19.6722C22.2771 18.8013 22.2771 17.3936 21.4063 16.5226Z" fill="white"/>
<path d="M10.0264 26.7892C9.41191 26.7892 8.91271 27.2884 8.91271 27.9029C8.91271 28.5174 9.41191 29.0166 10.0264 29.0166C10.6408 29.0166 11.14 28.5174 11.14 27.9029C11.14 27.2884 10.6408 26.7892 10.0264 26.7892Z" fill="white"/>
<path d="M12.2537 11.1979C11.6392 11.1979 11.14 11.6971 11.14 12.3116C11.14 12.926 11.6391 13.4253 12.2537 13.4253C12.8681 13.4253 13.3673 12.926 13.3673 12.3116C13.3673 11.6971 12.8681 11.1979 12.2537 11.1979Z" fill="white"/>
<path d="M33.0146 17.6158C32.6571 15.9666 32.0408 14.4071 31.1985 12.9495C29.0891 14.7931 26.3024 16.8647 24.1511 17.132C24.5362 18.7432 24.0376 20.2645 22.981 21.3212C21.5934 22.71 19.7478 23.4746 17.7837 23.4746C15.8208 23.4746 13.9752 22.71 12.5864 21.3212C12.1432 20.8765 11.7805 20.5508 12.0002 19.8748C12.1286 19.4778 12.47 19.1853 12.8822 19.1189C14.172 18.9112 15.2237 18.0411 15.5608 16.9024C15.7696 16.1956 16.1578 15.5452 16.6831 15.0209C17.777 13.9264 19.4 13.5567 20.8666 13.8882C21.1136 11.7387 23.2588 8.87869 25.06 6.80763C18.7711 3.18431 10.4686 3.90781 4.89659 9.483C0.932492 13.4472 -0.741216 18.9253 0.304898 24.5131C1.51095 30.9537 6.62344 36.2132 13.029 37.602C14.2557 37.8673 15.4858 38 16.706 38C19.5626 38 22.0513 37.4582 22.9996 34.5752C23.5858 32.7938 23.1323 30.8688 21.8153 29.5518C20.9443 28.6808 20.9443 27.2731 21.8153 26.4022C22.6571 25.5604 24.123 25.5604 24.9647 26.4022C26.2807 27.7182 28.2013 28.1728 29.988 27.5866C31.7172 27.0178 32.9581 25.5593 33.2256 23.7812C33.5323 21.755 33.4616 19.681 33.0146 17.6158ZM12.2537 9.04473C14.0959 9.04473 15.5946 10.5434 15.5946 12.3857C15.5946 14.228 14.0959 15.7267 12.2537 15.7267C10.4114 15.7267 8.91279 14.228 8.91279 12.3857C8.91279 10.5435 10.4113 9.04473 12.2537 9.04473ZM4.45825 19.0678C4.45825 17.2254 5.95688 15.7268 7.79914 15.7268C9.6414 15.7268 11.14 17.2254 11.14 19.0678C11.14 20.9101 9.6414 22.4088 7.79914 22.4088C5.95688 22.4088 4.45825 20.9101 4.45825 19.0678ZM10.0264 31.3181C8.18411 31.3181 6.68548 29.8194 6.68548 27.9771C6.68548 26.1348 8.18411 24.6361 10.0264 24.6361C11.8686 24.6361 13.3673 26.1348 13.3673 27.9771C13.3673 29.8194 11.8686 31.3181 10.0264 31.3181Z" fill="white"/>
<path d="M37.8511 0.119644C37.8153 0.0837956 37.7316 0 37.4564 0C36.0722 0 33.5499 1.67962 31.0277 3.89698L34.027 6.8964C37.1074 3.39005 38.4786 0.747926 37.8511 0.119644Z" fill="white"/>
<path d="M29.391 5.4099C29.1633 5.62915 28.9314 5.84751 28.7112 6.06772C25.4094 9.37063 23.0169 12.8008 23.0244 14.2256C23.0275 14.8362 23.546 15.0345 23.9993 14.8758C25.8147 14.5718 29.2771 11.8011 31.8606 9.21744C32.0936 8.98453 32.294 8.76298 32.5149 8.53401L29.391 5.4099Z" fill="white"/>
</svg>
