<svg width="23" height="23" viewBox="0 0 23 23" fill="none" xmlns="http://www.w3.org/2000/svg">
<path d="M11.5015 23.0005C17.8525 23.0005 23.001 17.852 23.001 11.501C23.001 5.14994 17.8525 0.00143433 11.5015 0.00143433C5.15046 0.00143433 0.00195312 5.14994 0.00195312 11.501C0.00195312 17.852 5.15046 23.0005 11.5015 23.0005Z" fill="white"/>
<path d="M22.3433 7.66568H15.2578C15.5656 10.1223 15.5674 12.8291 15.2638 15.2887H22.3584C22.7726 14.1021 23.0003 12.8278 23.0003 11.5001C23.0005 10.1549 22.7675 8.86501 22.3433 7.66568Z" fill="#2B479D"/>
<path d="M15.2559 7.66569H22.3413C22.3402 7.66205 22.3391 7.65899 22.3376 7.65569C20.8659 3.50576 17.08 0.452507 12.5312 0.0472107C14.2917 1.01212 14.8059 4.0692 15.2559 7.66569Z" fill="#EFECEC"/>
<path d="M12.5332 22.9523C17.0901 22.5462 20.8813 19.4825 22.3473 15.3214C22.3512 15.3103 22.3544 15.2994 22.3584 15.2887H15.2636C14.8171 18.9047 14.3007 21.9833 12.5332 22.9523Z" fill="#E63026"/>
<path d="M0 11.5C0 12.8279 0.228067 14.102 0.641862 15.2887H15.8551C16.159 12.8288 16.1569 10.1222 15.8495 7.66562H0.657157C0.232972 8.865 0 10.1549 0 11.5Z" fill="#3757A6"/>
<path d="M0.659892 7.65574C0.658823 7.65899 0.657707 7.6621 0.65625 7.66574H15.8486C15.3983 4.0692 14.2921 1.01216 12.5319 0.0472575C12.1914 0.0171042 11.8471 6.10357e-05 11.4989 6.10357e-05C6.49622 1.24797e-05 2.24199 3.19504 0.659892 7.65574Z" fill="#EFEFEF"/>
<path d="M15.8558 15.2887H0.642578C0.646414 15.2994 0.650007 15.3103 0.653649 15.3213C2.22944 19.7934 6.48979 22.9998 11.5005 22.9998C11.8488 22.9998 12.193 22.9827 12.5335 22.9522C14.3011 21.9833 15.4093 18.9047 15.8558 15.2887Z" fill="#E73B36"/>
</svg>
