<svg width="41" height="42" viewBox="0 0 41 42" fill="none" xmlns="http://www.w3.org/2000/svg">
<path d="M29.0337 7.28052H35.7921C36.3896 7.28052 36.9626 7.52242 37.3851 7.95301C37.8075 8.38359 38.0449 8.9676 38.0449 9.57654V34.8328C38.0449 36.0506 37.5702 37.2187 36.7252 38.0798C35.8803 38.941 34.7342 39.4248 33.5393 39.4248M33.5393 39.4248C32.3443 39.4248 31.1983 38.941 30.3533 38.0798C29.5084 37.2187 29.0337 36.0506 29.0337 34.8328V4.9845C29.0337 4.37555 28.7963 3.79155 28.3738 3.36097C27.9514 2.93038 27.3783 2.68848 26.7809 2.68848H4.25281C3.65532 2.68848 3.08231 2.93038 2.65983 3.36097C2.23735 3.79155 2 4.37555 2 4.9845V32.5367C2 34.3636 2.71205 36.1156 3.97949 37.4073C5.24694 38.6991 6.96597 39.4248 8.75842 39.4248H33.5393ZM11.0112 11.8726H20.0224M11.0112 21.0566H20.0224M11.0112 30.2407H20.0224" stroke="#919191" stroke-width="4" stroke-linecap="round" stroke-linejoin="round"/>
</svg>
