<svg width="37" height="37" viewBox="0 0 37 37" fill="none" xmlns="http://www.w3.org/2000/svg">
<path d="M32.5162 28.9556C34.8122 26.8739 36.1123 24.0991 36.1123 21.2197C36.1123 18.1596 34.7041 15.2977 32.147 13.1607C29.6583 11.0815 26.3641 9.93637 22.8709 9.93637C19.3777 9.93637 16.0835 11.0815 13.5952 13.1608C11.0381 15.2977 9.62985 18.1596 9.62985 21.2197C9.62985 24.2798 11.0381 27.1418 13.5952 29.2787C16.0835 31.358 19.3777 32.5031 22.8709 32.5031C23.3364 32.5031 23.8047 32.4822 24.2691 32.4407L25.0625 33.1403C27.7959 35.5498 31.2914 36.8762 34.9082 36.8763H36.112V34.2698L35.7594 33.9113C34.3687 32.4923 33.2666 30.8083 32.5162 28.9556ZM26.6393 31.2894L25.0473 29.8856L24.5164 29.9519C23.9704 30.0198 23.4209 30.0538 22.8709 30.0539C16.8974 30.0539 12.0373 26.0909 12.0373 21.2197C12.0373 16.3485 16.8974 12.3855 22.8709 12.3855C28.8444 12.3855 33.7045 16.3485 33.7045 21.2197C33.7045 23.6466 32.5143 25.9123 30.3532 27.5994L29.6599 28.1406L29.9798 29.0617C30.6353 30.9429 31.5989 32.6977 32.8298 34.252C30.5376 33.8628 28.3955 32.8376 26.6393 31.2894Z" fill="#37BF24"/>
<path d="M3.32418 23.2132C4.45097 21.7622 5.33567 20.1327 5.9429 18.3898L6.26038 17.4733L5.56771 16.9325C3.52979 15.3417 2.40746 13.2065 2.40746 10.9204C2.40746 6.32649 6.99737 2.5891 12.6392 2.5891C16.7896 2.5891 20.3707 4.6119 21.9739 7.51024C22.2716 7.49555 22.5706 7.48728 22.8709 7.48728C23.4741 7.48728 24.0718 7.51705 24.664 7.5766C24.0445 5.94374 22.9685 4.45317 21.4892 3.21714C19.1147 1.23284 15.972 0.140015 12.6392 0.140015C9.30635 0.140015 6.16371 1.23284 3.78905 3.21714C1.34562 5.25899 0 7.9947 0 10.9204C0 13.6603 1.23021 16.3003 3.4043 18.2862C2.69481 20.0232 1.65811 21.6021 0.352618 22.9341L0 23.2927V25.8554H1.20373C3.42966 25.8552 5.62498 25.3278 7.61594 24.3152C7.39762 23.4734 7.2697 22.61 7.23443 21.7402C6.02601 22.4607 4.70243 22.9593 3.32418 23.2132Z" fill="#37BF24"/>
</svg>
