<svg width="32" height="25" viewBox="0 0 32 25" fill="none" xmlns="http://www.w3.org/2000/svg">
<path d="M30.8571 0H1.14286C0.510714 0 0 0.507812 0 1.13636V23.8636C0 24.4922 0.510714 25 1.14286 25H30.8571C31.4893 25 32 24.4922 32 23.8636V1.13636C32 0.507812 31.4893 0 30.8571 0ZM29.4286 3.93466V22.4432H2.57143V3.93466L1.58571 3.17116L2.98929 1.37784L4.51786 2.56037H27.4857L29.0143 1.37784L30.4179 3.17116L29.4286 3.93466ZM27.4857 2.55682L16 11.4347L4.51429 2.55682L2.98571 1.37429L1.58214 3.16761L2.56786 3.93111L14.7679 13.3629C15.1187 13.634 15.5504 13.7811 15.9946 13.7811C16.4389 13.7811 16.8706 13.634 17.2214 13.3629L29.4286 3.93466L30.4143 3.17116L29.0107 1.37784L27.4857 2.55682Z" fill="#D90000"/>
</svg>
