<svg width="50" height="38" viewBox="0 0 50 38" fill="none" xmlns="http://www.w3.org/2000/svg">
<path d="M40.3037 23.6489V5.28076C40.3037 2.75514 38.2885 0.688721 35.8255 0.688721H4.47819C2.01518 0.688721 0 2.75514 0 5.28076V23.6489C0 26.1745 2.01518 28.241 4.47819 28.241H35.8255C38.2885 28.241 40.3037 26.1745 40.3037 23.6489ZM35.8255 23.6489H4.47819V5.28076H35.8255V23.6489ZM20.1518 7.57678C16.435 7.57678 13.4346 10.6535 13.4346 14.4648C13.4346 18.2762 16.435 21.3529 20.1518 21.3529C23.8687 21.3529 26.8691 18.2762 26.8691 14.4648C26.8691 10.6535 23.8687 7.57678 20.1518 7.57678ZM49.2601 7.57678V32.833C49.2601 35.3586 47.2449 37.425 44.7819 37.425H6.71728V32.833H44.7819V7.57678H49.2601Z" fill="white"/>
</svg>
