<svg width="30" height="38" viewBox="0 0 30 38" fill="none" xmlns="http://www.w3.org/2000/svg">
<path d="M21.9166 11.7096H7.30552V8.03599H21.9166V11.7096ZM21.9166 15.3833H7.30552V19.0569H21.9166V15.3833ZM29.2221 4.36235V26.4042L18.2638 37.425H3.65276C2.68399 37.425 1.75489 37.038 1.06987 36.3491C0.384843 35.6601 0 34.7257 0 33.7514V4.36235C0 3.38805 0.384843 2.45364 1.06987 1.7647C1.75489 1.07576 2.68399 0.688721 3.65276 0.688721H25.5693C26.5381 0.688721 27.4672 1.07576 28.1522 1.7647C28.8372 2.45364 29.2221 3.38805 29.2221 4.36235ZM25.5693 22.7305V4.36235H3.65276V33.7514H14.611V26.4042C14.611 25.4298 14.9959 24.4954 15.6809 23.8065C16.3659 23.1176 17.295 22.7305 18.2638 22.7305H25.5693Z" fill="#0064D2"/>
</svg>
