<svg width="37" height="37" viewBox="0 0 37 37" fill="none" xmlns="http://www.w3.org/2000/svg">
<path d="M15.7426 31.5588C19.2355 31.5581 22.6277 30.3913 25.3791 28.2442L34.0296 36.8765L36.8121 34.0998L28.1616 25.4675C30.3144 22.7217 31.4844 19.3359 31.4852 15.8495C31.4852 7.18775 24.4227 0.140137 15.7426 0.140137C7.06253 0.140137 0 7.18775 0 15.8495C0 24.5112 7.06253 31.5588 15.7426 31.5588ZM15.7426 4.06748C22.2542 4.06748 27.5496 9.35171 27.5496 15.8495C27.5496 22.3473 22.2542 27.6315 15.7426 27.6315C9.23108 27.6315 3.93565 22.3473 3.93565 15.8495C3.93565 9.35171 9.23108 4.06748 15.7426 4.06748Z" fill="white"/>
</svg>
