<svg width="30" height="37" viewBox="0 0 30 37" fill="none" xmlns="http://www.w3.org/2000/svg">
<path d="M14.6412 0.140015C9.59547 0.140015 5.49045 4.25999 5.49045 9.3241V14.8345H3.6603C1.64164 14.8345 0 16.4822 0 18.5082V33.2027C0 35.2287 1.64164 36.8763 3.6603 36.8763H25.6221C27.6407 36.8763 29.2824 35.2287 29.2824 33.2027V18.5082C29.2824 16.4822 27.6407 14.8345 25.6221 14.8345H23.7919V9.3241C23.7919 4.25999 19.6869 0.140015 14.6412 0.140015ZM25.6221 18.5082L25.6257 33.2027H3.6603V18.5082H25.6221ZM9.15075 14.8345V9.3241C9.15075 6.286 11.6141 3.81365 14.6412 3.81365C17.6683 3.81365 20.1316 6.286 20.1316 9.3241V14.8345H9.15075Z" fill="#0064D2"/>
</svg>
