<svg width="41" height="41" viewBox="0 0 41 41" fill="none" xmlns="http://www.w3.org/2000/svg">
<path d="M12.8676 17.9562C13.8692 17.9562 14.529 18.4331 14.5688 18.775C14.6165 19.236 15.0299 19.5938 15.4909 19.5381C15.9599 19.4904 16.3018 19.077 16.2541 18.616C16.1269 17.2725 14.6721 16.2629 12.8676 16.2629C10.9677 16.2629 9.47319 17.3838 9.47319 18.8068C9.47319 20.1343 10.5225 20.977 12.6053 21.3188L12.8597 21.3585C14.2667 21.5891 14.5608 21.9468 14.5608 22.2012C14.5608 22.5351 13.8851 23.0518 12.8597 23.0518C11.858 23.0518 11.1982 22.5748 11.1585 22.233C11.1108 21.7719 10.6974 21.4142 10.2363 21.4698C9.76732 21.5175 9.4255 21.9309 9.47319 22.392C9.60038 23.7354 11.0551 24.745 12.8597 24.745C14.7596 24.745 16.2541 23.6241 16.2541 22.2012C16.262 20.8736 15.2047 20.023 13.1299 19.6812L12.8756 19.6415C11.389 19.395 11.1664 19.0134 11.1664 18.8068C11.1664 18.4729 11.8421 17.9562 12.8676 17.9562Z" fill="#D90000" stroke="#D90000" stroke-width="0.5"/>
<path d="M28.1327 16.2629C26.2646 16.2629 24.7383 17.7813 24.7383 19.6574V21.3506C24.7383 23.2187 26.2566 24.745 28.1327 24.745C30.0008 24.745 31.5271 23.2267 31.5271 21.3506V19.6574C31.5271 17.7813 30.0008 16.2629 28.1327 16.2629ZM29.8259 21.3506C29.8259 22.2886 29.0628 23.0438 28.1327 23.0438C27.1947 23.0438 26.4395 22.2807 26.4395 21.3506V19.6574C26.4395 18.7193 27.2026 17.9641 28.1327 17.9641C29.0707 17.9641 29.8259 18.7273 29.8259 19.6574V21.3506Z" fill="#D90000" stroke="#D90000" stroke-width="0.5"/>
<path d="M20.6113 1.00795C20.5715 1.00795 20.5397 1 20.5 1C20.4682 1 20.4364 1.00795 20.3967 1.00795C9.6967 1.05565 1 9.78414 1 20.5C1 31.2556 9.75235 40 20.5 40C31.2477 40 40 31.2556 40 20.5C40 9.78414 31.3113 1.0636 20.6113 1.00795ZM34.4592 9.47411H29.618C28.6879 7.03363 27.4637 5.03037 26.0408 3.58357C29.3954 4.68854 32.3129 6.76335 34.4592 9.47411ZM21.3506 2.78068C23.8706 3.24174 26.1998 5.71402 27.7817 9.47411H21.3506V2.78068ZM19.6494 2.78068V9.47411H13.2183C14.8002 5.71402 17.1294 3.24174 19.6494 2.78068ZM14.9672 3.58357C13.5442 5.03037 12.32 7.03363 11.3899 9.47411H6.54077C8.69507 6.76335 11.6046 4.68854 14.9672 3.58357ZM6.54077 31.5259H11.382C12.32 33.9743 13.5442 35.9776 14.9672 37.4164C11.6046 36.3194 8.69507 34.2366 6.54077 31.5259ZM19.6494 38.2193C17.1294 37.7583 14.8002 35.286 13.2183 31.5259H19.6494V38.2193ZM21.3506 38.2193V31.5259H27.7817C26.1998 35.286 23.8706 37.7583 21.3506 38.2193ZM26.0328 37.4164C27.4558 35.9696 28.68 33.9664 29.6101 31.5259H34.4592C32.3049 34.2366 29.3954 36.3194 26.0328 37.4164ZM35.6358 29.8247H30.1824C30.413 29.0695 30.6196 28.2825 30.7945 27.4558C30.8899 26.9947 30.6038 26.5495 30.1427 26.4462C29.6816 26.3428 29.2364 26.637 29.1331 27.098C28.9264 28.052 28.68 28.9582 28.3938 29.8168H21.3347V27.2729C21.3347 26.8039 20.9531 26.4223 20.4841 26.4223C20.0151 26.4223 19.6335 26.8039 19.6335 27.2729V29.8168H12.5744C12.2962 28.9582 12.0418 28.052 11.8351 27.098C11.7397 26.637 11.2866 26.3428 10.8255 26.4462C10.3645 26.5416 10.0783 26.9947 10.1737 27.4558C10.3486 28.2825 10.5552 29.0695 10.7858 29.8247H5.36425C3.82205 27.3365 2.88402 24.4429 2.74093 21.3426H6.93824C7.40726 21.3426 7.78883 20.9611 7.78883 20.4921C7.78883 20.023 7.40726 19.6415 6.93824 19.6415H2.74093C2.89197 16.5412 3.82205 13.6555 5.36425 11.1594H10.8176C10.587 11.9146 10.3804 12.7016 10.2055 13.5283C10.1101 13.9815 10.3962 14.4346 10.8573 14.53C11.3104 14.6333 11.7636 14.3392 11.8669 13.8781C12.0736 12.9242 12.32 12.0179 12.6062 11.1594H19.6653V13.7032C19.6653 14.1722 20.0469 14.5538 20.5159 14.5538C20.9849 14.5538 21.3665 14.1722 21.3665 13.7032V11.1594H28.4256C28.7038 12.0179 28.9582 12.9242 29.1649 13.8781C29.2523 14.2756 29.6021 14.5459 29.9916 14.5459C30.0473 14.5459 30.1109 14.5379 30.1745 14.522C30.6355 14.4266 30.9217 13.9735 30.8263 13.5124C30.6514 12.6936 30.4448 11.9066 30.2142 11.1435H35.6676C37.2097 13.6317 38.1478 16.5253 38.2909 19.6256H34.0936C33.6245 19.6256 33.243 20.0071 33.243 20.4762C33.243 20.9452 33.6245 21.3267 34.0936 21.3267H38.2909C38.116 24.4509 37.1779 27.3365 35.6358 29.8247Z" fill="#D90000" stroke="#D90000" stroke-width="0.5"/>
<path d="M23.0427 17.9562C23.5117 17.9562 23.8933 17.5746 23.8933 17.1056C23.8933 16.6366 23.5117 16.255 23.0427 16.255H18.8057C18.3367 16.255 17.9551 16.6366 17.9551 17.1056V23.8865C17.9551 24.3555 18.3367 24.7371 18.8057 24.7371H23.0427C23.5117 24.7371 23.8933 24.3555 23.8933 23.8865C23.8933 23.4175 23.5117 23.0438 23.0427 23.0438H19.6483V21.3506H22.1921C22.6611 21.3506 23.0427 20.969 23.0427 20.5C23.0427 20.031 22.6611 19.6494 22.1921 19.6494H19.6483V17.9562H23.0427Z" fill="#D90000" stroke="#D90000" stroke-width="0.5"/>
</svg>
