<svg width="41" height="41" viewBox="0 0 41 41" fill="none" xmlns="http://www.w3.org/2000/svg">
<path d="M9.15975 7.0263C8.48426 6.54671 7.54788 6.70552 7.06829 7.38101C6.5887 8.05649 6.74751 8.99287 7.423 9.47246L9.15975 7.0263ZM33.6512 9.47246C34.3267 8.99287 34.4855 8.05649 34.0059 7.38101C33.5263 6.70552 32.59 6.54671 31.9145 7.0263L33.6512 9.47246ZM31.9145 33.9639C32.59 34.4435 33.5263 34.2847 34.0059 33.6092C34.4855 32.9337 34.3267 31.9974 33.6512 31.5178L31.9145 33.9639ZM7.423 31.5178C6.74751 31.9974 6.5887 32.9337 7.06829 33.6092C7.54788 34.2847 8.48426 34.4435 9.15975 33.9639L7.423 31.5178ZM20.5371 0.626953C9.56469 0.626953 0.668945 9.52269 0.668945 20.4951H3.66895C3.66895 11.1795 11.2215 3.62695 20.5371 3.62695V0.626953ZM0.668945 20.4951C0.668945 31.4675 9.56469 40.3633 20.5371 40.3633V37.3633C11.2215 37.3633 3.66895 29.8107 3.66895 20.4951H0.668945ZM20.5371 40.3633C31.5095 40.3633 40.4053 31.4675 40.4053 20.4951H37.4053C37.4053 29.8107 29.8527 37.3633 20.5371 37.3633V40.3633ZM40.4053 20.4951C40.4053 9.52269 31.5095 0.626953 20.5371 0.626953V3.62695C29.8527 3.62695 37.4053 11.1795 37.4053 20.4951H40.4053ZM20.5371 0.626953C17.1463 0.626953 14.2655 3.2906 12.3279 6.77865C10.3423 10.3534 9.08739 15.2022 9.08739 20.4951H12.0874C12.0874 15.6441 13.2433 11.3088 14.9505 8.23542C16.7058 5.07539 18.7999 3.62695 20.5371 3.62695V0.626953ZM9.08739 20.4951C9.08739 25.7881 10.3423 30.6368 12.3279 34.2116C14.2655 37.6996 17.1463 40.3633 20.5371 40.3633V37.3633C18.7999 37.3633 16.7058 35.9148 14.9505 32.7548C13.2433 29.6815 12.0874 25.3462 12.0874 20.4951H9.08739ZM20.5371 40.3633C23.9279 40.3633 26.8088 37.6996 28.7463 34.2116C30.732 30.6368 31.9868 25.7881 31.9868 20.4951H28.9868C28.9868 25.3462 27.8309 29.6815 26.1237 32.7548C24.3684 35.9148 22.2744 37.3633 20.5371 37.3633V40.3633ZM31.9868 20.4951C31.9868 15.2022 30.732 10.3534 28.7463 6.77865C26.8088 3.2906 23.9279 0.626953 20.5371 0.626953V3.62695C22.2744 3.62695 24.3684 5.07539 26.1237 8.23542C27.8309 11.3088 28.9868 15.6441 28.9868 20.4951H31.9868ZM7.423 9.47246C11.054 12.0504 15.6087 13.5767 20.5371 13.5767V10.5767C16.2302 10.5767 12.2826 9.24348 9.15975 7.0263L7.423 9.47246ZM20.5371 13.5767C25.4655 13.5767 30.0202 12.0504 33.6512 9.47246L31.9145 7.0263C28.7916 9.24348 24.844 10.5767 20.5371 10.5767V13.5767ZM33.6512 31.5178C30.0202 28.9398 25.4655 27.4136 20.5371 27.4136V30.4136C24.844 30.4136 28.7916 31.7468 31.9145 33.9639L33.6512 31.5178ZM20.5371 27.4136C15.6087 27.4136 11.054 28.9398 7.423 31.5178L9.15975 33.9639C12.2826 31.7468 16.2302 30.4136 20.5371 30.4136V27.4136ZM19.0371 2.12695V38.8633H22.0371V2.12695H19.0371ZM38.9053 18.9951H2.16895V21.9951H38.9053V18.9951Z" fill="#D90000"/>
</svg>
