<svg width="41" height="41" viewBox="0 0 41 41" fill="none" xmlns="http://www.w3.org/2000/svg">
<path d="M9.16072 7.0263C8.48523 6.54671 7.54886 6.70552 7.06927 7.38101C6.58968 8.05649 6.74849 8.99287 7.42397 9.47246L9.16072 7.0263ZM33.6522 9.47246C34.3277 8.99287 34.4865 8.05649 34.0069 7.38101C33.5273 6.70552 32.5909 6.54671 31.9155 7.0263L33.6522 9.47246ZM31.9155 33.9639C32.5909 34.4435 33.5273 34.2847 34.0069 33.6092C34.4865 32.9337 34.3277 31.9974 33.6522 31.5178L31.9155 33.9639ZM7.42397 31.5178C6.74849 31.9974 6.58968 32.9337 7.06927 33.6092C7.54886 34.2847 8.48523 34.4435 9.16072 33.9639L7.42397 31.5178ZM20.5381 0.626953C9.56566 0.626953 0.669922 9.52269 0.669922 20.4951H3.66992C3.66992 11.1795 11.2225 3.62695 20.5381 3.62695V0.626953ZM0.669922 20.4951C0.669922 31.4675 9.56566 40.3633 20.5381 40.3633V37.3633C11.2225 37.3633 3.66992 29.8107 3.66992 20.4951H0.669922ZM20.5381 40.3633C31.5105 40.3633 40.4062 31.4675 40.4062 20.4951H37.4062C37.4062 29.8107 29.8537 37.3633 20.5381 37.3633V40.3633ZM40.4062 20.4951C40.4062 9.52269 31.5105 0.626953 20.5381 0.626953V3.62695C29.8537 3.62695 37.4062 11.1795 37.4062 20.4951H40.4062ZM20.5381 0.626953C17.1473 0.626953 14.2664 3.2906 12.3289 6.77865C10.3432 10.3534 9.08837 15.2022 9.08837 20.4951H12.0884C12.0884 15.6441 13.2443 11.3088 14.9515 8.23542C16.7068 5.07539 18.8008 3.62695 20.5381 3.62695V0.626953ZM9.08837 20.4951C9.08837 25.7881 10.3432 30.6368 12.3289 34.2116C14.2664 37.6996 17.1473 40.3633 20.5381 40.3633V37.3633C18.8008 37.3633 16.7068 35.9148 14.9515 32.7548C13.2443 29.6815 12.0884 25.3462 12.0884 20.4951H9.08837ZM20.5381 40.3633C23.9289 40.3633 26.8097 37.6996 28.7473 34.2116C30.7329 30.6368 31.9878 25.7881 31.9878 20.4951H28.9878C28.9878 25.3462 27.8319 29.6815 26.1247 32.7548C24.3694 35.9148 22.2753 37.3633 20.5381 37.3633V40.3633ZM31.9878 20.4951C31.9878 15.2022 30.7329 10.3534 28.7473 6.77865C26.8097 3.2906 23.9289 0.626953 20.5381 0.626953V3.62695C22.2753 3.62695 24.3694 5.07539 26.1247 8.23542C27.8319 11.3088 28.9878 15.6441 28.9878 20.4951H31.9878ZM7.42397 9.47246C11.055 12.0504 15.6097 13.5767 20.5381 13.5767V10.5767C16.2312 10.5767 12.2836 9.24348 9.16072 7.0263L7.42397 9.47246ZM20.5381 13.5767C25.4665 13.5767 30.0212 12.0504 33.6522 9.47246L31.9155 7.0263C28.7926 9.24348 24.845 10.5767 20.5381 10.5767V13.5767ZM33.6522 31.5178C30.0212 28.9398 25.4665 27.4136 20.5381 27.4136V30.4136C24.845 30.4136 28.7926 31.7468 31.9155 33.9639L33.6522 31.5178ZM20.5381 27.4136C15.6097 27.4136 11.055 28.9398 7.42397 31.5178L9.16072 33.9639C12.2836 31.7468 16.2312 30.4136 20.5381 30.4136V27.4136ZM19.0381 2.12695V38.8633H22.0381V2.12695H19.0381ZM38.9062 18.9951H2.16992V21.9951H38.9062V18.9951Z" fill="#37BF24"/>
</svg>
