<svg width="26" height="40" viewBox="0 0 26 40" fill="none" xmlns="http://www.w3.org/2000/svg">
<path d="M5.67553 4.11365H19.7021C20.1924 4.11365 20.6608 4.30502 21.0048 4.64286C21.3485 4.9804 21.5399 5.43627 21.5399 5.90967V33.4619C21.5399 33.9353 21.3485 34.3912 21.0048 34.7287C20.6608 35.0666 20.1924 35.2579 19.7021 35.2579H5.67553C5.18525 35.2579 4.71682 35.0666 4.37284 34.7287C4.02916 34.3912 3.83777 33.9353 3.83777 33.4619V5.90967C3.83777 5.43627 4.02916 4.9804 4.37284 4.64286C4.71682 4.30502 5.18525 4.11365 5.67553 4.11365ZM5.67553 0.817627C4.30577 0.817627 2.99034 1.35196 2.01908 2.30588C1.04751 3.2601 0.5 4.55624 0.5 5.90967V33.4619C0.5 34.8153 1.04751 36.1115 2.01908 37.0657C2.99034 38.0196 4.30577 38.554 5.67553 38.554H19.7021C21.0719 38.554 22.3873 38.0196 23.3586 37.0657C24.3302 36.1115 24.8777 34.8153 24.8777 33.4619V5.90967C24.8777 4.55624 24.3302 3.2601 23.3586 2.30588C22.3873 1.35196 21.0719 0.817627 19.7021 0.817627H5.67553ZM12.6888 32.7101C13.4386 32.7101 14.1594 32.4177 14.6922 31.8944C15.2254 31.3708 15.5266 30.6586 15.5266 29.9141C15.5266 29.1696 15.2254 28.4575 14.6922 27.9339C14.1594 27.4105 13.4386 27.1181 12.6888 27.1181C11.9391 27.1181 11.2183 27.4105 10.6854 27.9339C10.1523 28.4575 9.85106 29.1696 9.85106 29.9141C9.85106 30.6586 10.1523 31.3708 10.6854 31.8944C11.2183 32.4177 11.9391 32.7101 12.6888 32.7101Z" fill="#0064D2" stroke="#0064D2"/>
</svg>
