<svg width="37" height="38" viewBox="0 0 37 38" fill="none" xmlns="http://www.w3.org/2000/svg">
<path d="M32.8625 10.7547C34.1905 13.1838 34.8848 15.9085 34.8811 18.6769C34.8819 21.5666 34.1239 24.4059 32.683 26.9109C31.2421 29.4158 29.1689 31.4985 26.6706 32.9508L31.7145 18.3683C32.6568 16.0135 32.9709 14.1271 32.9709 12.4556C32.9715 11.8869 32.9353 11.3187 32.8625 10.7547ZM20.6458 10.9145C21.2758 10.8835 21.9044 10.8296 22.5304 10.7529C23.4212 10.6371 23.3165 9.32932 22.4275 9.37708C22.4275 9.37708 19.7403 9.5828 18.0192 9.5828C16.3899 9.5828 13.6567 9.3532 13.6567 9.3532C12.7622 9.30912 12.6465 10.6628 13.5447 10.7088C13.5447 10.7088 14.3694 10.8043 15.2676 10.8465L17.8373 17.8962L14.2096 28.7316L8.19588 10.8704C9.18959 10.8227 10.0841 10.718 10.0841 10.718C10.9787 10.6022 10.874 9.29442 9.9831 9.34585C9.9831 9.34585 7.31053 9.55709 5.58392 9.55709C5.27717 9.55709 4.91348 9.54423 4.52775 9.53321C7.51809 5.13036 12.6042 2.16757 18.3682 2.16757C22.6682 2.16757 26.5806 3.80969 29.5195 6.50246C29.4497 6.49879 29.3799 6.48777 29.3046 6.48777C27.6827 6.48777 26.531 7.90211 26.531 9.41933C26.531 10.7804 27.3153 11.9339 28.1529 13.2913C28.7829 14.3953 29.5158 15.8078 29.5158 17.8485C29.5158 19.25 28.9739 20.9013 28.2576 23.1734L26.6118 28.66L20.6421 10.8888L20.6458 10.9145ZM18.3682 35.1825C16.789 35.1841 15.2178 34.9589 13.7027 34.5139L18.6565 20.1169L23.7317 34.0253C23.7702 34.1061 23.8088 34.1814 23.8511 34.2531C22.0891 34.871 20.2353 35.1865 18.3682 35.1862V35.1825ZM1.85518 18.6769C1.85251 16.3615 2.33951 14.0717 3.28423 11.9578L11.1587 33.5386C8.36938 32.1842 6.01761 30.0722 4.37235 27.444C2.72708 24.8158 1.85477 21.7776 1.85518 18.6769ZM18.3682 0.308716C8.2418 0.308716 0 8.55051 0 18.6769C0 28.8032 8.2418 37.045 18.3682 37.045C28.4945 37.045 36.7363 28.8032 36.7363 18.6769C36.7363 8.55051 28.4945 0.308716 18.3682 0.308716Z" fill="#D90000"/>
</svg>
