<svg width="40" height="37" viewBox="0 0 40 37" fill="none" xmlns="http://www.w3.org/2000/svg">
<path d="M39.6684 12.1894L37.5747 3.36076C37.1361 1.5425 35.5808 0.289917 33.7664 0.289917H6.07077C4.27624 0.289917 2.70104 1.5627 2.28232 3.36076L0.188696 12.1894C-0.289846 14.2501 0.148818 16.3512 1.42493 18.0079C1.58444 18.2301 1.80377 18.3917 1.98323 18.5938V32.6146C1.98323 34.8369 3.77776 36.6552 5.97107 36.6552H33.886C36.0793 36.6552 37.8738 34.8369 37.8738 32.6146V18.5938C38.0533 18.4119 38.2726 18.2301 38.4321 18.0281C39.7082 16.3714 40.1668 14.2501 39.6684 12.1894ZM33.7065 4.3103L35.8002 13.139C35.9995 13.9875 35.8201 14.836 35.3017 15.5027C35.0225 15.8664 34.4244 16.4523 33.4274 16.4523C32.2111 16.4523 31.1543 15.4623 31.0147 14.1491L29.8583 4.3305L33.7065 4.3103ZM21.9225 4.3305H25.8305L26.9073 13.4622C27.007 14.2501 26.7677 15.038 26.2493 15.6239C25.8106 16.1492 25.1725 16.4523 24.355 16.4523C23.0191 16.4523 21.9225 15.2603 21.9225 13.8057V4.3305ZM12.9299 13.4622L14.0265 4.3305H17.9346V13.8057C17.9346 15.2603 16.838 16.4523 15.3624 16.4523C14.6845 16.4523 14.0664 16.1492 13.5879 15.6239C13.3393 15.3276 13.1528 14.9832 13.0397 14.6116C12.9266 14.24 12.8892 13.8489 12.9299 13.4622ZM4.05691 13.139L6.07077 4.3305H9.9988L8.84232 14.1491C8.68281 15.4623 7.64597 16.4523 6.42967 16.4523C5.45265 16.4523 4.83454 15.8664 4.57533 15.5027C4.03697 14.8562 3.85751 13.9875 4.05691 13.139ZM5.97107 32.6146V20.4322C6.13059 20.4524 6.27016 20.4928 6.42967 20.4928C8.16439 20.4928 9.73959 19.7655 10.8961 18.5736C12.0924 19.7857 13.6876 20.4928 15.502 20.4928C17.2367 20.4928 18.792 19.7655 19.9485 18.614C21.1249 19.7655 22.72 20.4928 24.5146 20.4928C26.1894 20.4928 27.7846 19.7857 28.9809 18.5736C30.1374 19.7655 31.7126 20.4928 33.4473 20.4928C33.6068 20.4928 33.7464 20.4524 33.9059 20.4322V32.6146H5.97107Z" fill="white"/>
</svg>
