<svg width="1315" height="502" viewBox="0 0 1315 502" fill="none" xmlns="http://www.w3.org/2000/svg">
<path opacity="0.4707" d="M5.27486 1101.74C0.565481 1013.4 -6.8795 908.874 22.1815 797.504C39.0535 733.418 69.4247 665.647 108.818 605.662C140.934 557.028 180.577 512.865 228.136 478.301C246.109 465.113 265.303 453.23 285.751 446.319C333.833 429.59 381.398 439.846 421.341 454.075C433.131 458.315 444.329 462.752 455.447 467.742C478.747 478.156 500.388 490.303 521.473 504.344C529.71 509.762 539.051 515.34 549.341 520.21C567.791 529.078 588.772 534.083 609.739 523.583C633.114 512.021 641.044 488.362 643.604 466.745C644.485 458.698 645.01 451.163 644.863 444.377C644.503 423.466 643.35 404.132 642.474 384.837C641.362 365.227 640.21 345.893 639.374 326.322C636.929 276.922 634.846 223.064 666.612 170.997C686.194 138.874 719.106 110.087 758.515 89.0035C784.182 75.2363 811.936 64.5894 840.391 58.8358C900.499 46.6633 956.077 54.1314 1010.23 63.6488C1063.32 72.7305 1115.3 83.6252 1171.18 79.2971C1197.38 77.4459 1223.51 72.2015 1249.68 64.7083C1282.32 55.3319 1315.44 42.642 1349.35 30.348C1383.26 18.0541 1418.4 7.06402 1449.54 0.289062" stroke="#4C5881" stroke-width="0.5326" stroke-miterlimit="10"/>
</svg>
