<svg width="241" height="272" viewBox="0 0 241 272" fill="none" xmlns="http://www.w3.org/2000/svg">
<rect x="57.3945" y="-27" width="340.748" height="81.1682" transform="rotate(45 57.3945 -27)" fill="#D90000"/>
<path d="M125.099 72.026L123.508 73.617L119.689 69.7986L112.193 77.2954L110.271 75.3734L119.358 66.2857L125.099 72.026ZM129.961 85.9505C129.019 86.8924 128.039 87.5585 127.021 87.9488C126.02 88.3391 125.006 88.4113 123.979 88.1652C122.952 87.9191 121.942 87.2997 120.95 86.3069C119.965 85.3226 119.346 84.3129 119.091 83.2777C118.845 82.251 118.917 81.2285 119.308 80.2102C119.707 79.2005 120.377 78.2247 121.319 77.2828C122.261 76.341 123.232 75.6749 124.233 75.2845C125.243 74.9027 126.257 74.8391 127.275 75.0936C128.311 75.3482 129.325 75.9718 130.317 76.9646C131.302 77.9489 131.917 78.9544 132.163 79.9811C132.417 80.9994 132.345 82.0134 131.947 83.0231C131.565 84.0329 130.903 85.0087 129.961 85.9505ZM123.33 79.3193C122.379 80.2696 121.811 81.203 121.624 82.1194C121.446 83.0274 121.76 83.8844 122.566 84.6905C123.389 85.5135 124.25 85.8317 125.15 85.6451C126.058 85.4499 126.987 84.8772 127.937 83.9268C128.896 82.968 129.469 82.0388 129.656 81.1394C129.842 80.2399 129.528 79.3829 128.714 78.5683C127.899 77.7538 127.038 77.4356 126.13 77.6138C125.222 77.7919 124.289 78.3605 123.33 79.3193ZM130.402 95.5044L128.48 93.5825L135.964 86.0985L133.495 83.6293L135.098 82.0256L141.959 88.8859L140.355 90.4896L137.886 88.0204L130.402 95.5044ZM146.828 102.818C145.886 103.759 144.906 104.425 143.888 104.816C142.887 105.206 141.873 105.278 140.846 105.032C139.819 104.786 138.809 104.167 137.817 103.174C136.832 102.19 136.213 101.18 135.958 100.145C135.712 99.1179 135.784 98.0955 136.175 97.0772C136.573 96.0675 137.244 95.0917 138.186 94.1498C139.128 93.2079 140.099 92.5418 141.1 92.1515C142.11 91.7697 143.124 91.706 144.142 91.9606C145.178 92.2152 146.192 92.8388 147.184 93.8316C148.169 94.8159 148.784 95.8214 149.03 96.8481C149.284 97.8664 149.212 98.8804 148.814 99.8901C148.432 100.9 147.77 101.876 146.828 102.818ZM140.197 96.1863C139.246 97.1366 138.678 98.07 138.491 98.9864C138.313 99.8943 138.627 100.751 139.433 101.557C140.256 102.381 141.117 102.699 142.017 102.512C142.925 102.317 143.854 101.744 144.804 100.794C145.763 99.8349 146.336 98.9058 146.522 98.0064C146.709 97.1069 146.395 96.2499 145.581 95.4353C144.766 94.6207 143.905 94.3025 142.997 94.4807C142.089 94.6589 141.156 95.2274 140.197 96.1863ZM156.067 102.994C157.281 104.208 158.027 105.294 158.307 106.253C158.587 107.212 158.299 108.12 157.442 108.977C156.924 109.494 156.364 109.808 155.762 109.918C155.168 110.037 154.608 109.91 154.082 109.537L154.018 109.6C154.264 109.965 154.434 110.347 154.527 110.746C154.62 111.145 154.595 111.56 154.451 111.993C154.306 112.426 153.997 112.88 153.522 113.355C152.698 114.178 151.757 114.526 150.696 114.399C149.635 114.271 148.587 113.69 147.552 112.655L144.154 109.257L153.242 100.169L156.067 102.994ZM152.682 106.813C153.242 107.373 153.717 107.67 154.107 107.704C154.506 107.746 154.875 107.598 155.214 107.258C155.562 106.91 155.685 106.533 155.583 106.125C155.482 105.718 155.155 105.239 154.603 104.687L153.585 103.669L151.561 105.693L152.682 106.813ZM150.034 107.22L147.667 109.587L148.927 110.848C149.504 111.425 150.017 111.717 150.467 111.726C150.925 111.726 151.341 111.539 151.714 111.166C152.054 110.826 152.206 110.436 152.172 109.995C152.155 109.554 151.841 109.027 151.231 108.417L150.034 107.22ZM152.705 117.808L161.793 108.72L163.715 110.642L160.228 114.13L160.851 114.753C161.691 115.593 162.264 116.404 162.57 117.184C162.875 117.965 162.947 118.691 162.786 119.361C162.633 120.04 162.29 120.646 161.755 121.181C160.855 122.08 159.858 122.484 158.764 122.39C157.678 122.288 156.486 121.588 155.187 120.29L152.705 117.808ZM160.024 125.127L169.112 116.039L171.034 117.961L161.946 127.049L160.024 125.127ZM156.715 118.661C157.283 119.229 157.822 119.582 158.331 119.717C158.849 119.862 159.341 119.7 159.808 119.234C160.291 118.75 160.44 118.262 160.253 117.77C160.075 117.286 159.68 116.739 159.069 116.128L158.649 115.708L156.206 118.152L156.715 118.661ZM169.471 134.574L164.24 129.343L173.328 120.255L178.559 125.486L176.981 127.065L173.671 123.755L171.673 125.754L174.753 128.834L173.175 130.412L170.095 127.332L167.753 129.674L171.062 132.983L169.471 134.574ZM186.136 136.017C185.398 135.278 184.558 134.99 183.616 135.151C182.674 135.312 181.724 135.872 180.765 136.831C179.798 137.798 179.225 138.728 179.047 139.619C178.886 140.509 179.204 141.354 180.001 142.151C180.375 142.525 180.786 142.851 181.236 143.131C181.694 143.42 182.216 143.704 182.802 143.984L181.185 145.601C180.625 145.363 180.112 145.087 179.645 144.773C179.178 144.459 178.703 144.061 178.22 143.577C177.286 142.644 176.705 141.68 176.476 140.688C176.264 139.695 176.361 138.706 176.769 137.722C177.184 136.729 177.859 135.766 178.792 134.833C179.709 133.916 180.685 133.272 181.72 132.898C182.755 132.525 183.786 132.453 184.813 132.682C185.848 132.919 186.824 133.496 187.74 134.413C188.19 134.863 188.58 135.372 188.911 135.94C189.259 136.509 189.543 137.098 189.764 137.709L187.575 138.651C187.396 138.151 187.193 137.667 186.964 137.2C186.743 136.742 186.467 136.347 186.136 136.017ZM188.335 153.437L189.837 150.612L186.527 147.303L183.702 148.804L181.627 146.73L193.96 140.811L196.315 143.166L190.409 155.512L188.335 153.437ZM192.446 145.763C192.548 145.576 192.675 145.338 192.828 145.05C192.98 144.761 193.137 144.469 193.299 144.172C193.46 143.875 193.604 143.62 193.731 143.408C193.519 143.535 193.248 143.688 192.917 143.866C192.603 144.044 192.297 144.214 192 144.375C191.72 144.536 191.517 144.647 191.389 144.706L188.627 146.17L190.995 148.537L192.446 145.763ZM210.958 151.903C210.474 152.302 209.961 152.569 209.418 152.705C208.883 152.832 208.306 152.773 207.687 152.527C207.067 152.28 206.393 151.793 205.663 151.063C204.916 150.316 204.42 149.642 204.174 149.039C203.945 148.437 203.906 147.881 204.059 147.372C204.212 146.863 204.5 146.362 204.925 145.87L206.617 147.563C206.193 148.072 206.002 148.5 206.045 148.848C206.087 149.196 206.329 149.591 206.77 150.032C207.135 150.397 207.513 150.613 207.903 150.681C208.31 150.749 208.756 150.583 209.239 150.185L210.958 151.903ZM200.648 147.575L202.379 149.306L197.988 153.697C197.776 153.91 197.534 154.143 197.262 154.398C196.991 154.652 196.724 154.902 196.461 155.148C196.206 155.386 195.981 155.594 195.786 155.772C195.599 155.942 195.468 156.056 195.391 156.116L195.43 156.154L206.528 153.456L208.832 155.759L199.744 164.847L198.026 163.129L202.392 158.763C202.621 158.534 202.875 158.288 203.155 158.025C203.444 157.753 203.72 157.495 203.983 157.249C204.254 157.011 204.488 156.803 204.683 156.625C204.895 156.447 205.035 156.332 205.103 156.281L205.052 156.23L193.877 158.98L191.56 156.663L200.648 147.575ZM205.539 170.641L203.617 168.72L211.101 161.236L208.632 158.766L210.235 157.163L217.096 164.023L215.492 165.627L213.023 163.157L205.539 170.641ZM209.409 174.512L218.497 165.424L220.419 167.346L216.931 170.834L217.555 171.457C218.395 172.297 218.968 173.108 219.273 173.888C219.579 174.669 219.651 175.394 219.49 176.065C219.337 176.744 218.993 177.35 218.459 177.885C217.559 178.784 216.562 179.187 215.468 179.094C214.382 178.992 213.189 178.292 211.891 176.994L209.409 174.512ZM216.728 181.831L225.816 172.743L227.737 174.665L218.65 183.752L216.728 181.831ZM213.419 175.365C213.987 175.933 214.526 176.285 215.035 176.421C215.553 176.565 216.045 176.404 216.511 175.938C216.995 175.454 217.144 174.966 216.957 174.474C216.779 173.99 216.384 173.443 215.773 172.832L215.353 172.412L212.909 174.856L213.419 175.365ZM87.9823 70.2649L80.4983 77.7489L81.7074 78.9581L77.4563 83.2092L75.598 81.3509L78.2454 78.7035L72.556 73.0141L69.9086 75.6615L68.0503 73.8033L72.3015 69.5521L73.0015 70.2522C73.9603 69.9382 74.9404 69.5606 75.9417 69.1194C76.9514 68.6697 78.0121 68.1096 79.1236 67.4393C80.2437 66.7774 81.4316 65.9544 82.6875 64.9701L87.9823 70.2649ZM82.6111 68.1011C81.9492 68.6103 81.1898 69.1236 80.3328 69.6412C79.4928 70.1588 78.6145 70.6467 77.6981 71.1049C76.7902 71.5547 75.8992 71.945 75.0253 72.2759L78.5763 75.827L84.4566 69.9467L82.6111 68.1011ZM88.6909 89.149L86.7689 87.227L94.253 79.743L92.0256 77.5156C91.5843 77.855 91.1049 78.2242 90.5873 78.623C90.0782 79.0303 89.5521 79.4375 89.0091 79.8448C88.483 80.2521 87.9739 80.634 87.4817 80.9904C86.998 81.3383 86.5611 81.6395 86.1707 81.894C85.5343 82.3098 84.9361 82.611 84.3761 82.7977C83.8246 82.9929 83.29 83.0268 82.7724 82.8995C82.2633 82.7808 81.7541 82.4668 81.245 81.9577C80.9141 81.6268 80.6553 81.2746 80.4686 80.9013L82.0469 79.323C82.1233 79.4672 82.1996 79.603 82.276 79.7303C82.3608 79.8661 82.4669 79.9976 82.5942 80.1249C82.8403 80.3709 83.1542 80.4303 83.5361 80.303C83.9349 80.1758 84.5585 79.8236 85.4071 79.2466C85.7295 79.026 86.2259 78.6739 86.8962 78.1902C87.5666 77.7066 88.343 77.1338 89.2254 76.4719C90.1249 75.8101 91.0625 75.0931 92.0383 74.3209L97.7786 80.0612L88.6909 89.149ZM97.5255 91.0087L91.9125 92.3706L89.7742 90.2323L96.3546 88.8195C96.2103 88.4716 96.1127 88.0771 96.0618 87.6358C96.0194 87.1861 96.083 86.7152 96.2527 86.223C96.4309 85.7224 96.7661 85.226 97.2582 84.7339C98.0983 83.8938 99.0402 83.5544 100.084 83.7156C101.136 83.8684 102.205 84.4878 103.291 85.5739L106.244 88.5268L97.1564 97.6145L95.2345 95.6926L98.722 92.2051L97.5255 91.0087ZM101.789 87.2285C101.297 86.7364 100.822 86.4394 100.364 86.3376C99.9141 86.2442 99.4814 86.4055 99.0656 86.8212C98.6668 87.22 98.4801 87.6698 98.5056 88.1704C98.548 88.671 98.8408 89.1929 99.3838 89.7359L100.287 90.6396L102.744 88.1831L101.789 87.2285ZM106.598 107.056L111.536 97.7393L111.486 97.6884C111.324 97.8666 111.083 98.1339 110.76 98.4903C110.438 98.8466 110.09 99.2285 109.716 99.6358C109.352 100.035 109.012 100.391 108.698 100.705L104.472 104.931L102.754 103.212L111.842 94.1246L114.464 96.7465L109.665 105.847L109.704 105.885L118.931 101.214L121.553 103.836L112.466 112.924L110.671 111.129L114.973 106.827C115.262 106.539 115.597 106.212 115.979 105.847C116.369 105.491 116.734 105.151 117.073 104.829C117.43 104.506 117.697 104.264 117.875 104.103L117.824 104.052L108.367 108.825L106.598 107.056ZM120.323 120.781L121.825 117.956L118.516 114.647L115.69 116.148L113.616 114.074L125.949 108.155L128.304 110.51L122.398 122.856L120.323 120.781ZM124.434 113.106C124.536 112.92 124.664 112.682 124.816 112.394C124.969 112.105 125.126 111.812 125.287 111.515C125.448 111.219 125.593 110.964 125.72 110.752C125.508 110.879 125.236 111.032 124.905 111.21C124.591 111.388 124.286 111.558 123.989 111.719C123.709 111.88 123.505 111.991 123.378 112.05L120.616 113.514L122.983 115.881L124.434 113.106ZM130.74 131.198L128.818 129.276L136.302 121.792L134.075 119.565C133.634 119.904 133.154 120.274 132.637 120.672C132.128 121.08 131.601 121.487 131.058 121.894C130.532 122.302 130.023 122.683 129.531 123.04C129.047 123.388 128.61 123.689 128.22 123.943C127.584 124.359 126.985 124.66 126.425 124.847C125.874 125.042 125.339 125.076 124.822 124.949C124.313 124.83 123.804 124.516 123.294 124.007C122.963 123.676 122.705 123.324 122.518 122.951L124.096 121.372C124.173 121.517 124.249 121.652 124.325 121.78C124.41 121.915 124.516 122.047 124.644 122.174C124.89 122.42 125.204 122.48 125.585 122.352C125.984 122.225 126.608 121.873 127.456 121.296C127.779 121.075 128.275 120.723 128.946 120.24C129.616 119.756 130.392 119.183 131.275 118.521C132.174 117.859 133.112 117.142 134.088 116.37L139.828 122.111L130.74 131.198ZM145.837 137.182C144.895 138.124 143.915 138.79 142.897 139.18C141.896 139.571 140.882 139.643 139.855 139.397C138.828 139.151 137.818 138.531 136.826 137.538C135.841 136.554 135.222 135.544 134.967 134.509C134.721 133.482 134.793 132.46 135.184 131.442C135.583 130.432 136.253 129.456 137.195 128.514C138.137 127.572 139.108 126.906 140.109 126.516C141.119 126.134 142.133 126.07 143.151 126.325C144.187 126.58 145.201 127.203 146.193 128.196C147.178 129.18 147.793 130.186 148.039 131.213C148.294 132.231 148.221 133.245 147.823 134.255C147.441 135.264 146.779 136.24 145.837 137.182ZM139.206 130.551C138.255 131.501 137.687 132.434 137.5 133.351C137.322 134.259 137.636 135.116 138.442 135.922C139.265 136.745 140.126 137.063 141.026 136.876C141.934 136.681 142.863 136.109 143.813 135.158C144.772 134.199 145.345 133.27 145.532 132.371C145.718 131.471 145.404 130.614 144.59 129.8C143.775 128.985 142.914 128.667 142.006 128.845C141.098 129.023 140.165 129.592 139.206 130.551ZM157.991 140.274L156.4 141.865L152.582 138.046L145.085 145.543L143.163 143.621L152.251 134.533L157.991 140.274ZM162.853 154.198C161.911 155.14 160.931 155.806 159.913 156.196C158.912 156.587 157.898 156.659 156.871 156.413C155.844 156.167 154.835 155.547 153.842 154.554C152.858 153.57 152.238 152.56 151.984 151.525C151.737 150.498 151.81 149.476 152.2 148.458C152.599 147.448 153.269 146.472 154.211 145.53C155.153 144.588 156.124 143.922 157.126 143.532C158.135 143.15 159.149 143.087 160.168 143.341C161.203 143.596 162.217 144.219 163.21 145.212C164.194 146.196 164.809 147.202 165.055 148.229C165.31 149.247 165.238 150.261 164.839 151.271C164.457 152.28 163.795 153.256 162.853 154.198ZM156.222 147.567C155.272 148.517 154.703 149.451 154.516 150.367C154.338 151.275 154.652 152.132 155.458 152.938C156.281 153.761 157.143 154.079 158.042 153.893C158.95 153.697 159.879 153.125 160.829 152.174C161.788 151.216 162.361 150.286 162.548 149.387C162.734 148.487 162.42 147.63 161.606 146.816C160.791 146.001 159.93 145.683 159.022 145.861C158.114 146.039 157.181 146.608 156.222 147.567ZM163.485 163.943L172.573 154.856L178.313 160.596L176.722 162.187L172.904 158.369L171.008 160.265L171.771 161.029C172.628 161.886 173.209 162.705 173.515 163.485C173.829 164.274 173.909 165.008 173.757 165.687C173.604 166.366 173.26 166.973 172.726 167.507C171.826 168.407 170.825 168.805 169.722 168.704C168.636 168.602 167.439 167.898 166.133 166.591L163.485 163.943ZM167.635 164.936C168.22 165.522 168.772 165.887 169.289 166.031C169.815 166.184 170.312 166.027 170.778 165.56C171.262 165.076 171.398 164.576 171.186 164.058C170.974 163.54 170.554 162.968 169.926 162.34L169.429 161.843L166.985 164.287L167.635 164.936ZM180.69 162.972L182.421 164.703L178.029 169.094C177.817 169.306 177.575 169.54 177.304 169.794C177.032 170.049 176.765 170.299 176.502 170.545C176.248 170.783 176.023 170.991 175.828 171.169C175.641 171.339 175.509 171.453 175.433 171.513L175.471 171.551L186.57 168.852L188.874 171.156L179.786 180.244L178.068 178.526L182.433 174.16C182.662 173.931 182.917 173.685 183.197 173.422C183.485 173.15 183.761 172.891 184.024 172.645C184.296 172.408 184.529 172.2 184.724 172.022C184.936 171.844 185.076 171.729 185.144 171.678L185.093 171.627L173.918 174.376L171.602 172.06L180.69 162.972ZM195.317 181.851C194.706 182.462 193.998 182.737 193.191 182.678C192.385 182.619 191.6 182.301 190.837 181.724L190.799 181.762C191.545 182.678 191.948 183.548 192.008 184.371C192.084 185.194 191.821 185.907 191.219 186.509C190.421 187.307 189.441 187.634 188.278 187.489C187.133 187.345 185.932 186.645 184.676 185.389C183.989 184.702 183.421 184.048 182.971 183.429C182.53 182.818 182.195 182.237 181.965 181.685L183.582 180.069C183.718 180.459 183.904 180.866 184.142 181.291C184.388 181.707 184.655 182.11 184.944 182.5C185.241 182.882 185.534 183.217 185.822 183.505C186.628 184.312 187.324 184.778 187.909 184.905C188.512 185.033 189.025 184.884 189.449 184.46C189.882 184.027 189.933 183.45 189.602 182.729C189.28 181.999 188.673 181.189 187.782 180.298L186.929 179.445L188.431 177.943L189.195 178.707C189.916 179.428 190.523 179.942 191.015 180.247C191.507 180.553 191.923 180.697 192.262 180.68C192.602 180.663 192.894 180.531 193.141 180.285C193.455 179.971 193.561 179.585 193.459 179.127C193.374 178.669 193.056 178.164 192.504 177.612C192.037 177.146 191.528 176.772 190.977 176.492C190.434 176.221 189.874 176.017 189.297 175.881L189.742 173.756C190.514 173.917 191.274 174.193 192.021 174.583C192.767 174.973 193.531 175.559 194.312 176.34C195.338 177.366 195.924 178.376 196.068 179.369C196.221 180.37 195.97 181.197 195.317 181.851ZM197.779 198.237L195.857 196.315L199.777 192.395L196.175 188.793L192.255 192.713L190.333 190.791L199.421 181.704L201.343 183.626L197.779 187.189L201.381 190.791L204.945 187.228L206.867 189.149L197.779 198.237ZM205.297 205.755L200.066 200.524L209.153 191.436L214.385 196.667L212.806 198.245L209.497 194.936L207.499 196.934L210.579 200.015L209.001 201.593L205.92 198.513L203.579 200.855L206.888 204.164L205.297 205.755ZM218.656 203.891C217.917 203.153 217.077 202.864 216.136 203.026C215.194 203.187 214.243 203.747 213.284 204.706C212.317 205.673 211.744 206.602 211.566 207.493C211.405 208.384 211.723 209.228 212.521 210.026C212.894 210.399 213.306 210.726 213.755 211.006C214.214 211.295 214.735 211.579 215.321 211.859L213.705 213.475C213.144 213.238 212.631 212.962 212.164 212.648C211.698 212.334 211.223 211.935 210.739 211.452C209.806 210.518 209.224 209.555 208.995 208.562C208.783 207.57 208.881 206.581 209.288 205.597C209.704 204.604 210.378 203.641 211.312 202.707C212.228 201.791 213.204 201.146 214.239 200.773C215.274 200.399 216.305 200.327 217.332 200.556C218.367 200.794 219.343 201.371 220.259 202.287C220.709 202.737 221.099 203.246 221.43 203.815C221.778 204.383 222.063 204.973 222.283 205.584L220.094 206.526C219.916 206.025 219.712 205.542 219.483 205.075C219.262 204.617 218.987 204.222 218.656 203.891ZM220.854 221.312L222.356 218.487L219.047 215.177L216.221 216.679L214.146 214.605L226.48 208.686L228.834 211.041L222.929 223.387L220.854 221.312ZM224.965 213.637C225.067 213.451 225.194 213.213 225.347 212.924C225.5 212.636 225.657 212.343 225.818 212.046C225.979 211.749 226.123 211.495 226.251 211.283C226.039 211.41 225.767 211.563 225.436 211.741C225.122 211.919 224.817 212.089 224.52 212.25C224.24 212.411 224.036 212.521 223.909 212.581L221.147 214.044L223.514 216.412L224.965 213.637Z" fill="white"/>
</svg>
