<svg width="31" height="31" viewBox="0 0 31 31" fill="none" xmlns="http://www.w3.org/2000/svg">
<path d="M15.5 0C6.9533 0 0 6.9533 0 15.5C0 24.0467 6.9533 31 15.5 31C24.0467 31 31 24.0467 31 15.5C31 6.9533 24.0467 0 15.5 0ZM15.5 27.9C8.66295 27.9 3.1 22.337 3.1 15.5C3.1 8.66295 8.66295 3.1 15.5 3.1C22.337 3.1 27.9 8.66295 27.9 15.5C27.9 22.337 22.337 27.9 15.5 27.9Z" fill="white"/>
<path d="M12.3984 17.9599L8.83498 14.4026L6.64638 16.5974L12.4015 22.3402L22.7958 11.9459L20.6041 9.75417L12.3984 17.9599Z" fill="white"/>
</svg>
