<svg width="23" height="23" viewBox="0 0 23 23" fill="none" xmlns="http://www.w3.org/2000/svg">
<g clip-path="url(#clip0)">
<path d="M11.5 23C17.8513 23 23 17.8513 23 11.5C23 5.14873 17.8513 0 11.5 0C5.14873 0 0 5.14873 0 11.5C0 17.8513 5.14873 23 11.5 23Z" fill="#F0F0F0"/>
<path d="M11 11.5H23C23 10.4621 22.8616 9.45652 22.6038 8.5H11V11.5Z" fill="#D80027"/>
<path d="M11 5.50002H21.3121C20.6081 4.35127 19.708 3.33591 18.6586 2.5H11V5.50002Z" fill="#D80027"/>
<path d="M11.5004 23C14.2069 23 16.6945 22.0646 18.6589 20.5H4.3418C6.30623 22.0646 8.79387 23 11.5004 23Z" fill="#D80027"/>
<path d="M1.68821 17.5H21.3124C21.8776 16.5778 22.3159 15.5697 22.6042 14.5H0.396484C0.684748 15.5697 1.12305 16.5778 1.68821 17.5Z" fill="#D80027"/>
<path d="M5.32702 1.79589H6.375L5.40019 2.50408L5.77255 3.64999L4.79779 2.9418L3.82303 3.64999L4.14467 2.66005C3.28639 3.37498 2.53413 4.21259 1.91421 5.14589H2.25L1.6295 5.59668C1.53282 5.75795 1.44011 5.92178 1.35125 6.08804L1.64755 7L1.09475 6.59835C0.95733 6.88949 0.831639 7.18719 0.71866 7.49108L1.04511 8.49589H2.25L1.2752 9.20409L1.64755 10.35L0.672795 9.64181L0.0889004 10.066C0.030457 10.5358 0 11.0143 0 11.5H11.5C11.5 5.14877 11.5 4.40001 11.5 0C9.22821 0 7.11046 0.659004 5.32702 1.79589ZM5.77255 10.35L4.79779 9.64181L3.82303 10.35L4.19539 9.20409L3.22058 8.49589H4.42548L4.79779 7.34998L5.1701 8.49589H6.375L5.40019 9.20409L5.77255 10.35ZM5.40019 5.85408L5.77255 7L4.79779 6.2918L3.82303 7L4.19539 5.85408L3.22058 5.14589H4.42548L4.79779 3.99998L5.1701 5.14589H6.375L5.40019 5.85408ZM9.89755 10.35L8.92279 9.64181L7.94803 10.35L8.32038 9.20409L7.34558 8.49589H8.55048L8.92279 7.34998L9.2951 8.49589H10.5L9.52519 9.20409L9.89755 10.35ZM9.52519 5.85408L9.89755 7L8.92279 6.2918L7.94803 7L8.32038 5.85408L7.34558 5.14589H8.55048L8.92279 3.99998L9.2951 5.14589H10.5L9.52519 5.85408ZM9.52519 2.50408L9.89755 3.64999L8.92279 2.9418L7.94803 3.64999L8.32038 2.50408L7.34558 1.79589H8.55048L8.92279 0.649975L9.2951 1.79589H10.5L9.52519 2.50408Z" fill="#0052B4"/>
</g>
<defs>
<clipPath id="clip0">
<rect width="23" height="23" fill="white"/>
</clipPath>
</defs>
</svg>
