<svg width="69" height="74" viewBox="0 0 69 74" fill="none" xmlns="http://www.w3.org/2000/svg">
<path d="M34.3053 71.0004H33.6928L2.50025 52.2849C2.49995 49.9622 2.49999 29.7537 2.50002 13.0918C2.50003 9.29202 2.50003 5.6767 2.50003 2.50001C2.56757 2.50001 2.63724 2.50001 2.70901 2.50002C10.8101 2.50009 45.752 2.5004 66 2.50041L66.0003 51.9562C65.9798 51.974 65.9595 51.9921 65.9392 52.0106C65.8854 52.0599 65.8345 52.1099 65.7862 52.1604C65.6367 52.2595 65.4133 52.4026 65.1124 52.5909C64.4849 52.9838 63.584 53.5342 62.4656 54.21C60.2319 55.5597 57.1711 57.385 53.7854 59.3982C52.1593 60.3651 50.4584 61.3752 48.7396 62.396C43.5758 65.4628 38.2504 68.6255 34.3053 71.0004Z" fill="white" stroke="url(#paint0_linear)" stroke-width="5"/>
<path d="M29.4275 57.7866H28.8188V57H26.8896V57.7844H26.2656L26.2305 56.4705H26.4722C26.6025 56.3621 26.7029 56.2031 26.7732 55.9937C26.845 55.7827 26.8933 55.522 26.9182 55.2114L27.0105 53.8008H29.1067V56.4705H29.4802L29.4275 57.7866ZM27.228 56.4705H28.4475V54.3347H27.6367L27.5818 55.1763C27.5378 55.7402 27.4199 56.1716 27.228 56.4705Z" fill="#7C7C7C"/>
<path d="M31.7456 53.8008H32.407V57H31.7456V54.8752L30.4646 57H29.8054V53.8008H30.4646V55.9299L31.7456 53.8008Z" fill="#7C7C7C"/>
<path d="M33.6375 55.8728V57H32.9783V53.8008H34.2263C34.4666 53.8008 34.6775 53.8447 34.8591 53.9326C35.0422 54.0205 35.1829 54.1458 35.281 54.3083C35.3792 54.4695 35.4282 54.6533 35.4282 54.8599C35.4282 55.1733 35.3206 55.4209 35.1052 55.6025C34.8914 55.7827 34.5947 55.8728 34.2153 55.8728H33.6375ZM33.6375 55.3389H34.2263C34.4006 55.3389 34.5332 55.2979 34.624 55.2158C34.7163 55.1338 34.7625 55.0166 34.7625 54.8643C34.7625 54.7075 34.7163 54.5808 34.624 54.4841C34.5317 54.3875 34.4043 54.3376 34.2417 54.3347H33.6375V55.3389Z" fill="#7C7C7C"/>
<path d="M37.8079 55.6135H36.5422V56.4705H38.0276V57H35.8831V53.8008H38.0232V54.3347H36.5422V55.0972H37.8079V55.6135Z" fill="#7C7C7C"/>
<path d="M39.458 55.6926H39.0779V57H38.4187V53.8008H39.0779V55.0818H39.3789L40.1611 53.8008H40.9653L39.9788 55.3147L41.0686 57H40.282L39.458 55.6926Z" fill="#7C7C7C"/>
<path d="M43.7317 54.3347H42.7517V57H42.0925V54.3347H41.1257V53.8008H43.7317V54.3347Z" fill="#7C7C7C"/>
<path d="M14.2356 15.9331C14.2143 16.2269 14.105 16.4581 13.9079 16.6269C13.712 16.7956 13.4534 16.88 13.1319 16.88C12.7804 16.88 12.5035 16.7625 12.3013 16.5275C12.1004 16.2912 12 15.9675 12 15.5563V15.3894C12 15.1269 12.0465 14.8956 12.1394 14.6956C12.2323 14.4956 12.3648 14.3425 12.5368 14.2363C12.71 14.1287 12.9109 14.075 13.1395 14.075C13.4559 14.075 13.7108 14.1594 13.9041 14.3281C14.0975 14.4969 14.2092 14.7338 14.2394 15.0388H13.6743C13.6605 14.8625 13.6109 14.735 13.5256 14.6562C13.4414 14.5763 13.3127 14.5362 13.1395 14.5362C12.9511 14.5362 12.8099 14.6037 12.7157 14.7388C12.6228 14.8725 12.5751 15.0806 12.5726 15.3631V15.5694C12.5726 15.8644 12.6171 16.08 12.7063 16.2162C12.7967 16.3525 12.9386 16.4206 13.1319 16.4206C13.3065 16.4206 13.4364 16.3813 13.5218 16.3025C13.6084 16.2225 13.658 16.0994 13.6706 15.9331H14.2356Z" fill="#231F20"/>
<path d="M16.2565 15.6594H15.1716V16.3906H16.4448V16.8425H14.6066V14.1125H16.4411V14.5681H15.1716V15.2188H16.2565V15.6594Z" fill="#231F20"/>
<path d="M17.3413 15.8806V16.8425H16.7763V14.1125H17.8461C18.052 14.1125 18.2328 14.15 18.3885 14.225C18.5454 14.3 18.666 14.4069 18.7501 14.5456C18.8342 14.6831 18.8763 14.84 18.8763 15.0163C18.8763 15.2838 18.784 15.495 18.5994 15.65C18.4161 15.8038 18.1619 15.8806 17.8367 15.8806H17.3413ZM17.3413 15.425H17.8461C17.9955 15.425 18.1091 15.39 18.187 15.32C18.2661 15.25 18.3056 15.15 18.3056 15.02C18.3056 14.8863 18.2661 14.7781 18.187 14.6956C18.1079 14.6131 17.9986 14.5706 17.8593 14.5681H17.3413V15.425Z" fill="#231F20"/>
<path d="M21.3304 14.5681H20.4904V16.8425H19.9253V14.5681H19.0967V14.1125H21.3304V14.5681Z" fill="#231F20"/>
<path d="M23.2985 14.1125H23.8654V16.8425H23.2985V15.0294L22.2005 16.8425H21.6355V14.1125H22.2005V15.9294L23.2985 14.1125Z" fill="#231F20"/>
<path d="M25.9654 14.3563H25.9993C26.214 14.3563 26.408 14.4038 26.5813 14.4988C26.7558 14.5925 26.8914 14.7262 26.9881 14.9C27.0848 15.0738 27.1331 15.2713 27.1331 15.4925C27.1331 15.82 27.0277 16.0875 26.8167 16.295C26.607 16.5025 26.3233 16.6063 25.9654 16.6063V16.955H25.4211V16.6063H25.3853C25.1681 16.6063 24.9722 16.56 24.7977 16.4675C24.6232 16.3737 24.4876 16.2425 24.3909 16.0738C24.2955 15.905 24.2478 15.7125 24.2478 15.4963C24.2478 15.2775 24.2955 15.0819 24.3909 14.9094C24.4863 14.7369 24.62 14.6025 24.7921 14.5063C24.9641 14.4087 25.1562 14.3588 25.3684 14.3563H25.4211V14H25.9654V14.3563ZM25.3853 14.8231C25.1982 14.8231 25.0507 14.8819 24.9427 14.9994C24.836 15.1169 24.7826 15.2825 24.7826 15.4963C24.7826 15.6963 24.836 15.8537 24.9427 15.9688C25.0495 16.0825 25.1995 16.1394 25.3929 16.1394H25.4211V14.8231H25.3853ZM25.9654 14.8231V16.1394H26.0031C26.1877 16.1394 26.3327 16.0819 26.4381 15.9669C26.5449 15.8506 26.5982 15.6925 26.5982 15.4925C26.5982 15.2838 26.5461 15.12 26.4419 15.0013C26.3377 14.8825 26.1883 14.8231 25.9937 14.8231H25.9654Z" fill="#231F20"/>
<path d="M29.1484 14.1125H29.7153V16.8425H29.1484V15.0294L28.0503 16.8425H27.4853V14.1125H28.0503V15.9294L29.1484 14.1125Z" fill="#231F20"/>
<path d="M30.1805 14.1125H30.7455V16.3906H31.8435V14.1125H32.4104V16.3906H32.7852L32.7475 17.5006H32.2202V16.8425H30.1805V14.1125Z" fill="#231F20"/>
<path d="M34.776 14.1125H35.3429V16.8425H34.776V15.0294L33.6779 16.8425H33.1129V14.1125H33.6779V15.9294L34.776 14.1125Z" fill="#231F20"/>
<path d="M36.3976 15.8806V16.8425H35.8325V14.1125H36.9023C37.1082 14.1125 37.289 14.15 37.4447 14.225C37.6017 14.3 37.7222 14.4069 37.8064 14.5456C37.8905 14.6831 37.9325 14.84 37.9325 15.0163C37.9325 15.2838 37.8403 15.495 37.6557 15.65C37.4724 15.8038 37.2181 15.8806 36.8929 15.8806H36.3976ZM36.3976 15.425H36.9023C37.0517 15.425 37.1654 15.39 37.2432 15.32C37.3223 15.25 37.3619 15.15 37.3619 15.02C37.3619 14.8863 37.3223 14.7781 37.2432 14.6956C37.1641 14.6131 37.0549 14.5706 36.9155 14.5681H36.3976V15.425Z" fill="#231F20"/>
<path d="M40.575 15.5394C40.575 15.8081 40.5272 16.0438 40.4318 16.2463C40.3364 16.4488 40.1995 16.605 40.0212 16.715C39.8442 16.825 39.6408 16.88 39.411 16.88C39.1837 16.88 38.981 16.8256 38.8027 16.7169C38.6244 16.6081 38.4863 16.4531 38.3883 16.2519C38.2904 16.0494 38.2408 15.8169 38.2395 15.5544V15.4194C38.2395 15.1506 38.2879 14.9144 38.3846 14.7106C38.4825 14.5056 38.62 14.3487 38.797 14.24C38.9753 14.13 39.1787 14.075 39.4072 14.075C39.6358 14.075 39.8385 14.13 40.0156 14.24C40.1939 14.3487 40.3314 14.5056 40.428 14.7106C40.526 14.9144 40.575 15.15 40.575 15.4175V15.5394ZM40.0024 15.4156C40.0024 15.1294 39.9509 14.9119 39.848 14.7631C39.745 14.6144 39.5981 14.54 39.4072 14.54C39.2176 14.54 39.0714 14.6138 38.9684 14.7613C38.8655 14.9075 38.8133 15.1225 38.8121 15.4062V15.5394C38.8121 15.8181 38.8636 16.0344 38.9665 16.1881C39.0695 16.3419 39.2176 16.4188 39.411 16.4188C39.6006 16.4188 39.7463 16.345 39.848 16.1975C39.9497 16.0488 40.0011 15.8325 40.0024 15.5488V15.4156Z" fill="#231F20"/>
<path d="M40.9855 16.8425V14.1125H41.9461C42.2788 14.1125 42.5312 14.1763 42.7032 14.3038C42.8752 14.43 42.9612 14.6156 42.9612 14.8606C42.9612 14.9944 42.9267 15.1125 42.8576 15.215C42.7886 15.3163 42.6925 15.3906 42.5695 15.4381C42.7101 15.4731 42.8206 15.5438 42.901 15.65C42.9826 15.7563 43.0234 15.8863 43.0234 16.04C43.0234 16.3025 42.9392 16.5013 42.771 16.6363C42.6027 16.7713 42.3629 16.84 42.0515 16.8425H40.9855ZM41.5506 15.6538V16.3906H42.0346C42.1677 16.3906 42.2713 16.3594 42.3453 16.2969C42.4207 16.2331 42.4584 16.1456 42.4584 16.0344C42.4584 15.7844 42.3284 15.6575 42.0685 15.6538H41.5506ZM41.5506 15.2563H41.9687C42.2537 15.2513 42.3962 15.1381 42.3962 14.9169C42.3962 14.7931 42.3598 14.7044 42.287 14.6506C42.2154 14.5956 42.1018 14.5681 41.9461 14.5681H41.5506V15.2563Z" fill="#231F20"/>
<path d="M44.9972 16.28H44.0065L43.8182 16.8425H43.2174L44.2382 14.1125H44.7617L45.7882 16.8425H45.1874L44.9972 16.28ZM44.1591 15.8244H44.8446L44.5 14.8025L44.1591 15.8244Z" fill="#231F20"/>
<path d="M48.2762 16.8425H47.7112V15.6725H46.6094V16.8425H46.0443V14.1125H46.6094V15.2188H47.7112V14.1125H48.2762V16.8425Z" fill="#231F20"/>
<path d="M51.0033 16.8425H50.4383V15.6725H49.3365V16.8425H48.7715V14.1125H49.3365V15.2188H50.4383V14.1125H51.0033V16.8425Z" fill="#231F20"/>
<path d="M53.7512 15.5394C53.7512 15.8081 53.7035 16.0438 53.6081 16.2463C53.5127 16.4488 53.3758 16.605 53.1975 16.715C53.0205 16.825 52.8171 16.88 52.5873 16.88C52.36 16.88 52.1572 16.8256 51.9789 16.7169C51.8006 16.6081 51.6625 16.4531 51.5646 16.2519C51.4667 16.0494 51.4171 15.8169 51.4158 15.5544V15.4194C51.4158 15.1506 51.4641 14.9144 51.5608 14.7106C51.6588 14.5056 51.7962 14.3487 51.9733 14.24C52.1516 14.13 52.355 14.075 52.5835 14.075C52.812 14.075 53.0148 14.13 53.1918 14.24C53.3701 14.3487 53.5076 14.5056 53.6043 14.7106C53.7023 14.9144 53.7512 15.15 53.7512 15.4175V15.5394ZM53.1787 15.4156C53.1787 15.1294 53.1272 14.9119 53.0242 14.7631C52.9213 14.6144 52.7744 14.54 52.5835 14.54C52.3939 14.54 52.2476 14.6138 52.1447 14.7613C52.0417 14.9075 51.9896 15.1225 51.9884 15.4062V15.5394C51.9884 15.8181 52.0398 16.0344 52.1428 16.1881C52.2458 16.3419 52.3939 16.4188 52.5873 16.4188C52.7769 16.4188 52.9225 16.345 53.0242 16.1975C53.1259 16.0488 53.1774 15.8325 53.1787 15.5488V15.4156Z" fill="#231F20"/>
<path d="M55.8117 15.6594H54.7268V16.3906H56V16.8425H54.1618V14.1125H55.9962V14.5681H54.7268V15.2188H55.8117V15.6594Z" fill="#231F20"/>
<path d="M26.3714 21.4H25.3807L25.1924 21.9625H24.5916L25.6124 19.2325H26.136L27.1624 21.9625H26.5616L26.3714 21.4ZM25.5333 20.9444H26.2188L25.8742 19.9225L25.5333 20.9444Z" fill="#231F20"/>
<path d="M29.2172 19.6881H27.9873V21.9625H27.4223V19.2325H29.2172V19.6881Z" fill="#231F20"/>
<path d="M31.2193 20.7794H30.1344V21.5106H31.4076V21.9625H29.5694V19.2325H31.4038V19.6881H30.1344V20.3388H31.2193V20.7794Z" fill="#231F20"/>
<path d="M33.9709 21.9625H33.4059V20.7925H32.3041V21.9625H31.7391V19.2325H32.3041V20.3388H33.4059V19.2325H33.9709V21.9625Z" fill="#231F20"/>
<path d="M36.619 21.0531C36.5976 21.3469 36.4884 21.5781 36.2913 21.7469C36.0954 21.9156 35.8367 22 35.5153 22C35.1637 22 34.8869 21.8825 34.6847 21.6475C34.4838 21.4113 34.3834 21.0875 34.3834 20.6762V20.5094C34.3834 20.2469 34.4298 20.0156 34.5227 19.8156C34.6157 19.6156 34.7481 19.4625 34.9201 19.3563C35.0934 19.2488 35.2943 19.195 35.5228 19.195C35.8392 19.195 36.0941 19.2794 36.2875 19.4481C36.4809 19.6169 36.5926 19.8538 36.6227 20.1588H36.0577C36.0439 19.9825 35.9943 19.855 35.9089 19.7763C35.8248 19.6962 35.6961 19.6562 35.5228 19.6562C35.3345 19.6562 35.1932 19.7238 35.0991 19.8588C35.0062 19.9925 34.9584 20.2006 34.9559 20.4831V20.6894C34.9559 20.9844 35.0005 21.2 35.0897 21.3363C35.1801 21.4725 35.3219 21.5406 35.5153 21.5406C35.6898 21.5406 35.8198 21.5013 35.9052 21.4225C35.9918 21.3425 36.0414 21.2194 36.054 21.0531H36.619Z" fill="#231F20"/>
<path d="M38.9977 19.6881H38.1577V21.9625H37.5927V19.6881H36.764V19.2325H38.9977V19.6881Z" fill="#231F20"/>
<path d="M39.3217 21.9625V19.2325H40.2822C40.6149 19.2325 40.8673 19.2963 41.0393 19.4237C41.2113 19.55 41.2973 19.7356 41.2973 19.9806C41.2973 20.1144 41.2628 20.2325 41.1938 20.335C41.1247 20.4363 41.0286 20.5106 40.9056 20.5581C41.0462 20.5931 41.1567 20.6638 41.2371 20.77C41.3187 20.8763 41.3595 21.0063 41.3595 21.16C41.3595 21.4225 41.2754 21.6213 41.1071 21.7563C40.9389 21.8913 40.699 21.96 40.3877 21.9625H39.3217ZM39.8867 20.7738V21.5106H40.3707C40.5038 21.5106 40.6074 21.4794 40.6815 21.4169C40.7568 21.3531 40.7945 21.2656 40.7945 21.1544C40.7945 20.9044 40.6645 20.7775 40.4046 20.7738H39.8867ZM39.8867 20.3763H40.3048C40.5898 20.3713 40.7323 20.2581 40.7323 20.0369C40.7323 19.9131 40.6959 19.8244 40.6231 19.7706C40.5515 19.7156 40.4379 19.6881 40.2822 19.6881H39.8867V20.3763Z" fill="#231F20"/>
<path d="M44.0377 20.6594C44.0377 20.9281 43.99 21.1638 43.8945 21.3663C43.7991 21.5688 43.6623 21.725 43.484 21.835C43.3069 21.945 43.1035 22 42.8737 22C42.6465 22 42.4437 21.9456 42.2654 21.8369C42.0871 21.7281 41.949 21.5731 41.8511 21.3719C41.7531 21.1694 41.7035 20.9369 41.7023 20.6744V20.5394C41.7023 20.2706 41.7506 20.0344 41.8473 19.8306C41.9452 19.6256 42.0827 19.4688 42.2598 19.36C42.4381 19.25 42.6415 19.195 42.87 19.195C43.0985 19.195 43.3013 19.25 43.4783 19.36C43.6566 19.4688 43.7941 19.6256 43.8908 19.8306C43.9887 20.0344 44.0377 20.27 44.0377 20.5375V20.6594ZM43.4651 20.5356C43.4651 20.2494 43.4137 20.0319 43.3107 19.8831C43.2077 19.7344 43.0608 19.66 42.87 19.66C42.6804 19.66 42.5341 19.7338 42.4311 19.8812C42.3282 20.0275 42.2761 20.2425 42.2748 20.5263V20.6594C42.2748 20.9381 42.3263 21.1544 42.4293 21.3081C42.5322 21.4619 42.6804 21.5388 42.8737 21.5388C43.0633 21.5388 43.209 21.465 43.3107 21.3175C43.4124 21.1688 43.4639 20.9525 43.4651 20.6688V20.5356Z" fill="#231F20"/>
<g clip-path="url(#clip0)">
<path d="M19.2583 41.6469H18.4751C17.2445 41.6469 16.0512 40.7474 16.0512 38.4982C16.0512 36.1556 17.17 35.1997 18.3073 35.1997H19.2583V41.6469ZM20.4889 34.0002H18.3634C16.2746 34.0002 14.5037 35.5936 14.5037 38.6859C14.5037 40.5413 15.3614 41.9095 16.8905 42.5838L14.0374 47.7566C13.944 47.9254 14.0374 48.0566 14.1864 48.0566H15.5104C15.6221 48.0566 15.6971 48.0192 15.7343 47.9254L18.3262 42.8464H19.2583V47.9254C19.2583 47.9818 19.3144 48.0566 19.3889 48.0566H20.545C20.6568 48.0566 20.694 48.0002 20.694 47.9069V34.1874C20.694 34.0566 20.6195 34.0002 20.4889 34.0002Z" fill="#ED1E24"/>
<path d="M27.4965 38.6591H26.3404C26.247 38.6591 26.1914 38.734 26.1914 38.7904V42.3699H24.047V38.7904C24.047 38.6965 24.0098 38.6591 23.9164 38.6591H22.7603C22.6675 38.6591 22.6113 38.7155 22.6113 38.7904V47.8991C22.6113 47.9924 22.6486 48.0488 22.7414 48.0488H23.9164C23.9909 48.0488 24.047 47.9924 24.047 47.8991V43.5509H26.1914V47.8991C26.1914 47.9924 26.247 48.0488 26.3404 48.0488H27.4965C27.5899 48.0488 27.6271 47.9734 27.6271 47.8991V38.7904C27.6271 38.7155 27.571 38.6591 27.4965 38.6591Z" fill="#231F20"/>
<path d="M53.8935 47.4488L53.7445 46.8119C53.7256 46.7555 53.7072 46.7365 53.6511 46.7365C53.5577 46.7365 53.0547 46.9427 52.3271 46.9427C50.9103 46.9427 50.22 45.5745 50.22 43.4006C50.22 41.4888 50.798 39.596 51.7679 39.596C52.0287 39.596 52.346 39.6709 52.8491 40.1396C52.9052 40.196 52.9424 40.2145 52.9986 40.2145C53.0547 40.2145 53.1103 40.177 53.1664 40.0832L53.67 39.2586C53.7072 39.2027 53.7256 39.1463 53.7256 39.0898C53.7256 39.015 53.6511 38.9591 53.5394 38.9027C52.7746 38.5088 52.2526 38.434 51.8052 38.434C50.0526 38.434 48.6914 40.5329 48.6914 43.8129C48.6914 46.6427 49.9965 48.2734 51.8613 48.2734C52.6445 48.2734 53.4832 47.8986 53.819 47.655C53.8935 47.5986 53.9123 47.5237 53.8935 47.4488Z" fill="#231F20"/>
<path d="M45.7886 42.895L48.0264 38.7904C48.0636 38.7345 48.0447 38.6591 47.9702 38.6591H46.8702C46.5529 38.6591 46.4412 38.7719 46.3294 39.0155L44.6514 42.5201C44.558 42.7263 44.4646 42.8575 44.3713 42.914V38.7904C44.3713 38.7155 44.334 38.6591 44.2595 38.6591H43.0473C42.9917 38.6591 42.9355 38.7155 42.9355 38.7904V47.9175C42.9355 47.974 42.9728 48.0488 43.0473 48.0488H44.2595C44.334 48.0488 44.3713 47.9924 44.3713 47.9175V43.2134C44.4274 43.2509 44.4646 43.3073 44.5019 43.3822L46.6274 47.7678C46.7396 47.9924 46.9075 48.0488 47.1498 48.0488H48.3432C48.4177 48.0488 48.4366 47.974 48.3988 47.9175L45.7886 42.895Z" fill="#231F20"/>
<path d="M33.0901 46.8683H30.3865C31.3375 45.238 31.7105 43.4011 31.8411 41.1519C31.8784 40.6647 31.8967 40.1591 31.8967 39.8401H33.0901V46.8683ZM35.1039 46.8683H34.8804C34.6003 46.8683 34.5258 46.756 34.5258 46.5309V38.7909C34.5258 38.697 34.4886 38.6596 34.4141 38.6596H30.685C30.5916 38.6596 30.5355 38.7155 30.5355 38.7909V39.4652C30.5355 41.7329 30.4054 44.657 29.212 46.8683H28.8013C28.6896 46.8683 28.6523 46.9247 28.6523 47.018V49.7545C28.6523 49.8483 28.7268 49.8857 28.783 49.8857H29.6779C29.883 49.8857 29.9574 49.736 29.9574 49.6047V48.0488H33.9478V49.7545C33.9478 49.8293 34.0039 49.8857 34.0784 49.8857H35.0294C35.1411 49.8857 35.2534 49.7919 35.2534 49.6047V47.018C35.2534 46.9247 35.1972 46.8683 35.1039 46.8683Z" fill="#231F20"/>
<path d="M38.7036 42.5011C38.275 42.5011 37.6036 42.576 37.6036 42.576C37.6036 42.576 37.6036 42.295 37.6408 41.995C37.8087 40.4022 38.2 39.596 38.8531 39.596C39.4495 39.596 39.8224 40.4206 39.9158 41.8642C39.9342 42.1637 39.9342 42.5011 39.9342 42.5011H38.7036ZM38.9087 38.4345C36.8949 38.4345 36 40.9832 36 43.757C36 46.5868 37.2679 48.2734 39.1327 48.2734C40.0459 48.2734 40.848 47.9175 41.2582 47.655C41.3327 47.6175 41.3515 47.5616 41.3327 47.4863L41.1837 46.8493C41.1648 46.7745 41.1275 46.737 41.0342 46.737C40.9597 46.737 40.4189 46.9432 39.6546 46.9432C38.2189 46.9432 37.5474 45.6873 37.5474 44.0381V43.5945C37.5474 43.5945 38.275 43.6822 38.7036 43.6822H41.426V42.895C41.426 39.9898 40.4005 38.4345 38.9087 38.4345Z" fill="#231F20"/>
</g>
<line opacity="0.05" x1="10" y1="28.5" x2="58" y2="28.5" stroke="black"/>
<defs>
<linearGradient id="paint0_linear" x1="34.2501" y1="0" x2="34.2501" y2="73.5004" gradientUnits="userSpaceOnUse">
<stop stop-color="#FFC565"/>
<stop offset="1" stop-color="#ECA842"/>
</linearGradient>
<clipPath id="clip0">
<rect width="40" height="16" fill="white" transform="translate(14 34)"/>
</clipPath>
</defs>
</svg>
